M48
; DRILL file {KiCad 7.0.7-7.0.7~ubuntu22.04.1} date 2023年09月26日 22時11分34秒
; FORMAT={-:-/ absolute / inch / decimal}
; #@! TF.CreationDate,2023-09-26T22:11:34+09:00
; #@! TF.GenerationSoftware,Kicad,Pcbnew,7.0.7-7.0.7~ubuntu22.04.1
; #@! TF.FileFunction,Plated,1,2,PTH
FMAT,2
INCH
; #@! TA.AperFunction,Plated,PTH,ViaDrill
T1C0.0118
; #@! TA.AperFunction,Plated,PTH,ComponentDrill
T2C0.0300
; #@! TA.AperFunction,Plated,PTH,ComponentDrill
T3C0.0315
; #@! TA.AperFunction,Plated,PTH,ComponentDrill
T4C0.0320
; #@! TA.AperFunction,Plated,PTH,ComponentDrill
T5C0.0354
; #@! TA.AperFunction,Plated,PTH,ComponentDrill
T6C0.0394
; #@! TA.AperFunction,Plated,PTH,ViaDrill
T7C0.0394
; #@! TA.AperFunction,Plated,PTH,ComponentDrill
T8C0.0394
; #@! TA.AperFunction,Plated,PTH,ComponentDrill
T9C0.0433
; #@! TA.AperFunction,Plated,PTH,ComponentDrill
T10C0.0512
; #@! TA.AperFunction,Plated,PTH,ComponentDrill
T11C0.1063
%
G90
G05
T1
X3.3701Y-7.5197
T2
X3.4917Y-5.1484
X3.6965Y-4.626
X3.6965Y-4.726
X3.6965Y-4.826
X3.6965Y-4.926
X3.6965Y-5.026
X3.8333Y-4.526
X3.8726Y-5.3563
X4.3077Y-5.3563
X4.347Y-4.526
X4.4839Y-4.626
X4.4839Y-4.726
X4.4839Y-4.826
X4.4839Y-4.926
X4.4839Y-5.026
T3
X3.1102Y-4.5866
X3.1102Y-4.6654
X3.3661Y-4.5866
X3.3661Y-4.6654
X4.5157Y-6.8937
X4.5236Y-7.1811
X4.5945Y-6.8937
X4.6024Y-7.1811
T5
X2.9917Y-4.0157
X3.0917Y-4.0157
X3.1417Y-5.7657
X3.1917Y-4.0157
X3.2417Y-5.7657
X3.2917Y-4.0157
X3.3917Y-4.0157
X3.4917Y-4.0157
X3.5917Y-4.0157
X3.6917Y-4.0157
X3.7917Y-4.0157
X3.878Y-7.6969
X3.8917Y-4.0157
X3.978Y-7.6969
X3.9917Y-4.0157
X4.0917Y-4.0157
X4.1917Y-4.0157
X4.2917Y-4.0157
X4.3917Y-4.0157
X4.4917Y-4.0157
X4.5917Y-4.0157
X4.6417Y-5.7657
X4.6917Y-4.0157
X4.7417Y-5.7657
X4.7917Y-4.0157
X4.8917Y-4.0157
T6
X2.7008Y-4.6189
X2.7008Y-4.7189
X2.7008Y-4.8189
X2.7008Y-4.9189
X2.7008Y-5.0189
X2.7008Y-5.1189
X2.7008Y-5.2189
X2.7008Y-5.3189
X2.7008Y-5.5189
X3.0118Y-5.5039
X3.0118Y-5.6039
X3.0118Y-5.7039
X3.0118Y-5.8039
X3.0118Y-5.9039
X3.0118Y-6.0039
X3.0512Y-5.0591
X3.0913Y-4.4291
X3.0961Y-8.8583
X3.0961Y-8.9961
X3.1913Y-4.4291
X3.1961Y-8.8583
X3.1961Y-8.9961
X3.2504Y-5.0591
X3.2913Y-4.4291
X3.2961Y-8.8583
X3.2961Y-8.9961
X3.3913Y-4.4291
X3.3961Y-8.8583
X3.3961Y-8.9961
X3.4913Y-4.4291
X3.4961Y-8.8583
X3.4961Y-8.9961
X3.5913Y-4.4291
X3.5961Y-8.8583
X3.5961Y-8.9961
X3.5961Y-9.0945
X3.6913Y-4.4291
X3.6961Y-8.8583
X3.6961Y-8.9961
X3.6961Y-9.0945
X3.7913Y-4.4291
X3.7961Y-8.8583
X3.7961Y-8.9961
X3.7961Y-9.0945
X3.8913Y-4.4291
X3.8961Y-8.8583
X3.8961Y-8.9961
X3.8961Y-9.0945
X3.9913Y-4.4291
X3.9961Y-8.8583
X3.9961Y-8.9961
X3.9961Y-9.0945
X4.0913Y-4.4291
X4.0961Y-8.8583
X4.0961Y-8.9961
X4.0961Y-9.0945
X4.1913Y-4.4291
X4.1961Y-8.8583
X4.1961Y-8.9961
X4.1961Y-9.0945
X4.2913Y-4.4291
X4.2961Y-8.8583
X4.2961Y-8.9961
X4.2961Y-9.0945
X4.4732Y-9.0945
X4.5717Y-9.0945
X4.7244Y-6.4567
X4.7244Y-6.5567
X4.7244Y-6.6567
X4.7244Y-6.7567
X4.7244Y-6.8567
X4.7244Y-6.9567
T7
X2.811Y-4.3228
X2.8819Y-4.5906
X2.9678Y-4.3286
X3.0984Y-5.3543
X3.1102Y-4.9766
X3.1693Y-7.5197
X3.189Y-4.1732
X3.206Y-5.9641
X3.2164Y-5.8958
X3.2898Y-4.8425
X3.2898Y-5.1513
X3.2898Y-5.3009
X3.292Y-5.8527
X3.2972Y-7.5098
X3.3435Y-5.8138
X3.3937Y-6.4016
X3.3966Y-7.427
X3.4268Y-5.8571
X3.4354Y-6.4909
X3.4562Y-7.4139
X3.4703Y-5.9267
X3.4995Y-6.4634
X3.5039Y-4.9803
X3.5137Y-7.3557
X3.5382Y-8.5236
X3.574Y-7.5629
X3.5747Y-7.353
X3.5831Y-7.6448
X3.5909Y-5.298
X3.6023Y-6.4822
X3.622Y-7.4213
X3.6248Y-6.3363
X3.6417Y-5.9646
X3.6535Y-7.7244
X3.6744Y-6.3858
X3.6842Y-6.4973
X3.7008Y-7.6772
X3.732Y-6.0055
X3.7342Y-7.3194
X3.7346Y-7.3813
X3.7983Y-4.1395
X3.8525Y-6.5932
X3.8689Y-5.0395
X3.883Y-6.0383
X3.8875Y-4.7822
X3.8883Y-6.3622
X3.8976Y-4.1929
X3.9034Y-5.1629
X3.9508Y-5.0414
X3.9724Y-6.4594
X4.0274Y-7.125
X4.0278Y-4.5077
X4.0533Y-7.2824
X4.069Y-7.3868
X4.0748Y-4.6457
X4.1212Y-4.546
X4.1408Y-5.5433
X4.148Y-7.3548
X4.148Y-7.4388
X4.1489Y-5.657
X4.1661Y-8.5276
X4.189Y-6.5669
X4.2283Y-7.4882
X4.2299Y-6.7935
X4.2444Y-6.4644
X4.2536Y-6.9292
X4.2724Y-6.2928
X4.2818Y-7.1102
X4.2913Y-4.3386
X4.296Y-7.0693
X4.3138Y-5.2503
X4.3228Y-6.5433
X4.3236Y-7.6105
X4.3362Y-6.9705
X4.3484Y-6.6445
X4.3541Y-6.4018
X4.4646Y-6.4882
X4.4927Y-4.2139
X4.5394Y-7.6575
X4.5503Y-7.577
X4.5519Y-5.2463
X4.6296Y-7.4254
X4.6299Y-6.4803
X4.6381Y-7.5454
X4.6417Y-5.9843
X4.7146Y-4.6555
X4.7226Y-5.8805
X4.729Y-4.9866
X4.7817Y-5.8954
X4.7933Y-5.4516
X4.8307Y-6.6102
X4.8346Y-4.4016
X4.8858Y-6.748
X4.9954Y-5.5455
X5.0351Y-6.4918
X5.0669Y-5.8425
X5.0984Y-4.8228
X5.1143Y-6.208
X5.2165Y-5.0787
T9
X3.1791Y-6.1315
X3.1791Y-6.3087
X3.435Y-6.1315
X3.435Y-6.3087
X3.8083Y-6.1315
X3.8083Y-6.3087
X4.0642Y-6.1315
X4.0642Y-6.3087
X4.478Y-6.0917
X4.478Y-6.3476
X4.6551Y-6.0917
X4.6551Y-6.3476
T10
X2.7047Y-8.8031
X2.9047Y-8.8031
T11
X3.4055Y-6.9685
T2
G00X3.6939Y-4.526
M15
G01X3.7269Y-4.526
M16
G05
G00X3.7136Y-5.3563
M15
G01X3.7466Y-5.3563
M16
G05
G00X4.4337Y-5.3563
M15
G01X4.4667Y-5.3563
M16
G05
G00X4.4534Y-4.526
M15
G01X4.4864Y-4.526
M16
G05
T4
G00X4.9591Y-8.8464
M15
G01X4.873Y-8.8464
M16
G05
T8
G00X4.798Y-9.0866
M15
G01X4.798Y-8.9882
M16
G05
G00X5.0441Y-9.0846
M15
G01X5.0441Y-8.9862
M16
G05
T0
M30
