G04 #@! TF.GenerationSoftware,KiCad,Pcbnew,7.0.7-7.0.7~ubuntu22.04.1*
G04 #@! TF.CreationDate,2023-09-26T22:11:31+09:00*
G04 #@! TF.ProjectId,ozone12864,6f7a6f6e-6531-4323-9836-342e6b696361,rev?*
G04 #@! TF.SameCoordinates,Original*
G04 #@! TF.FileFunction,Legend,Top*
G04 #@! TF.FilePolarity,Positive*
%FSLAX46Y46*%
G04 Gerber Fmt 4.6, Leading zero omitted, Abs format (unit mm)*
G04 Created by KiCad (PCBNEW 7.0.7-7.0.7~ubuntu22.04.1) date 2023-09-26 22:11:31*
%MOMM*%
%LPD*%
G01*
G04 APERTURE LIST*
%ADD10C,0.150000*%
%ADD11C,0.250000*%
%ADD12C,0.125000*%
%ADD13C,0.175000*%
%ADD14C,0.300000*%
%ADD15C,0.075000*%
%ADD16C,0.200000*%
%ADD17C,0.100000*%
%ADD18C,0.304800*%
%ADD19C,0.120000*%
%ADD20C,0.381000*%
%ADD21C,0.002540*%
%ADD22R,5.001260X5.001260*%
%ADD23R,5.001260X2.999740*%
G04 APERTURE END LIST*
D10*
X136800000Y-215000000D02*
X143000000Y-216800000D01*
X136800000Y-215000000D02*
X148600000Y-215000000D01*
X136800000Y-215000000D02*
X143200000Y-212400000D01*
X106999999Y-152835771D02*
X106952380Y-152788152D01*
X106952380Y-152788152D02*
X106857142Y-152645295D01*
X106857142Y-152645295D02*
X106809523Y-152550057D01*
X106809523Y-152550057D02*
X106761904Y-152407200D01*
X106761904Y-152407200D02*
X106714285Y-152169104D01*
X106714285Y-152169104D02*
X106714285Y-151978628D01*
X106714285Y-151978628D02*
X106761904Y-151740533D01*
X106761904Y-151740533D02*
X106809523Y-151597676D01*
X106809523Y-151597676D02*
X106857142Y-151502438D01*
X106857142Y-151502438D02*
X106952380Y-151359580D01*
X106952380Y-151359580D02*
X106999999Y-151311961D01*
X107904761Y-152454819D02*
X107333333Y-152454819D01*
X107619047Y-152454819D02*
X107619047Y-151454819D01*
X107619047Y-151454819D02*
X107523809Y-151597676D01*
X107523809Y-151597676D02*
X107428571Y-151692914D01*
X107428571Y-151692914D02*
X107333333Y-151740533D01*
X108523809Y-151454819D02*
X108619047Y-151454819D01*
X108619047Y-151454819D02*
X108714285Y-151502438D01*
X108714285Y-151502438D02*
X108761904Y-151550057D01*
X108761904Y-151550057D02*
X108809523Y-151645295D01*
X108809523Y-151645295D02*
X108857142Y-151835771D01*
X108857142Y-151835771D02*
X108857142Y-152073866D01*
X108857142Y-152073866D02*
X108809523Y-152264342D01*
X108809523Y-152264342D02*
X108761904Y-152359580D01*
X108761904Y-152359580D02*
X108714285Y-152407200D01*
X108714285Y-152407200D02*
X108619047Y-152454819D01*
X108619047Y-152454819D02*
X108523809Y-152454819D01*
X108523809Y-152454819D02*
X108428571Y-152407200D01*
X108428571Y-152407200D02*
X108380952Y-152359580D01*
X108380952Y-152359580D02*
X108333333Y-152264342D01*
X108333333Y-152264342D02*
X108285714Y-152073866D01*
X108285714Y-152073866D02*
X108285714Y-151835771D01*
X108285714Y-151835771D02*
X108333333Y-151645295D01*
X108333333Y-151645295D02*
X108380952Y-151550057D01*
X108380952Y-151550057D02*
X108428571Y-151502438D01*
X108428571Y-151502438D02*
X108523809Y-151454819D01*
X109285714Y-152454819D02*
X109285714Y-151454819D01*
X109380952Y-152073866D02*
X109666666Y-152454819D01*
X109666666Y-151788152D02*
X109285714Y-152169104D01*
X110000000Y-152835771D02*
X110047619Y-152788152D01*
X110047619Y-152788152D02*
X110142857Y-152645295D01*
X110142857Y-152645295D02*
X110190476Y-152550057D01*
X110190476Y-152550057D02*
X110238095Y-152407200D01*
X110238095Y-152407200D02*
X110285714Y-152169104D01*
X110285714Y-152169104D02*
X110285714Y-151978628D01*
X110285714Y-151978628D02*
X110238095Y-151740533D01*
X110238095Y-151740533D02*
X110190476Y-151597676D01*
X110190476Y-151597676D02*
X110142857Y-151502438D01*
X110142857Y-151502438D02*
X110047619Y-151359580D01*
X110047619Y-151359580D02*
X110000000Y-151311961D01*
X79214285Y-185954819D02*
X79309523Y-185954819D01*
X79309523Y-185954819D02*
X79404761Y-186002438D01*
X79404761Y-186002438D02*
X79452380Y-186050057D01*
X79452380Y-186050057D02*
X79499999Y-186145295D01*
X79499999Y-186145295D02*
X79547618Y-186335771D01*
X79547618Y-186335771D02*
X79547618Y-186573866D01*
X79547618Y-186573866D02*
X79499999Y-186764342D01*
X79499999Y-186764342D02*
X79452380Y-186859580D01*
X79452380Y-186859580D02*
X79404761Y-186907200D01*
X79404761Y-186907200D02*
X79309523Y-186954819D01*
X79309523Y-186954819D02*
X79214285Y-186954819D01*
X79214285Y-186954819D02*
X79119047Y-186907200D01*
X79119047Y-186907200D02*
X79071428Y-186859580D01*
X79071428Y-186859580D02*
X79023809Y-186764342D01*
X79023809Y-186764342D02*
X78976190Y-186573866D01*
X78976190Y-186573866D02*
X78976190Y-186335771D01*
X78976190Y-186335771D02*
X79023809Y-186145295D01*
X79023809Y-186145295D02*
X79071428Y-186050057D01*
X79071428Y-186050057D02*
X79119047Y-186002438D01*
X79119047Y-186002438D02*
X79214285Y-185954819D01*
X79976190Y-186859580D02*
X80023809Y-186907200D01*
X80023809Y-186907200D02*
X79976190Y-186954819D01*
X79976190Y-186954819D02*
X79928571Y-186907200D01*
X79928571Y-186907200D02*
X79976190Y-186859580D01*
X79976190Y-186859580D02*
X79976190Y-186954819D01*
X80976189Y-186954819D02*
X80404761Y-186954819D01*
X80690475Y-186954819D02*
X80690475Y-185954819D01*
X80690475Y-185954819D02*
X80595237Y-186097676D01*
X80595237Y-186097676D02*
X80499999Y-186192914D01*
X80499999Y-186192914D02*
X80404761Y-186240533D01*
X81833332Y-186288152D02*
X81833332Y-186954819D01*
X81404761Y-186288152D02*
X81404761Y-186811961D01*
X81404761Y-186811961D02*
X81452380Y-186907200D01*
X81452380Y-186907200D02*
X81547618Y-186954819D01*
X81547618Y-186954819D02*
X81690475Y-186954819D01*
X81690475Y-186954819D02*
X81785713Y-186907200D01*
X81785713Y-186907200D02*
X81833332Y-186859580D01*
X82642856Y-186431009D02*
X82309523Y-186431009D01*
X82309523Y-186954819D02*
X82309523Y-185954819D01*
X82309523Y-185954819D02*
X82785713Y-185954819D01*
X83833333Y-186954819D02*
X84357142Y-186288152D01*
X83833333Y-186288152D02*
X84357142Y-186954819D01*
X85452381Y-186050057D02*
X85500000Y-186002438D01*
X85500000Y-186002438D02*
X85595238Y-185954819D01*
X85595238Y-185954819D02*
X85833333Y-185954819D01*
X85833333Y-185954819D02*
X85928571Y-186002438D01*
X85928571Y-186002438D02*
X85976190Y-186050057D01*
X85976190Y-186050057D02*
X86023809Y-186145295D01*
X86023809Y-186145295D02*
X86023809Y-186240533D01*
X86023809Y-186240533D02*
X85976190Y-186383390D01*
X85976190Y-186383390D02*
X85404762Y-186954819D01*
X85404762Y-186954819D02*
X86023809Y-186954819D01*
X81857142Y-194954819D02*
X81285714Y-194954819D01*
X81571428Y-194954819D02*
X81571428Y-193954819D01*
X81571428Y-193954819D02*
X81476190Y-194097676D01*
X81476190Y-194097676D02*
X81380952Y-194192914D01*
X81380952Y-194192914D02*
X81285714Y-194240533D01*
X82476190Y-193954819D02*
X82571428Y-193954819D01*
X82571428Y-193954819D02*
X82666666Y-194002438D01*
X82666666Y-194002438D02*
X82714285Y-194050057D01*
X82714285Y-194050057D02*
X82761904Y-194145295D01*
X82761904Y-194145295D02*
X82809523Y-194335771D01*
X82809523Y-194335771D02*
X82809523Y-194573866D01*
X82809523Y-194573866D02*
X82761904Y-194764342D01*
X82761904Y-194764342D02*
X82714285Y-194859580D01*
X82714285Y-194859580D02*
X82666666Y-194907200D01*
X82666666Y-194907200D02*
X82571428Y-194954819D01*
X82571428Y-194954819D02*
X82476190Y-194954819D01*
X82476190Y-194954819D02*
X82380952Y-194907200D01*
X82380952Y-194907200D02*
X82333333Y-194859580D01*
X82333333Y-194859580D02*
X82285714Y-194764342D01*
X82285714Y-194764342D02*
X82238095Y-194573866D01*
X82238095Y-194573866D02*
X82238095Y-194335771D01*
X82238095Y-194335771D02*
X82285714Y-194145295D01*
X82285714Y-194145295D02*
X82333333Y-194050057D01*
X82333333Y-194050057D02*
X82380952Y-194002438D01*
X82380952Y-194002438D02*
X82476190Y-193954819D01*
X83666666Y-194288152D02*
X83666666Y-194954819D01*
X83238095Y-194288152D02*
X83238095Y-194811961D01*
X83238095Y-194811961D02*
X83285714Y-194907200D01*
X83285714Y-194907200D02*
X83380952Y-194954819D01*
X83380952Y-194954819D02*
X83523809Y-194954819D01*
X83523809Y-194954819D02*
X83619047Y-194907200D01*
X83619047Y-194907200D02*
X83666666Y-194859580D01*
X87904761Y-193454819D02*
X87333333Y-193454819D01*
X87619047Y-193454819D02*
X87619047Y-192454819D01*
X87619047Y-192454819D02*
X87523809Y-192597676D01*
X87523809Y-192597676D02*
X87428571Y-192692914D01*
X87428571Y-192692914D02*
X87333333Y-192740533D01*
X88523809Y-192454819D02*
X88619047Y-192454819D01*
X88619047Y-192454819D02*
X88714285Y-192502438D01*
X88714285Y-192502438D02*
X88761904Y-192550057D01*
X88761904Y-192550057D02*
X88809523Y-192645295D01*
X88809523Y-192645295D02*
X88857142Y-192835771D01*
X88857142Y-192835771D02*
X88857142Y-193073866D01*
X88857142Y-193073866D02*
X88809523Y-193264342D01*
X88809523Y-193264342D02*
X88761904Y-193359580D01*
X88761904Y-193359580D02*
X88714285Y-193407200D01*
X88714285Y-193407200D02*
X88619047Y-193454819D01*
X88619047Y-193454819D02*
X88523809Y-193454819D01*
X88523809Y-193454819D02*
X88428571Y-193407200D01*
X88428571Y-193407200D02*
X88380952Y-193359580D01*
X88380952Y-193359580D02*
X88333333Y-193264342D01*
X88333333Y-193264342D02*
X88285714Y-193073866D01*
X88285714Y-193073866D02*
X88285714Y-192835771D01*
X88285714Y-192835771D02*
X88333333Y-192645295D01*
X88333333Y-192645295D02*
X88380952Y-192550057D01*
X88380952Y-192550057D02*
X88428571Y-192502438D01*
X88428571Y-192502438D02*
X88523809Y-192454819D01*
X89285714Y-193454819D02*
X89285714Y-192454819D01*
X89380952Y-193073866D02*
X89666666Y-193454819D01*
X89666666Y-192788152D02*
X89285714Y-193169104D01*
X100285714Y-191654819D02*
X99714286Y-191654819D01*
X100000000Y-191654819D02*
X100000000Y-190654819D01*
X100000000Y-190654819D02*
X99904762Y-190797676D01*
X99904762Y-190797676D02*
X99809524Y-190892914D01*
X99809524Y-190892914D02*
X99714286Y-190940533D01*
X100904762Y-190654819D02*
X101000000Y-190654819D01*
X101000000Y-190654819D02*
X101095238Y-190702438D01*
X101095238Y-190702438D02*
X101142857Y-190750057D01*
X101142857Y-190750057D02*
X101190476Y-190845295D01*
X101190476Y-190845295D02*
X101238095Y-191035771D01*
X101238095Y-191035771D02*
X101238095Y-191273866D01*
X101238095Y-191273866D02*
X101190476Y-191464342D01*
X101190476Y-191464342D02*
X101142857Y-191559580D01*
X101142857Y-191559580D02*
X101095238Y-191607200D01*
X101095238Y-191607200D02*
X101000000Y-191654819D01*
X101000000Y-191654819D02*
X100904762Y-191654819D01*
X100904762Y-191654819D02*
X100809524Y-191607200D01*
X100809524Y-191607200D02*
X100761905Y-191559580D01*
X100761905Y-191559580D02*
X100714286Y-191464342D01*
X100714286Y-191464342D02*
X100666667Y-191273866D01*
X100666667Y-191273866D02*
X100666667Y-191035771D01*
X100666667Y-191035771D02*
X100714286Y-190845295D01*
X100714286Y-190845295D02*
X100761905Y-190750057D01*
X100761905Y-190750057D02*
X100809524Y-190702438D01*
X100809524Y-190702438D02*
X100904762Y-190654819D01*
X101857143Y-190654819D02*
X101952381Y-190654819D01*
X101952381Y-190654819D02*
X102047619Y-190702438D01*
X102047619Y-190702438D02*
X102095238Y-190750057D01*
X102095238Y-190750057D02*
X102142857Y-190845295D01*
X102142857Y-190845295D02*
X102190476Y-191035771D01*
X102190476Y-191035771D02*
X102190476Y-191273866D01*
X102190476Y-191273866D02*
X102142857Y-191464342D01*
X102142857Y-191464342D02*
X102095238Y-191559580D01*
X102095238Y-191559580D02*
X102047619Y-191607200D01*
X102047619Y-191607200D02*
X101952381Y-191654819D01*
X101952381Y-191654819D02*
X101857143Y-191654819D01*
X101857143Y-191654819D02*
X101761905Y-191607200D01*
X101761905Y-191607200D02*
X101714286Y-191559580D01*
X101714286Y-191559580D02*
X101666667Y-191464342D01*
X101666667Y-191464342D02*
X101619048Y-191273866D01*
X101619048Y-191273866D02*
X101619048Y-191035771D01*
X101619048Y-191035771D02*
X101666667Y-190845295D01*
X101666667Y-190845295D02*
X101714286Y-190750057D01*
X101714286Y-190750057D02*
X101761905Y-190702438D01*
X101761905Y-190702438D02*
X101857143Y-190654819D01*
X102619048Y-191273866D02*
X103380953Y-191273866D01*
X104333333Y-190654819D02*
X103857143Y-190654819D01*
X103857143Y-190654819D02*
X103809524Y-191131009D01*
X103809524Y-191131009D02*
X103857143Y-191083390D01*
X103857143Y-191083390D02*
X103952381Y-191035771D01*
X103952381Y-191035771D02*
X104190476Y-191035771D01*
X104190476Y-191035771D02*
X104285714Y-191083390D01*
X104285714Y-191083390D02*
X104333333Y-191131009D01*
X104333333Y-191131009D02*
X104380952Y-191226247D01*
X104380952Y-191226247D02*
X104380952Y-191464342D01*
X104380952Y-191464342D02*
X104333333Y-191559580D01*
X104333333Y-191559580D02*
X104285714Y-191607200D01*
X104285714Y-191607200D02*
X104190476Y-191654819D01*
X104190476Y-191654819D02*
X103952381Y-191654819D01*
X103952381Y-191654819D02*
X103857143Y-191607200D01*
X103857143Y-191607200D02*
X103809524Y-191559580D01*
X105333333Y-191654819D02*
X104761905Y-191654819D01*
X105047619Y-191654819D02*
X105047619Y-190654819D01*
X105047619Y-190654819D02*
X104952381Y-190797676D01*
X104952381Y-190797676D02*
X104857143Y-190892914D01*
X104857143Y-190892914D02*
X104761905Y-190940533D01*
X105952381Y-190654819D02*
X106047619Y-190654819D01*
X106047619Y-190654819D02*
X106142857Y-190702438D01*
X106142857Y-190702438D02*
X106190476Y-190750057D01*
X106190476Y-190750057D02*
X106238095Y-190845295D01*
X106238095Y-190845295D02*
X106285714Y-191035771D01*
X106285714Y-191035771D02*
X106285714Y-191273866D01*
X106285714Y-191273866D02*
X106238095Y-191464342D01*
X106238095Y-191464342D02*
X106190476Y-191559580D01*
X106190476Y-191559580D02*
X106142857Y-191607200D01*
X106142857Y-191607200D02*
X106047619Y-191654819D01*
X106047619Y-191654819D02*
X105952381Y-191654819D01*
X105952381Y-191654819D02*
X105857143Y-191607200D01*
X105857143Y-191607200D02*
X105809524Y-191559580D01*
X105809524Y-191559580D02*
X105761905Y-191464342D01*
X105761905Y-191464342D02*
X105714286Y-191273866D01*
X105714286Y-191273866D02*
X105714286Y-191035771D01*
X105714286Y-191035771D02*
X105761905Y-190845295D01*
X105761905Y-190845295D02*
X105809524Y-190750057D01*
X105809524Y-190750057D02*
X105857143Y-190702438D01*
X105857143Y-190702438D02*
X105952381Y-190654819D01*
D11*
X116881904Y-226268666D02*
X116120000Y-226268666D01*
X116500952Y-226649619D02*
X116500952Y-225887714D01*
X114119999Y-226268666D02*
X113358095Y-226268666D01*
D12*
X66817333Y-141049998D02*
X66817333Y-140616664D01*
X66817333Y-140616664D02*
X67084000Y-140849998D01*
X67084000Y-140849998D02*
X67084000Y-140749998D01*
X67084000Y-140749998D02*
X67117333Y-140683331D01*
X67117333Y-140683331D02*
X67150666Y-140649998D01*
X67150666Y-140649998D02*
X67217333Y-140616664D01*
X67217333Y-140616664D02*
X67384000Y-140616664D01*
X67384000Y-140616664D02*
X67450666Y-140649998D01*
X67450666Y-140649998D02*
X67484000Y-140683331D01*
X67484000Y-140683331D02*
X67517333Y-140749998D01*
X67517333Y-140749998D02*
X67517333Y-140949998D01*
X67517333Y-140949998D02*
X67484000Y-141016664D01*
X67484000Y-141016664D02*
X67450666Y-141049998D01*
X66817333Y-140416664D02*
X67517333Y-140183331D01*
X67517333Y-140183331D02*
X66817333Y-139949997D01*
X66817333Y-139783331D02*
X66817333Y-139349997D01*
X66817333Y-139349997D02*
X67084000Y-139583331D01*
X67084000Y-139583331D02*
X67084000Y-139483331D01*
X67084000Y-139483331D02*
X67117333Y-139416664D01*
X67117333Y-139416664D02*
X67150666Y-139383331D01*
X67150666Y-139383331D02*
X67217333Y-139349997D01*
X67217333Y-139349997D02*
X67384000Y-139349997D01*
X67384000Y-139349997D02*
X67450666Y-139383331D01*
X67450666Y-139383331D02*
X67484000Y-139416664D01*
X67484000Y-139416664D02*
X67517333Y-139483331D01*
X67517333Y-139483331D02*
X67517333Y-139683331D01*
X67517333Y-139683331D02*
X67484000Y-139749997D01*
X67484000Y-139749997D02*
X67450666Y-139783331D01*
X66850666Y-138149997D02*
X66817333Y-138216664D01*
X66817333Y-138216664D02*
X66817333Y-138316664D01*
X66817333Y-138316664D02*
X66850666Y-138416664D01*
X66850666Y-138416664D02*
X66917333Y-138483331D01*
X66917333Y-138483331D02*
X66984000Y-138516664D01*
X66984000Y-138516664D02*
X67117333Y-138549997D01*
X67117333Y-138549997D02*
X67217333Y-138549997D01*
X67217333Y-138549997D02*
X67350666Y-138516664D01*
X67350666Y-138516664D02*
X67417333Y-138483331D01*
X67417333Y-138483331D02*
X67484000Y-138416664D01*
X67484000Y-138416664D02*
X67517333Y-138316664D01*
X67517333Y-138316664D02*
X67517333Y-138249997D01*
X67517333Y-138249997D02*
X67484000Y-138149997D01*
X67484000Y-138149997D02*
X67450666Y-138116664D01*
X67450666Y-138116664D02*
X67217333Y-138116664D01*
X67217333Y-138116664D02*
X67217333Y-138249997D01*
X67517333Y-137816664D02*
X66817333Y-137816664D01*
X66817333Y-137816664D02*
X67517333Y-137416664D01*
X67517333Y-137416664D02*
X66817333Y-137416664D01*
X67517333Y-137083331D02*
X66817333Y-137083331D01*
X66817333Y-137083331D02*
X66817333Y-136916664D01*
X66817333Y-136916664D02*
X66850666Y-136816664D01*
X66850666Y-136816664D02*
X66917333Y-136749998D01*
X66917333Y-136749998D02*
X66984000Y-136716664D01*
X66984000Y-136716664D02*
X67117333Y-136683331D01*
X67117333Y-136683331D02*
X67217333Y-136683331D01*
X67217333Y-136683331D02*
X67350666Y-136716664D01*
X67350666Y-136716664D02*
X67417333Y-136749998D01*
X67417333Y-136749998D02*
X67484000Y-136816664D01*
X67484000Y-136816664D02*
X67517333Y-136916664D01*
X67517333Y-136916664D02*
X67517333Y-137083331D01*
X66817333Y-135949998D02*
X67517333Y-135716665D01*
X67517333Y-135716665D02*
X66817333Y-135483331D01*
X67517333Y-135249998D02*
X66817333Y-135249998D01*
X67517333Y-134916665D02*
X66817333Y-134916665D01*
X66817333Y-134916665D02*
X67517333Y-134516665D01*
X67517333Y-134516665D02*
X66817333Y-134516665D01*
X67517333Y-133249999D02*
X67184000Y-133483332D01*
X67517333Y-133649999D02*
X66817333Y-133649999D01*
X66817333Y-133649999D02*
X66817333Y-133383332D01*
X66817333Y-133383332D02*
X66850666Y-133316666D01*
X66850666Y-133316666D02*
X66884000Y-133283332D01*
X66884000Y-133283332D02*
X66950666Y-133249999D01*
X66950666Y-133249999D02*
X67050666Y-133249999D01*
X67050666Y-133249999D02*
X67117333Y-133283332D01*
X67117333Y-133283332D02*
X67150666Y-133316666D01*
X67150666Y-133316666D02*
X67184000Y-133383332D01*
X67184000Y-133383332D02*
X67184000Y-133649999D01*
X66817333Y-133016666D02*
X67517333Y-132549999D01*
X66817333Y-132549999D02*
X67517333Y-133016666D01*
X67517333Y-132283332D02*
X66817333Y-132283332D01*
X66817333Y-132283332D02*
X66817333Y-132116665D01*
X66817333Y-132116665D02*
X66850666Y-132016665D01*
X66850666Y-132016665D02*
X66917333Y-131949999D01*
X66917333Y-131949999D02*
X66984000Y-131916665D01*
X66984000Y-131916665D02*
X67117333Y-131883332D01*
X67117333Y-131883332D02*
X67217333Y-131883332D01*
X67217333Y-131883332D02*
X67350666Y-131916665D01*
X67350666Y-131916665D02*
X67417333Y-131949999D01*
X67417333Y-131949999D02*
X67484000Y-132016665D01*
X67484000Y-132016665D02*
X67517333Y-132116665D01*
X67517333Y-132116665D02*
X67517333Y-132283332D01*
X66817333Y-131149999D02*
X66817333Y-130749999D01*
X67517333Y-130949999D02*
X66817333Y-130949999D01*
X66817333Y-130583333D02*
X67517333Y-130116666D01*
X66817333Y-130116666D02*
X67517333Y-130583333D01*
X67517333Y-129849999D02*
X66817333Y-129849999D01*
X66817333Y-129849999D02*
X66817333Y-129683332D01*
X66817333Y-129683332D02*
X66850666Y-129583332D01*
X66850666Y-129583332D02*
X66917333Y-129516666D01*
X66917333Y-129516666D02*
X66984000Y-129483332D01*
X66984000Y-129483332D02*
X67117333Y-129449999D01*
X67117333Y-129449999D02*
X67217333Y-129449999D01*
X67217333Y-129449999D02*
X67350666Y-129483332D01*
X67350666Y-129483332D02*
X67417333Y-129516666D01*
X67417333Y-129516666D02*
X67484000Y-129583332D01*
X67484000Y-129583332D02*
X67517333Y-129683332D01*
X67517333Y-129683332D02*
X67517333Y-129849999D01*
X66817333Y-128683333D02*
X66817333Y-128249999D01*
X66817333Y-128249999D02*
X67084000Y-128483333D01*
X67084000Y-128483333D02*
X67084000Y-128383333D01*
X67084000Y-128383333D02*
X67117333Y-128316666D01*
X67117333Y-128316666D02*
X67150666Y-128283333D01*
X67150666Y-128283333D02*
X67217333Y-128249999D01*
X67217333Y-128249999D02*
X67384000Y-128249999D01*
X67384000Y-128249999D02*
X67450666Y-128283333D01*
X67450666Y-128283333D02*
X67484000Y-128316666D01*
X67484000Y-128316666D02*
X67517333Y-128383333D01*
X67517333Y-128383333D02*
X67517333Y-128583333D01*
X67517333Y-128583333D02*
X67484000Y-128649999D01*
X67484000Y-128649999D02*
X67450666Y-128683333D01*
X66817333Y-128049999D02*
X67517333Y-127816666D01*
X67517333Y-127816666D02*
X66817333Y-127583332D01*
X66817333Y-127416666D02*
X66817333Y-126983332D01*
X66817333Y-126983332D02*
X67084000Y-127216666D01*
X67084000Y-127216666D02*
X67084000Y-127116666D01*
X67084000Y-127116666D02*
X67117333Y-127049999D01*
X67117333Y-127049999D02*
X67150666Y-127016666D01*
X67150666Y-127016666D02*
X67217333Y-126983332D01*
X67217333Y-126983332D02*
X67384000Y-126983332D01*
X67384000Y-126983332D02*
X67450666Y-127016666D01*
X67450666Y-127016666D02*
X67484000Y-127049999D01*
X67484000Y-127049999D02*
X67517333Y-127116666D01*
X67517333Y-127116666D02*
X67517333Y-127316666D01*
X67517333Y-127316666D02*
X67484000Y-127383332D01*
X67484000Y-127383332D02*
X67450666Y-127416666D01*
X67517333Y-126149999D02*
X66817333Y-126149999D01*
X66817333Y-126149999D02*
X66817333Y-125883332D01*
X66817333Y-125883332D02*
X66850666Y-125816666D01*
X66850666Y-125816666D02*
X66884000Y-125783332D01*
X66884000Y-125783332D02*
X66950666Y-125749999D01*
X66950666Y-125749999D02*
X67050666Y-125749999D01*
X67050666Y-125749999D02*
X67117333Y-125783332D01*
X67117333Y-125783332D02*
X67150666Y-125816666D01*
X67150666Y-125816666D02*
X67184000Y-125883332D01*
X67184000Y-125883332D02*
X67184000Y-126149999D01*
X67517333Y-125049999D02*
X67184000Y-125283332D01*
X67517333Y-125449999D02*
X66817333Y-125449999D01*
X66817333Y-125449999D02*
X66817333Y-125183332D01*
X66817333Y-125183332D02*
X66850666Y-125116666D01*
X66850666Y-125116666D02*
X66884000Y-125083332D01*
X66884000Y-125083332D02*
X66950666Y-125049999D01*
X66950666Y-125049999D02*
X67050666Y-125049999D01*
X67050666Y-125049999D02*
X67117333Y-125083332D01*
X67117333Y-125083332D02*
X67150666Y-125116666D01*
X67150666Y-125116666D02*
X67184000Y-125183332D01*
X67184000Y-125183332D02*
X67184000Y-125449999D01*
X66850666Y-124383332D02*
X66817333Y-124449999D01*
X66817333Y-124449999D02*
X66817333Y-124549999D01*
X66817333Y-124549999D02*
X66850666Y-124649999D01*
X66850666Y-124649999D02*
X66917333Y-124716666D01*
X66917333Y-124716666D02*
X66984000Y-124749999D01*
X66984000Y-124749999D02*
X67117333Y-124783332D01*
X67117333Y-124783332D02*
X67217333Y-124783332D01*
X67217333Y-124783332D02*
X67350666Y-124749999D01*
X67350666Y-124749999D02*
X67417333Y-124716666D01*
X67417333Y-124716666D02*
X67484000Y-124649999D01*
X67484000Y-124649999D02*
X67517333Y-124549999D01*
X67517333Y-124549999D02*
X67517333Y-124483332D01*
X67517333Y-124483332D02*
X67484000Y-124383332D01*
X67484000Y-124383332D02*
X67450666Y-124349999D01*
X67450666Y-124349999D02*
X67217333Y-124349999D01*
X67217333Y-124349999D02*
X67217333Y-124483332D01*
X66850666Y-123149999D02*
X66817333Y-123216666D01*
X66817333Y-123216666D02*
X66817333Y-123316666D01*
X66817333Y-123316666D02*
X66850666Y-123416666D01*
X66850666Y-123416666D02*
X66917333Y-123483333D01*
X66917333Y-123483333D02*
X66984000Y-123516666D01*
X66984000Y-123516666D02*
X67117333Y-123549999D01*
X67117333Y-123549999D02*
X67217333Y-123549999D01*
X67217333Y-123549999D02*
X67350666Y-123516666D01*
X67350666Y-123516666D02*
X67417333Y-123483333D01*
X67417333Y-123483333D02*
X67484000Y-123416666D01*
X67484000Y-123416666D02*
X67517333Y-123316666D01*
X67517333Y-123316666D02*
X67517333Y-123249999D01*
X67517333Y-123249999D02*
X67484000Y-123149999D01*
X67484000Y-123149999D02*
X67450666Y-123116666D01*
X67450666Y-123116666D02*
X67217333Y-123116666D01*
X67217333Y-123116666D02*
X67217333Y-123249999D01*
X67517333Y-122816666D02*
X66817333Y-122816666D01*
X66817333Y-122816666D02*
X67517333Y-122416666D01*
X67517333Y-122416666D02*
X66817333Y-122416666D01*
X67517333Y-122083333D02*
X66817333Y-122083333D01*
X66817333Y-122083333D02*
X66817333Y-121916666D01*
X66817333Y-121916666D02*
X66850666Y-121816666D01*
X66850666Y-121816666D02*
X66917333Y-121750000D01*
X66917333Y-121750000D02*
X66984000Y-121716666D01*
X66984000Y-121716666D02*
X67117333Y-121683333D01*
X67117333Y-121683333D02*
X67217333Y-121683333D01*
X67217333Y-121683333D02*
X67350666Y-121716666D01*
X67350666Y-121716666D02*
X67417333Y-121750000D01*
X67417333Y-121750000D02*
X67484000Y-121816666D01*
X67484000Y-121816666D02*
X67517333Y-121916666D01*
X67517333Y-121916666D02*
X67517333Y-122083333D01*
X67517333Y-120450000D02*
X67184000Y-120683333D01*
X67517333Y-120850000D02*
X66817333Y-120850000D01*
X66817333Y-120850000D02*
X66817333Y-120583333D01*
X66817333Y-120583333D02*
X66850666Y-120516667D01*
X66850666Y-120516667D02*
X66884000Y-120483333D01*
X66884000Y-120483333D02*
X66950666Y-120450000D01*
X66950666Y-120450000D02*
X67050666Y-120450000D01*
X67050666Y-120450000D02*
X67117333Y-120483333D01*
X67117333Y-120483333D02*
X67150666Y-120516667D01*
X67150666Y-120516667D02*
X67184000Y-120583333D01*
X67184000Y-120583333D02*
X67184000Y-120850000D01*
X67484000Y-120183333D02*
X67517333Y-120083333D01*
X67517333Y-120083333D02*
X67517333Y-119916667D01*
X67517333Y-119916667D02*
X67484000Y-119850000D01*
X67484000Y-119850000D02*
X67450666Y-119816667D01*
X67450666Y-119816667D02*
X67384000Y-119783333D01*
X67384000Y-119783333D02*
X67317333Y-119783333D01*
X67317333Y-119783333D02*
X67250666Y-119816667D01*
X67250666Y-119816667D02*
X67217333Y-119850000D01*
X67217333Y-119850000D02*
X67184000Y-119916667D01*
X67184000Y-119916667D02*
X67150666Y-120050000D01*
X67150666Y-120050000D02*
X67117333Y-120116667D01*
X67117333Y-120116667D02*
X67084000Y-120150000D01*
X67084000Y-120150000D02*
X67017333Y-120183333D01*
X67017333Y-120183333D02*
X66950666Y-120183333D01*
X66950666Y-120183333D02*
X66884000Y-120150000D01*
X66884000Y-120150000D02*
X66850666Y-120116667D01*
X66850666Y-120116667D02*
X66817333Y-120050000D01*
X66817333Y-120050000D02*
X66817333Y-119883333D01*
X66817333Y-119883333D02*
X66850666Y-119783333D01*
X66817333Y-119583333D02*
X66817333Y-119183333D01*
X67517333Y-119383333D02*
X66817333Y-119383333D01*
X66850666Y-118050000D02*
X66817333Y-118116667D01*
X66817333Y-118116667D02*
X66817333Y-118216667D01*
X66817333Y-118216667D02*
X66850666Y-118316667D01*
X66850666Y-118316667D02*
X66917333Y-118383334D01*
X66917333Y-118383334D02*
X66984000Y-118416667D01*
X66984000Y-118416667D02*
X67117333Y-118450000D01*
X67117333Y-118450000D02*
X67217333Y-118450000D01*
X67217333Y-118450000D02*
X67350666Y-118416667D01*
X67350666Y-118416667D02*
X67417333Y-118383334D01*
X67417333Y-118383334D02*
X67484000Y-118316667D01*
X67484000Y-118316667D02*
X67517333Y-118216667D01*
X67517333Y-118216667D02*
X67517333Y-118150000D01*
X67517333Y-118150000D02*
X67484000Y-118050000D01*
X67484000Y-118050000D02*
X67450666Y-118016667D01*
X67450666Y-118016667D02*
X67217333Y-118016667D01*
X67217333Y-118016667D02*
X67217333Y-118150000D01*
X67517333Y-117716667D02*
X66817333Y-117716667D01*
X66817333Y-117716667D02*
X67517333Y-117316667D01*
X67517333Y-117316667D02*
X66817333Y-117316667D01*
X67517333Y-116983334D02*
X66817333Y-116983334D01*
X66817333Y-116983334D02*
X66817333Y-116816667D01*
X66817333Y-116816667D02*
X66850666Y-116716667D01*
X66850666Y-116716667D02*
X66917333Y-116650001D01*
X66917333Y-116650001D02*
X66984000Y-116616667D01*
X66984000Y-116616667D02*
X67117333Y-116583334D01*
X67117333Y-116583334D02*
X67217333Y-116583334D01*
X67217333Y-116583334D02*
X67350666Y-116616667D01*
X67350666Y-116616667D02*
X67417333Y-116650001D01*
X67417333Y-116650001D02*
X67484000Y-116716667D01*
X67484000Y-116716667D02*
X67517333Y-116816667D01*
X67517333Y-116816667D02*
X67517333Y-116983334D01*
D10*
X151212969Y-215625057D02*
X151212969Y-212625057D01*
X151212969Y-212625057D02*
X152927255Y-215625057D01*
X152927255Y-215625057D02*
X152927255Y-212625057D01*
X154927255Y-212625057D02*
X155498683Y-212625057D01*
X155498683Y-212625057D02*
X155784398Y-212767914D01*
X155784398Y-212767914D02*
X156070112Y-213053628D01*
X156070112Y-213053628D02*
X156212969Y-213625057D01*
X156212969Y-213625057D02*
X156212969Y-214625057D01*
X156212969Y-214625057D02*
X156070112Y-215196485D01*
X156070112Y-215196485D02*
X155784398Y-215482200D01*
X155784398Y-215482200D02*
X155498683Y-215625057D01*
X155498683Y-215625057D02*
X154927255Y-215625057D01*
X154927255Y-215625057D02*
X154641541Y-215482200D01*
X154641541Y-215482200D02*
X154355826Y-215196485D01*
X154355826Y-215196485D02*
X154212969Y-214625057D01*
X154212969Y-214625057D02*
X154212969Y-213625057D01*
X154212969Y-213625057D02*
X154355826Y-213053628D01*
X154355826Y-213053628D02*
X154641541Y-212767914D01*
X154641541Y-212767914D02*
X154927255Y-212625057D01*
X157070112Y-212625057D02*
X158784398Y-212625057D01*
X157927255Y-215625057D02*
X157927255Y-212625057D01*
X163784397Y-215339342D02*
X163641540Y-215482200D01*
X163641540Y-215482200D02*
X163212968Y-215625057D01*
X163212968Y-215625057D02*
X162927254Y-215625057D01*
X162927254Y-215625057D02*
X162498683Y-215482200D01*
X162498683Y-215482200D02*
X162212968Y-215196485D01*
X162212968Y-215196485D02*
X162070111Y-214910771D01*
X162070111Y-214910771D02*
X161927254Y-214339342D01*
X161927254Y-214339342D02*
X161927254Y-213910771D01*
X161927254Y-213910771D02*
X162070111Y-213339342D01*
X162070111Y-213339342D02*
X162212968Y-213053628D01*
X162212968Y-213053628D02*
X162498683Y-212767914D01*
X162498683Y-212767914D02*
X162927254Y-212625057D01*
X162927254Y-212625057D02*
X163212968Y-212625057D01*
X163212968Y-212625057D02*
X163641540Y-212767914D01*
X163641540Y-212767914D02*
X163784397Y-212910771D01*
X165070111Y-212625057D02*
X165070111Y-215053628D01*
X165070111Y-215053628D02*
X165212968Y-215339342D01*
X165212968Y-215339342D02*
X165355826Y-215482200D01*
X165355826Y-215482200D02*
X165641540Y-215625057D01*
X165641540Y-215625057D02*
X166212968Y-215625057D01*
X166212968Y-215625057D02*
X166498683Y-215482200D01*
X166498683Y-215482200D02*
X166641540Y-215339342D01*
X166641540Y-215339342D02*
X166784397Y-215053628D01*
X166784397Y-215053628D02*
X166784397Y-212625057D01*
X167784397Y-212625057D02*
X169498683Y-212625057D01*
X168641540Y-215625057D02*
X168641540Y-212625057D01*
X110445712Y-111037704D02*
X110232379Y-110237704D01*
X110232379Y-110237704D02*
X110019045Y-111037704D01*
X109531427Y-110771038D02*
X109531427Y-110123419D01*
X109531427Y-110123419D02*
X109561903Y-110047228D01*
X109561903Y-110047228D02*
X109592379Y-110009133D01*
X109592379Y-110009133D02*
X109653332Y-109971038D01*
X109653332Y-109971038D02*
X109744760Y-109971038D01*
X109744760Y-109971038D02*
X109805713Y-110009133D01*
X109531427Y-110275800D02*
X109592379Y-110237704D01*
X109592379Y-110237704D02*
X109714284Y-110237704D01*
X109714284Y-110237704D02*
X109775236Y-110275800D01*
X109775236Y-110275800D02*
X109805713Y-110313895D01*
X109805713Y-110313895D02*
X109836189Y-110390085D01*
X109836189Y-110390085D02*
X109836189Y-110618657D01*
X109836189Y-110618657D02*
X109805713Y-110694847D01*
X109805713Y-110694847D02*
X109775236Y-110732942D01*
X109775236Y-110732942D02*
X109714284Y-110771038D01*
X109714284Y-110771038D02*
X109592379Y-110771038D01*
X109592379Y-110771038D02*
X109531427Y-110732942D01*
X108952379Y-110237704D02*
X108952379Y-110656752D01*
X108952379Y-110656752D02*
X108982855Y-110732942D01*
X108982855Y-110732942D02*
X109043807Y-110771038D01*
X109043807Y-110771038D02*
X109165712Y-110771038D01*
X109165712Y-110771038D02*
X109226665Y-110732942D01*
X108952379Y-110275800D02*
X109013331Y-110237704D01*
X109013331Y-110237704D02*
X109165712Y-110237704D01*
X109165712Y-110237704D02*
X109226665Y-110275800D01*
X109226665Y-110275800D02*
X109257141Y-110351990D01*
X109257141Y-110351990D02*
X109257141Y-110428180D01*
X109257141Y-110428180D02*
X109226665Y-110504371D01*
X109226665Y-110504371D02*
X109165712Y-110542466D01*
X109165712Y-110542466D02*
X109013331Y-110542466D01*
X109013331Y-110542466D02*
X108952379Y-110580561D01*
X108678093Y-110275800D02*
X108617140Y-110237704D01*
X108617140Y-110237704D02*
X108495236Y-110237704D01*
X108495236Y-110237704D02*
X108434283Y-110275800D01*
X108434283Y-110275800D02*
X108403807Y-110351990D01*
X108403807Y-110351990D02*
X108403807Y-110390085D01*
X108403807Y-110390085D02*
X108434283Y-110466276D01*
X108434283Y-110466276D02*
X108495236Y-110504371D01*
X108495236Y-110504371D02*
X108586664Y-110504371D01*
X108586664Y-110504371D02*
X108647617Y-110542466D01*
X108647617Y-110542466D02*
X108678093Y-110618657D01*
X108678093Y-110618657D02*
X108678093Y-110656752D01*
X108678093Y-110656752D02*
X108647617Y-110732942D01*
X108647617Y-110732942D02*
X108586664Y-110771038D01*
X108586664Y-110771038D02*
X108495236Y-110771038D01*
X108495236Y-110771038D02*
X108434283Y-110732942D01*
X107733331Y-111037704D02*
X107519998Y-110237704D01*
X107519998Y-110237704D02*
X107306664Y-111037704D01*
X107093332Y-110237704D02*
X107093332Y-110771038D01*
X107093332Y-110618657D02*
X107062855Y-110694847D01*
X107062855Y-110694847D02*
X107032379Y-110732942D01*
X107032379Y-110732942D02*
X106971427Y-110771038D01*
X106971427Y-110771038D02*
X106910474Y-110771038D01*
X106453332Y-110275800D02*
X106514284Y-110237704D01*
X106514284Y-110237704D02*
X106636189Y-110237704D01*
X106636189Y-110237704D02*
X106697142Y-110275800D01*
X106697142Y-110275800D02*
X106727618Y-110351990D01*
X106727618Y-110351990D02*
X106727618Y-110656752D01*
X106727618Y-110656752D02*
X106697142Y-110732942D01*
X106697142Y-110732942D02*
X106636189Y-110771038D01*
X106636189Y-110771038D02*
X106514284Y-110771038D01*
X106514284Y-110771038D02*
X106453332Y-110732942D01*
X106453332Y-110732942D02*
X106422856Y-110656752D01*
X106422856Y-110656752D02*
X106422856Y-110580561D01*
X106422856Y-110580561D02*
X106727618Y-110504371D01*
X106239999Y-110771038D02*
X105996190Y-110771038D01*
X106148571Y-110237704D02*
X106148571Y-110923419D01*
X106148571Y-110923419D02*
X106118094Y-110999609D01*
X106118094Y-110999609D02*
X106057142Y-111037704D01*
X106057142Y-111037704D02*
X105996190Y-111037704D01*
X105386666Y-111037704D02*
X105020952Y-111037704D01*
X105203809Y-110237704D02*
X105203809Y-111037704D01*
X104563809Y-110275800D02*
X104624761Y-110237704D01*
X104624761Y-110237704D02*
X104746666Y-110237704D01*
X104746666Y-110237704D02*
X104807619Y-110275800D01*
X104807619Y-110275800D02*
X104838095Y-110351990D01*
X104838095Y-110351990D02*
X104838095Y-110656752D01*
X104838095Y-110656752D02*
X104807619Y-110732942D01*
X104807619Y-110732942D02*
X104746666Y-110771038D01*
X104746666Y-110771038D02*
X104624761Y-110771038D01*
X104624761Y-110771038D02*
X104563809Y-110732942D01*
X104563809Y-110732942D02*
X104533333Y-110656752D01*
X104533333Y-110656752D02*
X104533333Y-110580561D01*
X104533333Y-110580561D02*
X104838095Y-110504371D01*
X104259048Y-110237704D02*
X104259048Y-110771038D01*
X104259048Y-110694847D02*
X104228571Y-110732942D01*
X104228571Y-110732942D02*
X104167619Y-110771038D01*
X104167619Y-110771038D02*
X104076190Y-110771038D01*
X104076190Y-110771038D02*
X104015238Y-110732942D01*
X104015238Y-110732942D02*
X103984762Y-110656752D01*
X103984762Y-110656752D02*
X103984762Y-110237704D01*
X103984762Y-110656752D02*
X103954286Y-110732942D01*
X103954286Y-110732942D02*
X103893333Y-110771038D01*
X103893333Y-110771038D02*
X103801905Y-110771038D01*
X103801905Y-110771038D02*
X103740952Y-110732942D01*
X103740952Y-110732942D02*
X103710476Y-110656752D01*
X103710476Y-110656752D02*
X103710476Y-110237704D01*
X103405715Y-110771038D02*
X103405715Y-109971038D01*
X103405715Y-110732942D02*
X103344762Y-110771038D01*
X103344762Y-110771038D02*
X103222857Y-110771038D01*
X103222857Y-110771038D02*
X103161905Y-110732942D01*
X103161905Y-110732942D02*
X103131429Y-110694847D01*
X103131429Y-110694847D02*
X103100953Y-110618657D01*
X103100953Y-110618657D02*
X103100953Y-110390085D01*
X103100953Y-110390085D02*
X103131429Y-110313895D01*
X103131429Y-110313895D02*
X103161905Y-110275800D01*
X103161905Y-110275800D02*
X103222857Y-110237704D01*
X103222857Y-110237704D02*
X103344762Y-110237704D01*
X103344762Y-110237704D02*
X103405715Y-110275800D01*
X102369524Y-110275800D02*
X102278095Y-110237704D01*
X102278095Y-110237704D02*
X102125714Y-110237704D01*
X102125714Y-110237704D02*
X102064762Y-110275800D01*
X102064762Y-110275800D02*
X102034286Y-110313895D01*
X102034286Y-110313895D02*
X102003809Y-110390085D01*
X102003809Y-110390085D02*
X102003809Y-110466276D01*
X102003809Y-110466276D02*
X102034286Y-110542466D01*
X102034286Y-110542466D02*
X102064762Y-110580561D01*
X102064762Y-110580561D02*
X102125714Y-110618657D01*
X102125714Y-110618657D02*
X102247619Y-110656752D01*
X102247619Y-110656752D02*
X102308571Y-110694847D01*
X102308571Y-110694847D02*
X102339048Y-110732942D01*
X102339048Y-110732942D02*
X102369524Y-110809133D01*
X102369524Y-110809133D02*
X102369524Y-110885323D01*
X102369524Y-110885323D02*
X102339048Y-110961514D01*
X102339048Y-110961514D02*
X102308571Y-110999609D01*
X102308571Y-110999609D02*
X102247619Y-111037704D01*
X102247619Y-111037704D02*
X102095238Y-111037704D01*
X102095238Y-111037704D02*
X102003809Y-110999609D01*
X101729524Y-110237704D02*
X101729524Y-111037704D01*
X101729524Y-111037704D02*
X101577143Y-111037704D01*
X101577143Y-111037704D02*
X101485714Y-110999609D01*
X101485714Y-110999609D02*
X101424762Y-110923419D01*
X101424762Y-110923419D02*
X101394285Y-110847228D01*
X101394285Y-110847228D02*
X101363809Y-110694847D01*
X101363809Y-110694847D02*
X101363809Y-110580561D01*
X101363809Y-110580561D02*
X101394285Y-110428180D01*
X101394285Y-110428180D02*
X101424762Y-110351990D01*
X101424762Y-110351990D02*
X101485714Y-110275800D01*
X101485714Y-110275800D02*
X101577143Y-110237704D01*
X101577143Y-110237704D02*
X101729524Y-110237704D01*
X101120000Y-110466276D02*
X100815238Y-110466276D01*
X101180952Y-110237704D02*
X100967619Y-111037704D01*
X100967619Y-111037704D02*
X100754285Y-110237704D01*
X100144762Y-111037704D02*
X99931429Y-110237704D01*
X99931429Y-110237704D02*
X99718095Y-111037704D01*
X99291429Y-110656752D02*
X99200001Y-110618657D01*
X99200001Y-110618657D02*
X99169524Y-110580561D01*
X99169524Y-110580561D02*
X99139048Y-110504371D01*
X99139048Y-110504371D02*
X99139048Y-110390085D01*
X99139048Y-110390085D02*
X99169524Y-110313895D01*
X99169524Y-110313895D02*
X99200001Y-110275800D01*
X99200001Y-110275800D02*
X99260953Y-110237704D01*
X99260953Y-110237704D02*
X99504763Y-110237704D01*
X99504763Y-110237704D02*
X99504763Y-111037704D01*
X99504763Y-111037704D02*
X99291429Y-111037704D01*
X99291429Y-111037704D02*
X99230477Y-110999609D01*
X99230477Y-110999609D02*
X99200001Y-110961514D01*
X99200001Y-110961514D02*
X99169524Y-110885323D01*
X99169524Y-110885323D02*
X99169524Y-110809133D01*
X99169524Y-110809133D02*
X99200001Y-110732942D01*
X99200001Y-110732942D02*
X99230477Y-110694847D01*
X99230477Y-110694847D02*
X99291429Y-110656752D01*
X99291429Y-110656752D02*
X99504763Y-110656752D01*
X98895239Y-110466276D02*
X98590477Y-110466276D01*
X98956191Y-110237704D02*
X98742858Y-111037704D01*
X98742858Y-111037704D02*
X98529524Y-110237704D01*
X98407620Y-111037704D02*
X98041906Y-111037704D01*
X98224763Y-110237704D02*
X98224763Y-111037704D01*
X97920001Y-111037704D02*
X97554287Y-111037704D01*
X97737144Y-110237704D02*
X97737144Y-111037704D01*
D13*
X124994277Y-99857509D02*
X125234277Y-100219414D01*
X125405706Y-99857509D02*
X125405706Y-100617509D01*
X125405706Y-100617509D02*
X125131420Y-100617509D01*
X125131420Y-100617509D02*
X125062849Y-100581319D01*
X125062849Y-100581319D02*
X125028563Y-100545128D01*
X125028563Y-100545128D02*
X124994277Y-100472747D01*
X124994277Y-100472747D02*
X124994277Y-100364176D01*
X124994277Y-100364176D02*
X125028563Y-100291795D01*
X125028563Y-100291795D02*
X125062849Y-100255604D01*
X125062849Y-100255604D02*
X125131420Y-100219414D01*
X125131420Y-100219414D02*
X125405706Y-100219414D01*
X124171420Y-100653700D02*
X124788563Y-99676557D01*
X123794277Y-100617509D02*
X123657134Y-100617509D01*
X123657134Y-100617509D02*
X123588563Y-100581319D01*
X123588563Y-100581319D02*
X123519991Y-100508938D01*
X123519991Y-100508938D02*
X123485706Y-100364176D01*
X123485706Y-100364176D02*
X123485706Y-100110842D01*
X123485706Y-100110842D02*
X123519991Y-99966080D01*
X123519991Y-99966080D02*
X123588563Y-99893700D01*
X123588563Y-99893700D02*
X123657134Y-99857509D01*
X123657134Y-99857509D02*
X123794277Y-99857509D01*
X123794277Y-99857509D02*
X123862849Y-99893700D01*
X123862849Y-99893700D02*
X123931420Y-99966080D01*
X123931420Y-99966080D02*
X123965706Y-100110842D01*
X123965706Y-100110842D02*
X123965706Y-100364176D01*
X123965706Y-100364176D02*
X123931420Y-100508938D01*
X123931420Y-100508938D02*
X123862849Y-100581319D01*
X123862849Y-100581319D02*
X123794277Y-100617509D01*
X122217134Y-99857509D02*
X122457134Y-100219414D01*
X122628563Y-99857509D02*
X122628563Y-100617509D01*
X122628563Y-100617509D02*
X122354277Y-100617509D01*
X122354277Y-100617509D02*
X122285706Y-100581319D01*
X122285706Y-100581319D02*
X122251420Y-100545128D01*
X122251420Y-100545128D02*
X122217134Y-100472747D01*
X122217134Y-100472747D02*
X122217134Y-100364176D01*
X122217134Y-100364176D02*
X122251420Y-100291795D01*
X122251420Y-100291795D02*
X122285706Y-100255604D01*
X122285706Y-100255604D02*
X122354277Y-100219414D01*
X122354277Y-100219414D02*
X122628563Y-100219414D01*
X121394277Y-100653700D02*
X122011420Y-99676557D01*
X121154277Y-99857509D02*
X121154277Y-100617509D01*
X119851420Y-99857509D02*
X120091420Y-100219414D01*
X120262849Y-99857509D02*
X120262849Y-100617509D01*
X120262849Y-100617509D02*
X119988563Y-100617509D01*
X119988563Y-100617509D02*
X119919992Y-100581319D01*
X119919992Y-100581319D02*
X119885706Y-100545128D01*
X119885706Y-100545128D02*
X119851420Y-100472747D01*
X119851420Y-100472747D02*
X119851420Y-100364176D01*
X119851420Y-100364176D02*
X119885706Y-100291795D01*
X119885706Y-100291795D02*
X119919992Y-100255604D01*
X119919992Y-100255604D02*
X119988563Y-100219414D01*
X119988563Y-100219414D02*
X120262849Y-100219414D01*
X119028563Y-100653700D02*
X119645706Y-99676557D01*
X118377134Y-99929890D02*
X118411420Y-99893700D01*
X118411420Y-99893700D02*
X118514277Y-99857509D01*
X118514277Y-99857509D02*
X118582849Y-99857509D01*
X118582849Y-99857509D02*
X118685706Y-99893700D01*
X118685706Y-99893700D02*
X118754277Y-99966080D01*
X118754277Y-99966080D02*
X118788563Y-100038461D01*
X118788563Y-100038461D02*
X118822849Y-100183223D01*
X118822849Y-100183223D02*
X118822849Y-100291795D01*
X118822849Y-100291795D02*
X118788563Y-100436557D01*
X118788563Y-100436557D02*
X118754277Y-100508938D01*
X118754277Y-100508938D02*
X118685706Y-100581319D01*
X118685706Y-100581319D02*
X118582849Y-100617509D01*
X118582849Y-100617509D02*
X118514277Y-100617509D01*
X118514277Y-100617509D02*
X118411420Y-100581319D01*
X118411420Y-100581319D02*
X118377134Y-100545128D01*
X117108563Y-99857509D02*
X117348563Y-100219414D01*
X117519992Y-99857509D02*
X117519992Y-100617509D01*
X117519992Y-100617509D02*
X117245706Y-100617509D01*
X117245706Y-100617509D02*
X117177135Y-100581319D01*
X117177135Y-100581319D02*
X117142849Y-100545128D01*
X117142849Y-100545128D02*
X117108563Y-100472747D01*
X117108563Y-100472747D02*
X117108563Y-100364176D01*
X117108563Y-100364176D02*
X117142849Y-100291795D01*
X117142849Y-100291795D02*
X117177135Y-100255604D01*
X117177135Y-100255604D02*
X117245706Y-100219414D01*
X117245706Y-100219414D02*
X117519992Y-100219414D01*
X116285706Y-100653700D02*
X116902849Y-99676557D01*
X116079992Y-99893700D02*
X115977135Y-99857509D01*
X115977135Y-99857509D02*
X115805706Y-99857509D01*
X115805706Y-99857509D02*
X115737135Y-99893700D01*
X115737135Y-99893700D02*
X115702849Y-99929890D01*
X115702849Y-99929890D02*
X115668563Y-100002271D01*
X115668563Y-100002271D02*
X115668563Y-100074652D01*
X115668563Y-100074652D02*
X115702849Y-100147033D01*
X115702849Y-100147033D02*
X115737135Y-100183223D01*
X115737135Y-100183223D02*
X115805706Y-100219414D01*
X115805706Y-100219414D02*
X115942849Y-100255604D01*
X115942849Y-100255604D02*
X116011420Y-100291795D01*
X116011420Y-100291795D02*
X116045706Y-100327985D01*
X116045706Y-100327985D02*
X116079992Y-100400366D01*
X116079992Y-100400366D02*
X116079992Y-100472747D01*
X116079992Y-100472747D02*
X116045706Y-100545128D01*
X116045706Y-100545128D02*
X116011420Y-100581319D01*
X116011420Y-100581319D02*
X115942849Y-100617509D01*
X115942849Y-100617509D02*
X115771420Y-100617509D01*
X115771420Y-100617509D02*
X115668563Y-100581319D01*
X114468564Y-99857509D02*
X114811421Y-99857509D01*
X114811421Y-99857509D02*
X114811421Y-100617509D01*
X114228564Y-100255604D02*
X113988564Y-100255604D01*
X113885707Y-99857509D02*
X114228564Y-99857509D01*
X114228564Y-99857509D02*
X114228564Y-100617509D01*
X114228564Y-100617509D02*
X113885707Y-100617509D01*
X113577135Y-99857509D02*
X113577135Y-100617509D01*
X113577135Y-100617509D02*
X113405706Y-100617509D01*
X113405706Y-100617509D02*
X113302849Y-100581319D01*
X113302849Y-100581319D02*
X113234278Y-100508938D01*
X113234278Y-100508938D02*
X113199992Y-100436557D01*
X113199992Y-100436557D02*
X113165706Y-100291795D01*
X113165706Y-100291795D02*
X113165706Y-100183223D01*
X113165706Y-100183223D02*
X113199992Y-100038461D01*
X113199992Y-100038461D02*
X113234278Y-99966080D01*
X113234278Y-99966080D02*
X113302849Y-99893700D01*
X113302849Y-99893700D02*
X113405706Y-99857509D01*
X113405706Y-99857509D02*
X113577135Y-99857509D01*
X112411421Y-100617509D02*
X112171421Y-99857509D01*
X112171421Y-99857509D02*
X111931421Y-100617509D01*
X111725707Y-99893700D02*
X111622850Y-99857509D01*
X111622850Y-99857509D02*
X111451421Y-99857509D01*
X111451421Y-99857509D02*
X111382850Y-99893700D01*
X111382850Y-99893700D02*
X111348564Y-99929890D01*
X111348564Y-99929890D02*
X111314278Y-100002271D01*
X111314278Y-100002271D02*
X111314278Y-100074652D01*
X111314278Y-100074652D02*
X111348564Y-100147033D01*
X111348564Y-100147033D02*
X111382850Y-100183223D01*
X111382850Y-100183223D02*
X111451421Y-100219414D01*
X111451421Y-100219414D02*
X111588564Y-100255604D01*
X111588564Y-100255604D02*
X111657135Y-100291795D01*
X111657135Y-100291795D02*
X111691421Y-100327985D01*
X111691421Y-100327985D02*
X111725707Y-100400366D01*
X111725707Y-100400366D02*
X111725707Y-100472747D01*
X111725707Y-100472747D02*
X111691421Y-100545128D01*
X111691421Y-100545128D02*
X111657135Y-100581319D01*
X111657135Y-100581319D02*
X111588564Y-100617509D01*
X111588564Y-100617509D02*
X111417135Y-100617509D01*
X111417135Y-100617509D02*
X111314278Y-100581319D01*
X111039993Y-99893700D02*
X110937136Y-99857509D01*
X110937136Y-99857509D02*
X110765707Y-99857509D01*
X110765707Y-99857509D02*
X110697136Y-99893700D01*
X110697136Y-99893700D02*
X110662850Y-99929890D01*
X110662850Y-99929890D02*
X110628564Y-100002271D01*
X110628564Y-100002271D02*
X110628564Y-100074652D01*
X110628564Y-100074652D02*
X110662850Y-100147033D01*
X110662850Y-100147033D02*
X110697136Y-100183223D01*
X110697136Y-100183223D02*
X110765707Y-100219414D01*
X110765707Y-100219414D02*
X110902850Y-100255604D01*
X110902850Y-100255604D02*
X110971421Y-100291795D01*
X110971421Y-100291795D02*
X111005707Y-100327985D01*
X111005707Y-100327985D02*
X111039993Y-100400366D01*
X111039993Y-100400366D02*
X111039993Y-100472747D01*
X111039993Y-100472747D02*
X111005707Y-100545128D01*
X111005707Y-100545128D02*
X110971421Y-100581319D01*
X110971421Y-100581319D02*
X110902850Y-100617509D01*
X110902850Y-100617509D02*
X110731421Y-100617509D01*
X110731421Y-100617509D02*
X110628564Y-100581319D01*
X109874279Y-100617509D02*
X109634279Y-99857509D01*
X109634279Y-99857509D02*
X109394279Y-100617509D01*
X109154279Y-99857509D02*
X109154279Y-100617509D01*
X109154279Y-100617509D02*
X108982850Y-100617509D01*
X108982850Y-100617509D02*
X108879993Y-100581319D01*
X108879993Y-100581319D02*
X108811422Y-100508938D01*
X108811422Y-100508938D02*
X108777136Y-100436557D01*
X108777136Y-100436557D02*
X108742850Y-100291795D01*
X108742850Y-100291795D02*
X108742850Y-100183223D01*
X108742850Y-100183223D02*
X108777136Y-100038461D01*
X108777136Y-100038461D02*
X108811422Y-99966080D01*
X108811422Y-99966080D02*
X108879993Y-99893700D01*
X108879993Y-99893700D02*
X108982850Y-99857509D01*
X108982850Y-99857509D02*
X109154279Y-99857509D01*
X108434279Y-99857509D02*
X108434279Y-100617509D01*
X108434279Y-100617509D02*
X108262850Y-100617509D01*
X108262850Y-100617509D02*
X108159993Y-100581319D01*
X108159993Y-100581319D02*
X108091422Y-100508938D01*
X108091422Y-100508938D02*
X108057136Y-100436557D01*
X108057136Y-100436557D02*
X108022850Y-100291795D01*
X108022850Y-100291795D02*
X108022850Y-100183223D01*
X108022850Y-100183223D02*
X108057136Y-100038461D01*
X108057136Y-100038461D02*
X108091422Y-99966080D01*
X108091422Y-99966080D02*
X108159993Y-99893700D01*
X108159993Y-99893700D02*
X108262850Y-99857509D01*
X108262850Y-99857509D02*
X108434279Y-99857509D01*
X106754279Y-99857509D02*
X106994279Y-100219414D01*
X107165708Y-99857509D02*
X107165708Y-100617509D01*
X107165708Y-100617509D02*
X106891422Y-100617509D01*
X106891422Y-100617509D02*
X106822851Y-100581319D01*
X106822851Y-100581319D02*
X106788565Y-100545128D01*
X106788565Y-100545128D02*
X106754279Y-100472747D01*
X106754279Y-100472747D02*
X106754279Y-100364176D01*
X106754279Y-100364176D02*
X106788565Y-100291795D01*
X106788565Y-100291795D02*
X106822851Y-100255604D01*
X106822851Y-100255604D02*
X106891422Y-100219414D01*
X106891422Y-100219414D02*
X107165708Y-100219414D01*
X106479994Y-99893700D02*
X106377137Y-99857509D01*
X106377137Y-99857509D02*
X106205708Y-99857509D01*
X106205708Y-99857509D02*
X106137137Y-99893700D01*
X106137137Y-99893700D02*
X106102851Y-99929890D01*
X106102851Y-99929890D02*
X106068565Y-100002271D01*
X106068565Y-100002271D02*
X106068565Y-100074652D01*
X106068565Y-100074652D02*
X106102851Y-100147033D01*
X106102851Y-100147033D02*
X106137137Y-100183223D01*
X106137137Y-100183223D02*
X106205708Y-100219414D01*
X106205708Y-100219414D02*
X106342851Y-100255604D01*
X106342851Y-100255604D02*
X106411422Y-100291795D01*
X106411422Y-100291795D02*
X106445708Y-100327985D01*
X106445708Y-100327985D02*
X106479994Y-100400366D01*
X106479994Y-100400366D02*
X106479994Y-100472747D01*
X106479994Y-100472747D02*
X106445708Y-100545128D01*
X106445708Y-100545128D02*
X106411422Y-100581319D01*
X106411422Y-100581319D02*
X106342851Y-100617509D01*
X106342851Y-100617509D02*
X106171422Y-100617509D01*
X106171422Y-100617509D02*
X106068565Y-100581319D01*
X104251423Y-99857509D02*
X104491423Y-100219414D01*
X104662852Y-99857509D02*
X104662852Y-100617509D01*
X104662852Y-100617509D02*
X104388566Y-100617509D01*
X104388566Y-100617509D02*
X104319995Y-100581319D01*
X104319995Y-100581319D02*
X104285709Y-100545128D01*
X104285709Y-100545128D02*
X104251423Y-100472747D01*
X104251423Y-100472747D02*
X104251423Y-100364176D01*
X104251423Y-100364176D02*
X104285709Y-100291795D01*
X104285709Y-100291795D02*
X104319995Y-100255604D01*
X104319995Y-100255604D02*
X104388566Y-100219414D01*
X104388566Y-100219414D02*
X104662852Y-100219414D01*
X103977138Y-99893700D02*
X103874281Y-99857509D01*
X103874281Y-99857509D02*
X103702852Y-99857509D01*
X103702852Y-99857509D02*
X103634281Y-99893700D01*
X103634281Y-99893700D02*
X103599995Y-99929890D01*
X103599995Y-99929890D02*
X103565709Y-100002271D01*
X103565709Y-100002271D02*
X103565709Y-100074652D01*
X103565709Y-100074652D02*
X103599995Y-100147033D01*
X103599995Y-100147033D02*
X103634281Y-100183223D01*
X103634281Y-100183223D02*
X103702852Y-100219414D01*
X103702852Y-100219414D02*
X103839995Y-100255604D01*
X103839995Y-100255604D02*
X103908566Y-100291795D01*
X103908566Y-100291795D02*
X103942852Y-100327985D01*
X103942852Y-100327985D02*
X103977138Y-100400366D01*
X103977138Y-100400366D02*
X103977138Y-100472747D01*
X103977138Y-100472747D02*
X103942852Y-100545128D01*
X103942852Y-100545128D02*
X103908566Y-100581319D01*
X103908566Y-100581319D02*
X103839995Y-100617509D01*
X103839995Y-100617509D02*
X103668566Y-100617509D01*
X103668566Y-100617509D02*
X103565709Y-100581319D01*
X103359995Y-100617509D02*
X102948567Y-100617509D01*
X103154281Y-99857509D02*
X103154281Y-100617509D01*
X101199996Y-99929890D02*
X101234282Y-99893700D01*
X101234282Y-99893700D02*
X101337139Y-99857509D01*
X101337139Y-99857509D02*
X101405711Y-99857509D01*
X101405711Y-99857509D02*
X101508568Y-99893700D01*
X101508568Y-99893700D02*
X101577139Y-99966080D01*
X101577139Y-99966080D02*
X101611425Y-100038461D01*
X101611425Y-100038461D02*
X101645711Y-100183223D01*
X101645711Y-100183223D02*
X101645711Y-100291795D01*
X101645711Y-100291795D02*
X101611425Y-100436557D01*
X101611425Y-100436557D02*
X101577139Y-100508938D01*
X101577139Y-100508938D02*
X101508568Y-100581319D01*
X101508568Y-100581319D02*
X101405711Y-100617509D01*
X101405711Y-100617509D02*
X101337139Y-100617509D01*
X101337139Y-100617509D02*
X101234282Y-100581319D01*
X101234282Y-100581319D02*
X101199996Y-100545128D01*
X100925711Y-99893700D02*
X100822854Y-99857509D01*
X100822854Y-99857509D02*
X100651425Y-99857509D01*
X100651425Y-99857509D02*
X100582854Y-99893700D01*
X100582854Y-99893700D02*
X100548568Y-99929890D01*
X100548568Y-99929890D02*
X100514282Y-100002271D01*
X100514282Y-100002271D02*
X100514282Y-100074652D01*
X100514282Y-100074652D02*
X100548568Y-100147033D01*
X100548568Y-100147033D02*
X100582854Y-100183223D01*
X100582854Y-100183223D02*
X100651425Y-100219414D01*
X100651425Y-100219414D02*
X100788568Y-100255604D01*
X100788568Y-100255604D02*
X100857139Y-100291795D01*
X100857139Y-100291795D02*
X100891425Y-100327985D01*
X100891425Y-100327985D02*
X100925711Y-100400366D01*
X100925711Y-100400366D02*
X100925711Y-100472747D01*
X100925711Y-100472747D02*
X100891425Y-100545128D01*
X100891425Y-100545128D02*
X100857139Y-100581319D01*
X100857139Y-100581319D02*
X100788568Y-100617509D01*
X100788568Y-100617509D02*
X100617139Y-100617509D01*
X100617139Y-100617509D02*
X100514282Y-100581319D01*
X99691426Y-99893700D02*
X99588569Y-99857509D01*
X99588569Y-99857509D02*
X99417140Y-99857509D01*
X99417140Y-99857509D02*
X99348569Y-99893700D01*
X99348569Y-99893700D02*
X99314283Y-99929890D01*
X99314283Y-99929890D02*
X99279997Y-100002271D01*
X99279997Y-100002271D02*
X99279997Y-100074652D01*
X99279997Y-100074652D02*
X99314283Y-100147033D01*
X99314283Y-100147033D02*
X99348569Y-100183223D01*
X99348569Y-100183223D02*
X99417140Y-100219414D01*
X99417140Y-100219414D02*
X99554283Y-100255604D01*
X99554283Y-100255604D02*
X99622854Y-100291795D01*
X99622854Y-100291795D02*
X99657140Y-100327985D01*
X99657140Y-100327985D02*
X99691426Y-100400366D01*
X99691426Y-100400366D02*
X99691426Y-100472747D01*
X99691426Y-100472747D02*
X99657140Y-100545128D01*
X99657140Y-100545128D02*
X99622854Y-100581319D01*
X99622854Y-100581319D02*
X99554283Y-100617509D01*
X99554283Y-100617509D02*
X99382854Y-100617509D01*
X99382854Y-100617509D02*
X99279997Y-100581319D01*
X98971426Y-99857509D02*
X98971426Y-100617509D01*
X98971426Y-100617509D02*
X98799997Y-100617509D01*
X98799997Y-100617509D02*
X98697140Y-100581319D01*
X98697140Y-100581319D02*
X98628569Y-100508938D01*
X98628569Y-100508938D02*
X98594283Y-100436557D01*
X98594283Y-100436557D02*
X98559997Y-100291795D01*
X98559997Y-100291795D02*
X98559997Y-100183223D01*
X98559997Y-100183223D02*
X98594283Y-100038461D01*
X98594283Y-100038461D02*
X98628569Y-99966080D01*
X98628569Y-99966080D02*
X98697140Y-99893700D01*
X98697140Y-99893700D02*
X98799997Y-99857509D01*
X98799997Y-99857509D02*
X98971426Y-99857509D01*
X98285712Y-100074652D02*
X97942855Y-100074652D01*
X98354283Y-99857509D02*
X98114283Y-100617509D01*
X98114283Y-100617509D02*
X97874283Y-99857509D01*
X97119998Y-99893700D02*
X97017141Y-99857509D01*
X97017141Y-99857509D02*
X96845712Y-99857509D01*
X96845712Y-99857509D02*
X96777141Y-99893700D01*
X96777141Y-99893700D02*
X96742855Y-99929890D01*
X96742855Y-99929890D02*
X96708569Y-100002271D01*
X96708569Y-100002271D02*
X96708569Y-100074652D01*
X96708569Y-100074652D02*
X96742855Y-100147033D01*
X96742855Y-100147033D02*
X96777141Y-100183223D01*
X96777141Y-100183223D02*
X96845712Y-100219414D01*
X96845712Y-100219414D02*
X96982855Y-100255604D01*
X96982855Y-100255604D02*
X97051426Y-100291795D01*
X97051426Y-100291795D02*
X97085712Y-100327985D01*
X97085712Y-100327985D02*
X97119998Y-100400366D01*
X97119998Y-100400366D02*
X97119998Y-100472747D01*
X97119998Y-100472747D02*
X97085712Y-100545128D01*
X97085712Y-100545128D02*
X97051426Y-100581319D01*
X97051426Y-100581319D02*
X96982855Y-100617509D01*
X96982855Y-100617509D02*
X96811426Y-100617509D01*
X96811426Y-100617509D02*
X96708569Y-100581319D01*
X95988569Y-99929890D02*
X96022855Y-99893700D01*
X96022855Y-99893700D02*
X96125712Y-99857509D01*
X96125712Y-99857509D02*
X96194284Y-99857509D01*
X96194284Y-99857509D02*
X96297141Y-99893700D01*
X96297141Y-99893700D02*
X96365712Y-99966080D01*
X96365712Y-99966080D02*
X96399998Y-100038461D01*
X96399998Y-100038461D02*
X96434284Y-100183223D01*
X96434284Y-100183223D02*
X96434284Y-100291795D01*
X96434284Y-100291795D02*
X96399998Y-100436557D01*
X96399998Y-100436557D02*
X96365712Y-100508938D01*
X96365712Y-100508938D02*
X96297141Y-100581319D01*
X96297141Y-100581319D02*
X96194284Y-100617509D01*
X96194284Y-100617509D02*
X96125712Y-100617509D01*
X96125712Y-100617509D02*
X96022855Y-100581319D01*
X96022855Y-100581319D02*
X95988569Y-100545128D01*
X95679998Y-99857509D02*
X95679998Y-100617509D01*
X95268569Y-99857509D02*
X95577141Y-100291795D01*
X95268569Y-100617509D02*
X95679998Y-100183223D01*
X93862856Y-99857509D02*
X93862856Y-100617509D01*
X93862856Y-100617509D02*
X93691427Y-100617509D01*
X93691427Y-100617509D02*
X93588570Y-100581319D01*
X93588570Y-100581319D02*
X93519999Y-100508938D01*
X93519999Y-100508938D02*
X93485713Y-100436557D01*
X93485713Y-100436557D02*
X93451427Y-100291795D01*
X93451427Y-100291795D02*
X93451427Y-100183223D01*
X93451427Y-100183223D02*
X93485713Y-100038461D01*
X93485713Y-100038461D02*
X93519999Y-99966080D01*
X93519999Y-99966080D02*
X93588570Y-99893700D01*
X93588570Y-99893700D02*
X93691427Y-99857509D01*
X93691427Y-99857509D02*
X93862856Y-99857509D01*
X92799999Y-100617509D02*
X93142856Y-100617509D01*
X93142856Y-100617509D02*
X93177142Y-100255604D01*
X93177142Y-100255604D02*
X93142856Y-100291795D01*
X93142856Y-100291795D02*
X93074285Y-100327985D01*
X93074285Y-100327985D02*
X92902856Y-100327985D01*
X92902856Y-100327985D02*
X92834285Y-100291795D01*
X92834285Y-100291795D02*
X92799999Y-100255604D01*
X92799999Y-100255604D02*
X92765713Y-100183223D01*
X92765713Y-100183223D02*
X92765713Y-100002271D01*
X92765713Y-100002271D02*
X92799999Y-99929890D01*
X92799999Y-99929890D02*
X92834285Y-99893700D01*
X92834285Y-99893700D02*
X92902856Y-99857509D01*
X92902856Y-99857509D02*
X93074285Y-99857509D01*
X93074285Y-99857509D02*
X93142856Y-99893700D01*
X93142856Y-99893700D02*
X93177142Y-99929890D01*
X91360000Y-99857509D02*
X91360000Y-100617509D01*
X91360000Y-100617509D02*
X91188571Y-100617509D01*
X91188571Y-100617509D02*
X91085714Y-100581319D01*
X91085714Y-100581319D02*
X91017143Y-100508938D01*
X91017143Y-100508938D02*
X90982857Y-100436557D01*
X90982857Y-100436557D02*
X90948571Y-100291795D01*
X90948571Y-100291795D02*
X90948571Y-100183223D01*
X90948571Y-100183223D02*
X90982857Y-100038461D01*
X90982857Y-100038461D02*
X91017143Y-99966080D01*
X91017143Y-99966080D02*
X91085714Y-99893700D01*
X91085714Y-99893700D02*
X91188571Y-99857509D01*
X91188571Y-99857509D02*
X91360000Y-99857509D01*
X90331429Y-100364176D02*
X90331429Y-99857509D01*
X90502857Y-100653700D02*
X90674286Y-100110842D01*
X90674286Y-100110842D02*
X90228571Y-100110842D01*
X88857144Y-99857509D02*
X88857144Y-100617509D01*
X88857144Y-100617509D02*
X88685715Y-100617509D01*
X88685715Y-100617509D02*
X88582858Y-100581319D01*
X88582858Y-100581319D02*
X88514287Y-100508938D01*
X88514287Y-100508938D02*
X88480001Y-100436557D01*
X88480001Y-100436557D02*
X88445715Y-100291795D01*
X88445715Y-100291795D02*
X88445715Y-100183223D01*
X88445715Y-100183223D02*
X88480001Y-100038461D01*
X88480001Y-100038461D02*
X88514287Y-99966080D01*
X88514287Y-99966080D02*
X88582858Y-99893700D01*
X88582858Y-99893700D02*
X88685715Y-99857509D01*
X88685715Y-99857509D02*
X88857144Y-99857509D01*
X88205715Y-100617509D02*
X87760001Y-100617509D01*
X87760001Y-100617509D02*
X88000001Y-100327985D01*
X88000001Y-100327985D02*
X87897144Y-100327985D01*
X87897144Y-100327985D02*
X87828573Y-100291795D01*
X87828573Y-100291795D02*
X87794287Y-100255604D01*
X87794287Y-100255604D02*
X87760001Y-100183223D01*
X87760001Y-100183223D02*
X87760001Y-100002271D01*
X87760001Y-100002271D02*
X87794287Y-99929890D01*
X87794287Y-99929890D02*
X87828573Y-99893700D01*
X87828573Y-99893700D02*
X87897144Y-99857509D01*
X87897144Y-99857509D02*
X88102858Y-99857509D01*
X88102858Y-99857509D02*
X88171430Y-99893700D01*
X88171430Y-99893700D02*
X88205715Y-99929890D01*
X86354288Y-99857509D02*
X86354288Y-100617509D01*
X86354288Y-100617509D02*
X86182859Y-100617509D01*
X86182859Y-100617509D02*
X86080002Y-100581319D01*
X86080002Y-100581319D02*
X86011431Y-100508938D01*
X86011431Y-100508938D02*
X85977145Y-100436557D01*
X85977145Y-100436557D02*
X85942859Y-100291795D01*
X85942859Y-100291795D02*
X85942859Y-100183223D01*
X85942859Y-100183223D02*
X85977145Y-100038461D01*
X85977145Y-100038461D02*
X86011431Y-99966080D01*
X86011431Y-99966080D02*
X86080002Y-99893700D01*
X86080002Y-99893700D02*
X86182859Y-99857509D01*
X86182859Y-99857509D02*
X86354288Y-99857509D01*
X85668574Y-100545128D02*
X85634288Y-100581319D01*
X85634288Y-100581319D02*
X85565717Y-100617509D01*
X85565717Y-100617509D02*
X85394288Y-100617509D01*
X85394288Y-100617509D02*
X85325717Y-100581319D01*
X85325717Y-100581319D02*
X85291431Y-100545128D01*
X85291431Y-100545128D02*
X85257145Y-100472747D01*
X85257145Y-100472747D02*
X85257145Y-100400366D01*
X85257145Y-100400366D02*
X85291431Y-100291795D01*
X85291431Y-100291795D02*
X85702859Y-99857509D01*
X85702859Y-99857509D02*
X85257145Y-99857509D01*
X83851432Y-99857509D02*
X83851432Y-100617509D01*
X83851432Y-100617509D02*
X83680003Y-100617509D01*
X83680003Y-100617509D02*
X83577146Y-100581319D01*
X83577146Y-100581319D02*
X83508575Y-100508938D01*
X83508575Y-100508938D02*
X83474289Y-100436557D01*
X83474289Y-100436557D02*
X83440003Y-100291795D01*
X83440003Y-100291795D02*
X83440003Y-100183223D01*
X83440003Y-100183223D02*
X83474289Y-100038461D01*
X83474289Y-100038461D02*
X83508575Y-99966080D01*
X83508575Y-99966080D02*
X83577146Y-99893700D01*
X83577146Y-99893700D02*
X83680003Y-99857509D01*
X83680003Y-99857509D02*
X83851432Y-99857509D01*
X82754289Y-99857509D02*
X83165718Y-99857509D01*
X82960003Y-99857509D02*
X82960003Y-100617509D01*
X82960003Y-100617509D02*
X83028575Y-100508938D01*
X83028575Y-100508938D02*
X83097146Y-100436557D01*
X83097146Y-100436557D02*
X83165718Y-100400366D01*
X81348576Y-99857509D02*
X81348576Y-100617509D01*
X81348576Y-100617509D02*
X81177147Y-100617509D01*
X81177147Y-100617509D02*
X81074290Y-100581319D01*
X81074290Y-100581319D02*
X81005719Y-100508938D01*
X81005719Y-100508938D02*
X80971433Y-100436557D01*
X80971433Y-100436557D02*
X80937147Y-100291795D01*
X80937147Y-100291795D02*
X80937147Y-100183223D01*
X80937147Y-100183223D02*
X80971433Y-100038461D01*
X80971433Y-100038461D02*
X81005719Y-99966080D01*
X81005719Y-99966080D02*
X81074290Y-99893700D01*
X81074290Y-99893700D02*
X81177147Y-99857509D01*
X81177147Y-99857509D02*
X81348576Y-99857509D01*
X80491433Y-100617509D02*
X80422862Y-100617509D01*
X80422862Y-100617509D02*
X80354290Y-100581319D01*
X80354290Y-100581319D02*
X80320005Y-100545128D01*
X80320005Y-100545128D02*
X80285719Y-100472747D01*
X80285719Y-100472747D02*
X80251433Y-100327985D01*
X80251433Y-100327985D02*
X80251433Y-100147033D01*
X80251433Y-100147033D02*
X80285719Y-100002271D01*
X80285719Y-100002271D02*
X80320005Y-99929890D01*
X80320005Y-99929890D02*
X80354290Y-99893700D01*
X80354290Y-99893700D02*
X80422862Y-99857509D01*
X80422862Y-99857509D02*
X80491433Y-99857509D01*
X80491433Y-99857509D02*
X80560005Y-99893700D01*
X80560005Y-99893700D02*
X80594290Y-99929890D01*
X80594290Y-99929890D02*
X80628576Y-100002271D01*
X80628576Y-100002271D02*
X80662862Y-100147033D01*
X80662862Y-100147033D02*
X80662862Y-100327985D01*
X80662862Y-100327985D02*
X80628576Y-100472747D01*
X80628576Y-100472747D02*
X80594290Y-100545128D01*
X80594290Y-100545128D02*
X80560005Y-100581319D01*
X80560005Y-100581319D02*
X80491433Y-100617509D01*
X78845720Y-100255604D02*
X78605720Y-100255604D01*
X78502863Y-99857509D02*
X78845720Y-99857509D01*
X78845720Y-99857509D02*
X78845720Y-100617509D01*
X78845720Y-100617509D02*
X78502863Y-100617509D01*
X76685720Y-99857509D02*
X76925720Y-100219414D01*
X77097149Y-99857509D02*
X77097149Y-100617509D01*
X77097149Y-100617509D02*
X76822863Y-100617509D01*
X76822863Y-100617509D02*
X76754292Y-100581319D01*
X76754292Y-100581319D02*
X76720006Y-100545128D01*
X76720006Y-100545128D02*
X76685720Y-100472747D01*
X76685720Y-100472747D02*
X76685720Y-100364176D01*
X76685720Y-100364176D02*
X76720006Y-100291795D01*
X76720006Y-100291795D02*
X76754292Y-100255604D01*
X76754292Y-100255604D02*
X76822863Y-100219414D01*
X76822863Y-100219414D02*
X77097149Y-100219414D01*
X75862863Y-100653700D02*
X76480006Y-99676557D01*
X75691434Y-100617509D02*
X75520006Y-99857509D01*
X75520006Y-99857509D02*
X75382863Y-100400366D01*
X75382863Y-100400366D02*
X75245720Y-99857509D01*
X75245720Y-99857509D02*
X75074292Y-100617509D01*
D14*
X112554510Y-226229400D02*
X113697368Y-226229400D01*
X113125939Y-226800828D02*
X113125939Y-225657971D01*
X116697367Y-226229400D02*
X117840225Y-226229400D01*
D15*
X95009523Y-110833804D02*
X94876190Y-110033804D01*
X94876190Y-110033804D02*
X94742857Y-110833804D01*
X94476190Y-110452852D02*
X94419047Y-110414757D01*
X94419047Y-110414757D02*
X94400000Y-110376661D01*
X94400000Y-110376661D02*
X94380952Y-110300471D01*
X94380952Y-110300471D02*
X94380952Y-110186185D01*
X94380952Y-110186185D02*
X94400000Y-110109995D01*
X94400000Y-110109995D02*
X94419047Y-110071900D01*
X94419047Y-110071900D02*
X94457142Y-110033804D01*
X94457142Y-110033804D02*
X94609523Y-110033804D01*
X94609523Y-110033804D02*
X94609523Y-110833804D01*
X94609523Y-110833804D02*
X94476190Y-110833804D01*
X94476190Y-110833804D02*
X94438095Y-110795709D01*
X94438095Y-110795709D02*
X94419047Y-110757614D01*
X94419047Y-110757614D02*
X94400000Y-110681423D01*
X94400000Y-110681423D02*
X94400000Y-110605233D01*
X94400000Y-110605233D02*
X94419047Y-110529042D01*
X94419047Y-110529042D02*
X94438095Y-110490947D01*
X94438095Y-110490947D02*
X94476190Y-110452852D01*
X94476190Y-110452852D02*
X94609523Y-110452852D01*
X94038095Y-110033804D02*
X94038095Y-110452852D01*
X94038095Y-110452852D02*
X94057142Y-110529042D01*
X94057142Y-110529042D02*
X94095238Y-110567138D01*
X94095238Y-110567138D02*
X94171428Y-110567138D01*
X94171428Y-110567138D02*
X94209523Y-110529042D01*
X94038095Y-110071900D02*
X94076190Y-110033804D01*
X94076190Y-110033804D02*
X94171428Y-110033804D01*
X94171428Y-110033804D02*
X94209523Y-110071900D01*
X94209523Y-110071900D02*
X94228571Y-110148090D01*
X94228571Y-110148090D02*
X94228571Y-110224280D01*
X94228571Y-110224280D02*
X94209523Y-110300471D01*
X94209523Y-110300471D02*
X94171428Y-110338566D01*
X94171428Y-110338566D02*
X94076190Y-110338566D01*
X94076190Y-110338566D02*
X94038095Y-110376661D01*
X93676190Y-110071900D02*
X93714285Y-110033804D01*
X93714285Y-110033804D02*
X93790476Y-110033804D01*
X93790476Y-110033804D02*
X93828571Y-110071900D01*
X93828571Y-110071900D02*
X93847618Y-110109995D01*
X93847618Y-110109995D02*
X93866666Y-110186185D01*
X93866666Y-110186185D02*
X93866666Y-110414757D01*
X93866666Y-110414757D02*
X93847618Y-110490947D01*
X93847618Y-110490947D02*
X93828571Y-110529042D01*
X93828571Y-110529042D02*
X93790476Y-110567138D01*
X93790476Y-110567138D02*
X93714285Y-110567138D01*
X93714285Y-110567138D02*
X93676190Y-110529042D01*
X93504761Y-110033804D02*
X93504761Y-110833804D01*
X93466666Y-110338566D02*
X93352380Y-110033804D01*
X93352380Y-110567138D02*
X93504761Y-110262376D01*
X93009523Y-110567138D02*
X93009523Y-110033804D01*
X93180951Y-110567138D02*
X93180951Y-110148090D01*
X93180951Y-110148090D02*
X93161904Y-110071900D01*
X93161904Y-110071900D02*
X93123809Y-110033804D01*
X93123809Y-110033804D02*
X93066666Y-110033804D01*
X93066666Y-110033804D02*
X93028570Y-110071900D01*
X93028570Y-110071900D02*
X93009523Y-110109995D01*
X92819046Y-110567138D02*
X92819046Y-109767138D01*
X92819046Y-110529042D02*
X92780951Y-110567138D01*
X92780951Y-110567138D02*
X92704761Y-110567138D01*
X92704761Y-110567138D02*
X92666665Y-110529042D01*
X92666665Y-110529042D02*
X92647618Y-110490947D01*
X92647618Y-110490947D02*
X92628570Y-110414757D01*
X92628570Y-110414757D02*
X92628570Y-110186185D01*
X92628570Y-110186185D02*
X92647618Y-110109995D01*
X92647618Y-110109995D02*
X92666665Y-110071900D01*
X92666665Y-110071900D02*
X92704761Y-110033804D01*
X92704761Y-110033804D02*
X92780951Y-110033804D01*
X92780951Y-110033804D02*
X92819046Y-110071900D01*
D14*
X68096190Y-229952266D02*
X69620000Y-229952266D01*
X68858095Y-229190361D02*
X68858095Y-230714171D01*
X73620000Y-229952266D02*
X75143810Y-229952266D01*
D16*
X90112530Y-211267219D02*
X90017292Y-211219600D01*
X90017292Y-211219600D02*
X89969673Y-211171980D01*
X89969673Y-211171980D02*
X89922054Y-211076742D01*
X89922054Y-211076742D02*
X89922054Y-210791028D01*
X89922054Y-210791028D02*
X89969673Y-210695790D01*
X89969673Y-210695790D02*
X90017292Y-210648171D01*
X90017292Y-210648171D02*
X90112530Y-210600552D01*
X90112530Y-210600552D02*
X90255387Y-210600552D01*
X90255387Y-210600552D02*
X90350625Y-210648171D01*
X90350625Y-210648171D02*
X90398244Y-210695790D01*
X90398244Y-210695790D02*
X90445863Y-210791028D01*
X90445863Y-210791028D02*
X90445863Y-211076742D01*
X90445863Y-211076742D02*
X90398244Y-211171980D01*
X90398244Y-211171980D02*
X90350625Y-211219600D01*
X90350625Y-211219600D02*
X90255387Y-211267219D01*
X90255387Y-211267219D02*
X90112530Y-211267219D01*
X90779197Y-210600552D02*
X91303006Y-210600552D01*
X91303006Y-210600552D02*
X90779197Y-211267219D01*
X90779197Y-211267219D02*
X91303006Y-211267219D01*
X91826816Y-211267219D02*
X91731578Y-211219600D01*
X91731578Y-211219600D02*
X91683959Y-211171980D01*
X91683959Y-211171980D02*
X91636340Y-211076742D01*
X91636340Y-211076742D02*
X91636340Y-210791028D01*
X91636340Y-210791028D02*
X91683959Y-210695790D01*
X91683959Y-210695790D02*
X91731578Y-210648171D01*
X91731578Y-210648171D02*
X91826816Y-210600552D01*
X91826816Y-210600552D02*
X91969673Y-210600552D01*
X91969673Y-210600552D02*
X92064911Y-210648171D01*
X92064911Y-210648171D02*
X92112530Y-210695790D01*
X92112530Y-210695790D02*
X92160149Y-210791028D01*
X92160149Y-210791028D02*
X92160149Y-211076742D01*
X92160149Y-211076742D02*
X92112530Y-211171980D01*
X92112530Y-211171980D02*
X92064911Y-211219600D01*
X92064911Y-211219600D02*
X91969673Y-211267219D01*
X91969673Y-211267219D02*
X91826816Y-211267219D01*
X92588721Y-210600552D02*
X92588721Y-211267219D01*
X92588721Y-210695790D02*
X92636340Y-210648171D01*
X92636340Y-210648171D02*
X92731578Y-210600552D01*
X92731578Y-210600552D02*
X92874435Y-210600552D01*
X92874435Y-210600552D02*
X92969673Y-210648171D01*
X92969673Y-210648171D02*
X93017292Y-210743409D01*
X93017292Y-210743409D02*
X93017292Y-211267219D01*
X93874435Y-211219600D02*
X93779197Y-211267219D01*
X93779197Y-211267219D02*
X93588721Y-211267219D01*
X93588721Y-211267219D02*
X93493483Y-211219600D01*
X93493483Y-211219600D02*
X93445864Y-211124361D01*
X93445864Y-211124361D02*
X93445864Y-210743409D01*
X93445864Y-210743409D02*
X93493483Y-210648171D01*
X93493483Y-210648171D02*
X93588721Y-210600552D01*
X93588721Y-210600552D02*
X93779197Y-210600552D01*
X93779197Y-210600552D02*
X93874435Y-210648171D01*
X93874435Y-210648171D02*
X93922054Y-210743409D01*
X93922054Y-210743409D02*
X93922054Y-210838647D01*
X93922054Y-210838647D02*
X93445864Y-210933885D01*
X94874435Y-211267219D02*
X94303007Y-211267219D01*
X94588721Y-211267219D02*
X94588721Y-210267219D01*
X94588721Y-210267219D02*
X94493483Y-210410076D01*
X94493483Y-210410076D02*
X94398245Y-210505314D01*
X94398245Y-210505314D02*
X94303007Y-210552933D01*
X95255388Y-210362457D02*
X95303007Y-210314838D01*
X95303007Y-210314838D02*
X95398245Y-210267219D01*
X95398245Y-210267219D02*
X95636340Y-210267219D01*
X95636340Y-210267219D02*
X95731578Y-210314838D01*
X95731578Y-210314838D02*
X95779197Y-210362457D01*
X95779197Y-210362457D02*
X95826816Y-210457695D01*
X95826816Y-210457695D02*
X95826816Y-210552933D01*
X95826816Y-210552933D02*
X95779197Y-210695790D01*
X95779197Y-210695790D02*
X95207769Y-211267219D01*
X95207769Y-211267219D02*
X95826816Y-211267219D01*
X96398245Y-210695790D02*
X96303007Y-210648171D01*
X96303007Y-210648171D02*
X96255388Y-210600552D01*
X96255388Y-210600552D02*
X96207769Y-210505314D01*
X96207769Y-210505314D02*
X96207769Y-210457695D01*
X96207769Y-210457695D02*
X96255388Y-210362457D01*
X96255388Y-210362457D02*
X96303007Y-210314838D01*
X96303007Y-210314838D02*
X96398245Y-210267219D01*
X96398245Y-210267219D02*
X96588721Y-210267219D01*
X96588721Y-210267219D02*
X96683959Y-210314838D01*
X96683959Y-210314838D02*
X96731578Y-210362457D01*
X96731578Y-210362457D02*
X96779197Y-210457695D01*
X96779197Y-210457695D02*
X96779197Y-210505314D01*
X96779197Y-210505314D02*
X96731578Y-210600552D01*
X96731578Y-210600552D02*
X96683959Y-210648171D01*
X96683959Y-210648171D02*
X96588721Y-210695790D01*
X96588721Y-210695790D02*
X96398245Y-210695790D01*
X96398245Y-210695790D02*
X96303007Y-210743409D01*
X96303007Y-210743409D02*
X96255388Y-210791028D01*
X96255388Y-210791028D02*
X96207769Y-210886266D01*
X96207769Y-210886266D02*
X96207769Y-211076742D01*
X96207769Y-211076742D02*
X96255388Y-211171980D01*
X96255388Y-211171980D02*
X96303007Y-211219600D01*
X96303007Y-211219600D02*
X96398245Y-211267219D01*
X96398245Y-211267219D02*
X96588721Y-211267219D01*
X96588721Y-211267219D02*
X96683959Y-211219600D01*
X96683959Y-211219600D02*
X96731578Y-211171980D01*
X96731578Y-211171980D02*
X96779197Y-211076742D01*
X96779197Y-211076742D02*
X96779197Y-210886266D01*
X96779197Y-210886266D02*
X96731578Y-210791028D01*
X96731578Y-210791028D02*
X96683959Y-210743409D01*
X96683959Y-210743409D02*
X96588721Y-210695790D01*
X97636340Y-210267219D02*
X97445864Y-210267219D01*
X97445864Y-210267219D02*
X97350626Y-210314838D01*
X97350626Y-210314838D02*
X97303007Y-210362457D01*
X97303007Y-210362457D02*
X97207769Y-210505314D01*
X97207769Y-210505314D02*
X97160150Y-210695790D01*
X97160150Y-210695790D02*
X97160150Y-211076742D01*
X97160150Y-211076742D02*
X97207769Y-211171980D01*
X97207769Y-211171980D02*
X97255388Y-211219600D01*
X97255388Y-211219600D02*
X97350626Y-211267219D01*
X97350626Y-211267219D02*
X97541102Y-211267219D01*
X97541102Y-211267219D02*
X97636340Y-211219600D01*
X97636340Y-211219600D02*
X97683959Y-211171980D01*
X97683959Y-211171980D02*
X97731578Y-211076742D01*
X97731578Y-211076742D02*
X97731578Y-210838647D01*
X97731578Y-210838647D02*
X97683959Y-210743409D01*
X97683959Y-210743409D02*
X97636340Y-210695790D01*
X97636340Y-210695790D02*
X97541102Y-210648171D01*
X97541102Y-210648171D02*
X97350626Y-210648171D01*
X97350626Y-210648171D02*
X97255388Y-210695790D01*
X97255388Y-210695790D02*
X97207769Y-210743409D01*
X97207769Y-210743409D02*
X97160150Y-210838647D01*
X98588721Y-210600552D02*
X98588721Y-211267219D01*
X98350626Y-210219600D02*
X98112531Y-210933885D01*
X98112531Y-210933885D02*
X98731578Y-210933885D01*
X99731579Y-210267219D02*
X100064912Y-211267219D01*
X100064912Y-211267219D02*
X100398245Y-210267219D01*
X101112531Y-211219600D02*
X101017293Y-211267219D01*
X101017293Y-211267219D02*
X100826817Y-211267219D01*
X100826817Y-211267219D02*
X100731579Y-211219600D01*
X100731579Y-211219600D02*
X100683960Y-211124361D01*
X100683960Y-211124361D02*
X100683960Y-210743409D01*
X100683960Y-210743409D02*
X100731579Y-210648171D01*
X100731579Y-210648171D02*
X100826817Y-210600552D01*
X100826817Y-210600552D02*
X101017293Y-210600552D01*
X101017293Y-210600552D02*
X101112531Y-210648171D01*
X101112531Y-210648171D02*
X101160150Y-210743409D01*
X101160150Y-210743409D02*
X101160150Y-210838647D01*
X101160150Y-210838647D02*
X100683960Y-210933885D01*
X101588722Y-211267219D02*
X101588722Y-210600552D01*
X101588722Y-210791028D02*
X101636341Y-210695790D01*
X101636341Y-210695790D02*
X101683960Y-210648171D01*
X101683960Y-210648171D02*
X101779198Y-210600552D01*
X101779198Y-210600552D02*
X101874436Y-210600552D01*
X102207770Y-211171980D02*
X102255389Y-211219600D01*
X102255389Y-211219600D02*
X102207770Y-211267219D01*
X102207770Y-211267219D02*
X102160151Y-211219600D01*
X102160151Y-211219600D02*
X102207770Y-211171980D01*
X102207770Y-211171980D02*
X102207770Y-211267219D01*
X102636341Y-210362457D02*
X102683960Y-210314838D01*
X102683960Y-210314838D02*
X102779198Y-210267219D01*
X102779198Y-210267219D02*
X103017293Y-210267219D01*
X103017293Y-210267219D02*
X103112531Y-210314838D01*
X103112531Y-210314838D02*
X103160150Y-210362457D01*
X103160150Y-210362457D02*
X103207769Y-210457695D01*
X103207769Y-210457695D02*
X103207769Y-210552933D01*
X103207769Y-210552933D02*
X103160150Y-210695790D01*
X103160150Y-210695790D02*
X102588722Y-211267219D01*
X102588722Y-211267219D02*
X103207769Y-211267219D01*
X103826817Y-210267219D02*
X103922055Y-210267219D01*
X103922055Y-210267219D02*
X104017293Y-210314838D01*
X104017293Y-210314838D02*
X104064912Y-210362457D01*
X104064912Y-210362457D02*
X104112531Y-210457695D01*
X104112531Y-210457695D02*
X104160150Y-210648171D01*
X104160150Y-210648171D02*
X104160150Y-210886266D01*
X104160150Y-210886266D02*
X104112531Y-211076742D01*
X104112531Y-211076742D02*
X104064912Y-211171980D01*
X104064912Y-211171980D02*
X104017293Y-211219600D01*
X104017293Y-211219600D02*
X103922055Y-211267219D01*
X103922055Y-211267219D02*
X103826817Y-211267219D01*
X103826817Y-211267219D02*
X103731579Y-211219600D01*
X103731579Y-211219600D02*
X103683960Y-211171980D01*
X103683960Y-211171980D02*
X103636341Y-211076742D01*
X103636341Y-211076742D02*
X103588722Y-210886266D01*
X103588722Y-210886266D02*
X103588722Y-210648171D01*
X103588722Y-210648171D02*
X103636341Y-210457695D01*
X103636341Y-210457695D02*
X103683960Y-210362457D01*
X103683960Y-210362457D02*
X103731579Y-210314838D01*
X103731579Y-210314838D02*
X103826817Y-210267219D01*
X104541103Y-210362457D02*
X104588722Y-210314838D01*
X104588722Y-210314838D02*
X104683960Y-210267219D01*
X104683960Y-210267219D02*
X104922055Y-210267219D01*
X104922055Y-210267219D02*
X105017293Y-210314838D01*
X105017293Y-210314838D02*
X105064912Y-210362457D01*
X105064912Y-210362457D02*
X105112531Y-210457695D01*
X105112531Y-210457695D02*
X105112531Y-210552933D01*
X105112531Y-210552933D02*
X105064912Y-210695790D01*
X105064912Y-210695790D02*
X104493484Y-211267219D01*
X104493484Y-211267219D02*
X105112531Y-211267219D01*
X105445865Y-210267219D02*
X106064912Y-210267219D01*
X106064912Y-210267219D02*
X105731579Y-210648171D01*
X105731579Y-210648171D02*
X105874436Y-210648171D01*
X105874436Y-210648171D02*
X105969674Y-210695790D01*
X105969674Y-210695790D02*
X106017293Y-210743409D01*
X106017293Y-210743409D02*
X106064912Y-210838647D01*
X106064912Y-210838647D02*
X106064912Y-211076742D01*
X106064912Y-211076742D02*
X106017293Y-211171980D01*
X106017293Y-211171980D02*
X105969674Y-211219600D01*
X105969674Y-211219600D02*
X105874436Y-211267219D01*
X105874436Y-211267219D02*
X105588722Y-211267219D01*
X105588722Y-211267219D02*
X105493484Y-211219600D01*
X105493484Y-211219600D02*
X105445865Y-211171980D01*
X106683960Y-210267219D02*
X106779198Y-210267219D01*
X106779198Y-210267219D02*
X106874436Y-210314838D01*
X106874436Y-210314838D02*
X106922055Y-210362457D01*
X106922055Y-210362457D02*
X106969674Y-210457695D01*
X106969674Y-210457695D02*
X107017293Y-210648171D01*
X107017293Y-210648171D02*
X107017293Y-210886266D01*
X107017293Y-210886266D02*
X106969674Y-211076742D01*
X106969674Y-211076742D02*
X106922055Y-211171980D01*
X106922055Y-211171980D02*
X106874436Y-211219600D01*
X106874436Y-211219600D02*
X106779198Y-211267219D01*
X106779198Y-211267219D02*
X106683960Y-211267219D01*
X106683960Y-211267219D02*
X106588722Y-211219600D01*
X106588722Y-211219600D02*
X106541103Y-211171980D01*
X106541103Y-211171980D02*
X106493484Y-211076742D01*
X106493484Y-211076742D02*
X106445865Y-210886266D01*
X106445865Y-210886266D02*
X106445865Y-210648171D01*
X106445865Y-210648171D02*
X106493484Y-210457695D01*
X106493484Y-210457695D02*
X106541103Y-210362457D01*
X106541103Y-210362457D02*
X106588722Y-210314838D01*
X106588722Y-210314838D02*
X106683960Y-210267219D01*
X107493484Y-211267219D02*
X107683960Y-211267219D01*
X107683960Y-211267219D02*
X107779198Y-211219600D01*
X107779198Y-211219600D02*
X107826817Y-211171980D01*
X107826817Y-211171980D02*
X107922055Y-211029123D01*
X107922055Y-211029123D02*
X107969674Y-210838647D01*
X107969674Y-210838647D02*
X107969674Y-210457695D01*
X107969674Y-210457695D02*
X107922055Y-210362457D01*
X107922055Y-210362457D02*
X107874436Y-210314838D01*
X107874436Y-210314838D02*
X107779198Y-210267219D01*
X107779198Y-210267219D02*
X107588722Y-210267219D01*
X107588722Y-210267219D02*
X107493484Y-210314838D01*
X107493484Y-210314838D02*
X107445865Y-210362457D01*
X107445865Y-210362457D02*
X107398246Y-210457695D01*
X107398246Y-210457695D02*
X107398246Y-210695790D01*
X107398246Y-210695790D02*
X107445865Y-210791028D01*
X107445865Y-210791028D02*
X107493484Y-210838647D01*
X107493484Y-210838647D02*
X107588722Y-210886266D01*
X107588722Y-210886266D02*
X107779198Y-210886266D01*
X107779198Y-210886266D02*
X107874436Y-210838647D01*
X107874436Y-210838647D02*
X107922055Y-210791028D01*
X107922055Y-210791028D02*
X107969674Y-210695790D01*
X108350627Y-210362457D02*
X108398246Y-210314838D01*
X108398246Y-210314838D02*
X108493484Y-210267219D01*
X108493484Y-210267219D02*
X108731579Y-210267219D01*
X108731579Y-210267219D02*
X108826817Y-210314838D01*
X108826817Y-210314838D02*
X108874436Y-210362457D01*
X108874436Y-210362457D02*
X108922055Y-210457695D01*
X108922055Y-210457695D02*
X108922055Y-210552933D01*
X108922055Y-210552933D02*
X108874436Y-210695790D01*
X108874436Y-210695790D02*
X108303008Y-211267219D01*
X108303008Y-211267219D02*
X108922055Y-211267219D01*
X109779198Y-210267219D02*
X109588722Y-210267219D01*
X109588722Y-210267219D02*
X109493484Y-210314838D01*
X109493484Y-210314838D02*
X109445865Y-210362457D01*
X109445865Y-210362457D02*
X109350627Y-210505314D01*
X109350627Y-210505314D02*
X109303008Y-210695790D01*
X109303008Y-210695790D02*
X109303008Y-211076742D01*
X109303008Y-211076742D02*
X109350627Y-211171980D01*
X109350627Y-211171980D02*
X109398246Y-211219600D01*
X109398246Y-211219600D02*
X109493484Y-211267219D01*
X109493484Y-211267219D02*
X109683960Y-211267219D01*
X109683960Y-211267219D02*
X109779198Y-211219600D01*
X109779198Y-211219600D02*
X109826817Y-211171980D01*
X109826817Y-211171980D02*
X109874436Y-211076742D01*
X109874436Y-211076742D02*
X109874436Y-210838647D01*
X109874436Y-210838647D02*
X109826817Y-210743409D01*
X109826817Y-210743409D02*
X109779198Y-210695790D01*
X109779198Y-210695790D02*
X109683960Y-210648171D01*
X109683960Y-210648171D02*
X109493484Y-210648171D01*
X109493484Y-210648171D02*
X109398246Y-210695790D01*
X109398246Y-210695790D02*
X109350627Y-210743409D01*
X109350627Y-210743409D02*
X109303008Y-210838647D01*
D17*
X125999122Y-121309133D02*
X125599122Y-121309133D01*
X125799122Y-121309133D02*
X125799122Y-120609133D01*
X125799122Y-120609133D02*
X125732455Y-120709133D01*
X125732455Y-120709133D02*
X125665789Y-120775800D01*
X125665789Y-120775800D02*
X125599122Y-120809133D01*
X126432456Y-120609133D02*
X126499122Y-120609133D01*
X126499122Y-120609133D02*
X126565789Y-120642466D01*
X126565789Y-120642466D02*
X126599122Y-120675800D01*
X126599122Y-120675800D02*
X126632456Y-120742466D01*
X126632456Y-120742466D02*
X126665789Y-120875800D01*
X126665789Y-120875800D02*
X126665789Y-121042466D01*
X126665789Y-121042466D02*
X126632456Y-121175800D01*
X126632456Y-121175800D02*
X126599122Y-121242466D01*
X126599122Y-121242466D02*
X126565789Y-121275800D01*
X126565789Y-121275800D02*
X126499122Y-121309133D01*
X126499122Y-121309133D02*
X126432456Y-121309133D01*
X126432456Y-121309133D02*
X126365789Y-121275800D01*
X126365789Y-121275800D02*
X126332456Y-121242466D01*
X126332456Y-121242466D02*
X126299122Y-121175800D01*
X126299122Y-121175800D02*
X126265789Y-121042466D01*
X126265789Y-121042466D02*
X126265789Y-120875800D01*
X126265789Y-120875800D02*
X126299122Y-120742466D01*
X126299122Y-120742466D02*
X126332456Y-120675800D01*
X126332456Y-120675800D02*
X126365789Y-120642466D01*
X126365789Y-120642466D02*
X126432456Y-120609133D01*
X126965789Y-121309133D02*
X126965789Y-120609133D01*
X127032456Y-121042466D02*
X127232456Y-121309133D01*
X127232456Y-120842466D02*
X126965789Y-121109133D01*
X127999123Y-121309133D02*
X128365789Y-120842466D01*
X127999123Y-120842466D02*
X128365789Y-121309133D01*
X129132456Y-120675800D02*
X129165789Y-120642466D01*
X129165789Y-120642466D02*
X129232456Y-120609133D01*
X129232456Y-120609133D02*
X129399123Y-120609133D01*
X129399123Y-120609133D02*
X129465789Y-120642466D01*
X129465789Y-120642466D02*
X129499123Y-120675800D01*
X129499123Y-120675800D02*
X129532456Y-120742466D01*
X129532456Y-120742466D02*
X129532456Y-120809133D01*
X129532456Y-120809133D02*
X129499123Y-120909133D01*
X129499123Y-120909133D02*
X129099123Y-121309133D01*
X129099123Y-121309133D02*
X129532456Y-121309133D01*
D11*
X111364619Y-187121241D02*
X111364619Y-187597431D01*
X111364619Y-187597431D02*
X111840809Y-187645050D01*
X111840809Y-187645050D02*
X111793190Y-187597431D01*
X111793190Y-187597431D02*
X111745571Y-187502193D01*
X111745571Y-187502193D02*
X111745571Y-187264098D01*
X111745571Y-187264098D02*
X111793190Y-187168860D01*
X111793190Y-187168860D02*
X111840809Y-187121241D01*
X111840809Y-187121241D02*
X111936047Y-187073622D01*
X111936047Y-187073622D02*
X112174142Y-187073622D01*
X112174142Y-187073622D02*
X112269380Y-187121241D01*
X112269380Y-187121241D02*
X112317000Y-187168860D01*
X112317000Y-187168860D02*
X112364619Y-187264098D01*
X112364619Y-187264098D02*
X112364619Y-187502193D01*
X112364619Y-187502193D02*
X112317000Y-187597431D01*
X112317000Y-187597431D02*
X112269380Y-187645050D01*
X112364619Y-186121241D02*
X112364619Y-186692669D01*
X112364619Y-186406955D02*
X111364619Y-186406955D01*
X111364619Y-186406955D02*
X111507476Y-186502193D01*
X111507476Y-186502193D02*
X111602714Y-186597431D01*
X111602714Y-186597431D02*
X111650333Y-186692669D01*
X111364619Y-185502193D02*
X111364619Y-185406955D01*
X111364619Y-185406955D02*
X111412238Y-185311717D01*
X111412238Y-185311717D02*
X111459857Y-185264098D01*
X111459857Y-185264098D02*
X111555095Y-185216479D01*
X111555095Y-185216479D02*
X111745571Y-185168860D01*
X111745571Y-185168860D02*
X111983666Y-185168860D01*
X111983666Y-185168860D02*
X112174142Y-185216479D01*
X112174142Y-185216479D02*
X112269380Y-185264098D01*
X112269380Y-185264098D02*
X112317000Y-185311717D01*
X112317000Y-185311717D02*
X112364619Y-185406955D01*
X112364619Y-185406955D02*
X112364619Y-185502193D01*
X112364619Y-185502193D02*
X112317000Y-185597431D01*
X112317000Y-185597431D02*
X112269380Y-185645050D01*
X112269380Y-185645050D02*
X112174142Y-185692669D01*
X112174142Y-185692669D02*
X111983666Y-185740288D01*
X111983666Y-185740288D02*
X111745571Y-185740288D01*
X111745571Y-185740288D02*
X111555095Y-185692669D01*
X111555095Y-185692669D02*
X111459857Y-185645050D01*
X111459857Y-185645050D02*
X111412238Y-185597431D01*
X111412238Y-185597431D02*
X111364619Y-185502193D01*
X112364619Y-184740288D02*
X111364619Y-184740288D01*
X111983666Y-184645050D02*
X112364619Y-184359336D01*
X111697952Y-184359336D02*
X112078904Y-184740288D01*
X112364619Y-183264097D02*
X111697952Y-182740288D01*
X111697952Y-183264097D02*
X112364619Y-182740288D01*
X111697952Y-181168859D02*
X112364619Y-181168859D01*
X111317000Y-181406954D02*
X112031285Y-181645049D01*
X112031285Y-181645049D02*
X112031285Y-181026002D01*
D10*
X107654819Y-177757143D02*
X107654819Y-178233333D01*
X107654819Y-178233333D02*
X108131009Y-178280952D01*
X108131009Y-178280952D02*
X108083390Y-178233333D01*
X108083390Y-178233333D02*
X108035771Y-178138095D01*
X108035771Y-178138095D02*
X108035771Y-177900000D01*
X108035771Y-177900000D02*
X108083390Y-177804762D01*
X108083390Y-177804762D02*
X108131009Y-177757143D01*
X108131009Y-177757143D02*
X108226247Y-177709524D01*
X108226247Y-177709524D02*
X108464342Y-177709524D01*
X108464342Y-177709524D02*
X108559580Y-177757143D01*
X108559580Y-177757143D02*
X108607200Y-177804762D01*
X108607200Y-177804762D02*
X108654819Y-177900000D01*
X108654819Y-177900000D02*
X108654819Y-178138095D01*
X108654819Y-178138095D02*
X108607200Y-178233333D01*
X108607200Y-178233333D02*
X108559580Y-178280952D01*
X108654819Y-176757143D02*
X108654819Y-177328571D01*
X108654819Y-177042857D02*
X107654819Y-177042857D01*
X107654819Y-177042857D02*
X107797676Y-177138095D01*
X107797676Y-177138095D02*
X107892914Y-177233333D01*
X107892914Y-177233333D02*
X107940533Y-177328571D01*
X107654819Y-176138095D02*
X107654819Y-176042857D01*
X107654819Y-176042857D02*
X107702438Y-175947619D01*
X107702438Y-175947619D02*
X107750057Y-175900000D01*
X107750057Y-175900000D02*
X107845295Y-175852381D01*
X107845295Y-175852381D02*
X108035771Y-175804762D01*
X108035771Y-175804762D02*
X108273866Y-175804762D01*
X108273866Y-175804762D02*
X108464342Y-175852381D01*
X108464342Y-175852381D02*
X108559580Y-175900000D01*
X108559580Y-175900000D02*
X108607200Y-175947619D01*
X108607200Y-175947619D02*
X108654819Y-176042857D01*
X108654819Y-176042857D02*
X108654819Y-176138095D01*
X108654819Y-176138095D02*
X108607200Y-176233333D01*
X108607200Y-176233333D02*
X108559580Y-176280952D01*
X108559580Y-176280952D02*
X108464342Y-176328571D01*
X108464342Y-176328571D02*
X108273866Y-176376190D01*
X108273866Y-176376190D02*
X108035771Y-176376190D01*
X108035771Y-176376190D02*
X107845295Y-176328571D01*
X107845295Y-176328571D02*
X107750057Y-176280952D01*
X107750057Y-176280952D02*
X107702438Y-176233333D01*
X107702438Y-176233333D02*
X107654819Y-176138095D01*
X108654819Y-175376190D02*
X107654819Y-175376190D01*
X108654819Y-174804762D02*
X108083390Y-175233333D01*
X107654819Y-174804762D02*
X108226247Y-175376190D01*
X108654819Y-173709523D02*
X107988152Y-173185714D01*
X107988152Y-173709523D02*
X108654819Y-173185714D01*
X107988152Y-171614285D02*
X108654819Y-171614285D01*
X107607200Y-171852380D02*
X108321485Y-172090475D01*
X108321485Y-172090475D02*
X108321485Y-171471428D01*
D11*
X131864619Y-139073622D02*
X131864619Y-139645050D01*
X131864619Y-139359336D02*
X130864619Y-139359336D01*
X130864619Y-139359336D02*
X131007476Y-139454574D01*
X131007476Y-139454574D02*
X131102714Y-139549812D01*
X131102714Y-139549812D02*
X131150333Y-139645050D01*
X131864619Y-138645050D02*
X130864619Y-138645050D01*
X131483666Y-138549812D02*
X131864619Y-138264098D01*
X131197952Y-138264098D02*
X131578904Y-138645050D01*
X131864619Y-137168859D02*
X131197952Y-136645050D01*
X131197952Y-137168859D02*
X131864619Y-136645050D01*
X130864619Y-135597430D02*
X130864619Y-134978383D01*
X130864619Y-134978383D02*
X131245571Y-135311716D01*
X131245571Y-135311716D02*
X131245571Y-135168859D01*
X131245571Y-135168859D02*
X131293190Y-135073621D01*
X131293190Y-135073621D02*
X131340809Y-135026002D01*
X131340809Y-135026002D02*
X131436047Y-134978383D01*
X131436047Y-134978383D02*
X131674142Y-134978383D01*
X131674142Y-134978383D02*
X131769380Y-135026002D01*
X131769380Y-135026002D02*
X131817000Y-135073621D01*
X131817000Y-135073621D02*
X131864619Y-135168859D01*
X131864619Y-135168859D02*
X131864619Y-135454573D01*
X131864619Y-135454573D02*
X131817000Y-135549811D01*
X131817000Y-135549811D02*
X131769380Y-135597430D01*
D10*
X96800949Y-110897561D02*
X96865711Y-110945180D01*
X96865711Y-110945180D02*
X96962854Y-110945180D01*
X96962854Y-110945180D02*
X97059997Y-110897561D01*
X97059997Y-110897561D02*
X97124759Y-110802323D01*
X97124759Y-110802323D02*
X97157140Y-110707085D01*
X97157140Y-110707085D02*
X97189521Y-110516609D01*
X97189521Y-110516609D02*
X97189521Y-110373752D01*
X97189521Y-110373752D02*
X97157140Y-110183276D01*
X97157140Y-110183276D02*
X97124759Y-110088038D01*
X97124759Y-110088038D02*
X97059997Y-109992800D01*
X97059997Y-109992800D02*
X96962854Y-109945180D01*
X96962854Y-109945180D02*
X96898092Y-109945180D01*
X96898092Y-109945180D02*
X96800949Y-109992800D01*
X96800949Y-109992800D02*
X96768568Y-110040419D01*
X96768568Y-110040419D02*
X96768568Y-110373752D01*
X96768568Y-110373752D02*
X96898092Y-110373752D01*
X96477140Y-109945180D02*
X96477140Y-110945180D01*
X96477140Y-110945180D02*
X96088568Y-109945180D01*
X96088568Y-109945180D02*
X96088568Y-110945180D01*
X95764759Y-109945180D02*
X95764759Y-110945180D01*
X95764759Y-110945180D02*
X95602854Y-110945180D01*
X95602854Y-110945180D02*
X95505711Y-110897561D01*
X95505711Y-110897561D02*
X95440949Y-110802323D01*
X95440949Y-110802323D02*
X95408568Y-110707085D01*
X95408568Y-110707085D02*
X95376187Y-110516609D01*
X95376187Y-110516609D02*
X95376187Y-110373752D01*
X95376187Y-110373752D02*
X95408568Y-110183276D01*
X95408568Y-110183276D02*
X95440949Y-110088038D01*
X95440949Y-110088038D02*
X95505711Y-109992800D01*
X95505711Y-109992800D02*
X95602854Y-109945180D01*
X95602854Y-109945180D02*
X95764759Y-109945180D01*
X92040951Y-110945180D02*
X91619998Y-110945180D01*
X91619998Y-110945180D02*
X91846665Y-110564228D01*
X91846665Y-110564228D02*
X91749522Y-110564228D01*
X91749522Y-110564228D02*
X91684760Y-110516609D01*
X91684760Y-110516609D02*
X91652379Y-110468990D01*
X91652379Y-110468990D02*
X91619998Y-110373752D01*
X91619998Y-110373752D02*
X91619998Y-110135657D01*
X91619998Y-110135657D02*
X91652379Y-110040419D01*
X91652379Y-110040419D02*
X91684760Y-109992800D01*
X91684760Y-109992800D02*
X91749522Y-109945180D01*
X91749522Y-109945180D02*
X91943808Y-109945180D01*
X91943808Y-109945180D02*
X92008570Y-109992800D01*
X92008570Y-109992800D02*
X92040951Y-110040419D01*
X91328570Y-110040419D02*
X91296189Y-109992800D01*
X91296189Y-109992800D02*
X91328570Y-109945180D01*
X91328570Y-109945180D02*
X91360951Y-109992800D01*
X91360951Y-109992800D02*
X91328570Y-110040419D01*
X91328570Y-110040419D02*
X91328570Y-109945180D01*
X91069522Y-110945180D02*
X90648569Y-110945180D01*
X90648569Y-110945180D02*
X90875236Y-110564228D01*
X90875236Y-110564228D02*
X90778093Y-110564228D01*
X90778093Y-110564228D02*
X90713331Y-110516609D01*
X90713331Y-110516609D02*
X90680950Y-110468990D01*
X90680950Y-110468990D02*
X90648569Y-110373752D01*
X90648569Y-110373752D02*
X90648569Y-110135657D01*
X90648569Y-110135657D02*
X90680950Y-110040419D01*
X90680950Y-110040419D02*
X90713331Y-109992800D01*
X90713331Y-109992800D02*
X90778093Y-109945180D01*
X90778093Y-109945180D02*
X90972379Y-109945180D01*
X90972379Y-109945180D02*
X91037141Y-109992800D01*
X91037141Y-109992800D02*
X91069522Y-110040419D01*
X89320951Y-109945180D02*
X89320951Y-110945180D01*
X88932379Y-109945180D02*
X89223808Y-110516609D01*
X88932379Y-110945180D02*
X89320951Y-110373752D01*
X88640951Y-110468990D02*
X88414284Y-110468990D01*
X88317141Y-109945180D02*
X88640951Y-109945180D01*
X88640951Y-109945180D02*
X88640951Y-110945180D01*
X88640951Y-110945180D02*
X88317141Y-110945180D01*
X87896189Y-110421371D02*
X87896189Y-109945180D01*
X88122856Y-110945180D02*
X87896189Y-110421371D01*
X87896189Y-110421371D02*
X87669522Y-110945180D01*
X86503809Y-110945180D02*
X86277142Y-109945180D01*
X86277142Y-109945180D02*
X86050475Y-110945180D01*
X85823809Y-109945180D02*
X85823809Y-110945180D01*
X85499999Y-109945180D02*
X85499999Y-110945180D01*
X85499999Y-110945180D02*
X85111427Y-109945180D01*
X85111427Y-109945180D02*
X85111427Y-110945180D01*
X83880951Y-110040419D02*
X83913332Y-109992800D01*
X83913332Y-109992800D02*
X84010475Y-109945180D01*
X84010475Y-109945180D02*
X84075237Y-109945180D01*
X84075237Y-109945180D02*
X84172380Y-109992800D01*
X84172380Y-109992800D02*
X84237142Y-110088038D01*
X84237142Y-110088038D02*
X84269523Y-110183276D01*
X84269523Y-110183276D02*
X84301904Y-110373752D01*
X84301904Y-110373752D02*
X84301904Y-110516609D01*
X84301904Y-110516609D02*
X84269523Y-110707085D01*
X84269523Y-110707085D02*
X84237142Y-110802323D01*
X84237142Y-110802323D02*
X84172380Y-110897561D01*
X84172380Y-110897561D02*
X84075237Y-110945180D01*
X84075237Y-110945180D02*
X84010475Y-110945180D01*
X84010475Y-110945180D02*
X83913332Y-110897561D01*
X83913332Y-110897561D02*
X83880951Y-110849942D01*
X83686666Y-110945180D02*
X83298094Y-110945180D01*
X83492380Y-109945180D02*
X83492380Y-110945180D01*
X82747618Y-109945180D02*
X83071428Y-109945180D01*
X83071428Y-109945180D02*
X83071428Y-110945180D01*
X81096190Y-109945180D02*
X81322857Y-110421371D01*
X81484762Y-109945180D02*
X81484762Y-110945180D01*
X81484762Y-110945180D02*
X81225714Y-110945180D01*
X81225714Y-110945180D02*
X81160952Y-110897561D01*
X81160952Y-110897561D02*
X81128571Y-110849942D01*
X81128571Y-110849942D02*
X81096190Y-110754704D01*
X81096190Y-110754704D02*
X81096190Y-110611847D01*
X81096190Y-110611847D02*
X81128571Y-110516609D01*
X81128571Y-110516609D02*
X81160952Y-110468990D01*
X81160952Y-110468990D02*
X81225714Y-110421371D01*
X81225714Y-110421371D02*
X81484762Y-110421371D01*
X80869524Y-110945180D02*
X80416190Y-109945180D01*
X80416190Y-110945180D02*
X80869524Y-109945180D01*
X79218096Y-110945180D02*
X78829524Y-110945180D01*
X79023810Y-109945180D02*
X79023810Y-110945180D01*
X78667620Y-110945180D02*
X78214286Y-109945180D01*
X78214286Y-110945180D02*
X78667620Y-109945180D01*
D17*
X103128095Y-120267419D02*
X103128095Y-121076942D01*
X103128095Y-121076942D02*
X103175714Y-121172180D01*
X103175714Y-121172180D02*
X103223333Y-121219800D01*
X103223333Y-121219800D02*
X103318571Y-121267419D01*
X103318571Y-121267419D02*
X103509047Y-121267419D01*
X103509047Y-121267419D02*
X103604285Y-121219800D01*
X103604285Y-121219800D02*
X103651904Y-121172180D01*
X103651904Y-121172180D02*
X103699523Y-121076942D01*
X103699523Y-121076942D02*
X103699523Y-120267419D01*
X104604285Y-120267419D02*
X104413809Y-120267419D01*
X104413809Y-120267419D02*
X104318571Y-120315038D01*
X104318571Y-120315038D02*
X104270952Y-120362657D01*
X104270952Y-120362657D02*
X104175714Y-120505514D01*
X104175714Y-120505514D02*
X104128095Y-120695990D01*
X104128095Y-120695990D02*
X104128095Y-121076942D01*
X104128095Y-121076942D02*
X104175714Y-121172180D01*
X104175714Y-121172180D02*
X104223333Y-121219800D01*
X104223333Y-121219800D02*
X104318571Y-121267419D01*
X104318571Y-121267419D02*
X104509047Y-121267419D01*
X104509047Y-121267419D02*
X104604285Y-121219800D01*
X104604285Y-121219800D02*
X104651904Y-121172180D01*
X104651904Y-121172180D02*
X104699523Y-121076942D01*
X104699523Y-121076942D02*
X104699523Y-120838847D01*
X104699523Y-120838847D02*
X104651904Y-120743609D01*
X104651904Y-120743609D02*
X104604285Y-120695990D01*
X104604285Y-120695990D02*
X104509047Y-120648371D01*
X104509047Y-120648371D02*
X104318571Y-120648371D01*
X104318571Y-120648371D02*
X104223333Y-120695990D01*
X104223333Y-120695990D02*
X104175714Y-120743609D01*
X104175714Y-120743609D02*
X104128095Y-120838847D01*
X120635276Y-128816591D02*
X120635276Y-128626115D01*
X120468609Y-128745163D02*
X120897180Y-128745163D01*
X120897180Y-128745163D02*
X120944800Y-128721353D01*
X120944800Y-128721353D02*
X120968609Y-128673734D01*
X120968609Y-128673734D02*
X120968609Y-128626115D01*
X120968609Y-128245163D02*
X120706704Y-128245163D01*
X120706704Y-128245163D02*
X120659085Y-128268973D01*
X120659085Y-128268973D02*
X120635276Y-128316592D01*
X120635276Y-128316592D02*
X120635276Y-128411830D01*
X120635276Y-128411830D02*
X120659085Y-128459449D01*
X120944800Y-128245163D02*
X120968609Y-128292782D01*
X120968609Y-128292782D02*
X120968609Y-128411830D01*
X120968609Y-128411830D02*
X120944800Y-128459449D01*
X120944800Y-128459449D02*
X120897180Y-128483258D01*
X120897180Y-128483258D02*
X120849561Y-128483258D01*
X120849561Y-128483258D02*
X120801942Y-128459449D01*
X120801942Y-128459449D02*
X120778133Y-128411830D01*
X120778133Y-128411830D02*
X120778133Y-128292782D01*
X120778133Y-128292782D02*
X120754323Y-128245163D01*
X120968609Y-127935639D02*
X120944800Y-127983258D01*
X120944800Y-127983258D02*
X120920990Y-128007068D01*
X120920990Y-128007068D02*
X120873371Y-128030877D01*
X120873371Y-128030877D02*
X120730514Y-128030877D01*
X120730514Y-128030877D02*
X120682895Y-128007068D01*
X120682895Y-128007068D02*
X120659085Y-127983258D01*
X120659085Y-127983258D02*
X120635276Y-127935639D01*
X120635276Y-127935639D02*
X120635276Y-127864211D01*
X120635276Y-127864211D02*
X120659085Y-127816592D01*
X120659085Y-127816592D02*
X120682895Y-127792782D01*
X120682895Y-127792782D02*
X120730514Y-127768973D01*
X120730514Y-127768973D02*
X120873371Y-127768973D01*
X120873371Y-127768973D02*
X120920990Y-127792782D01*
X120920990Y-127792782D02*
X120944800Y-127816592D01*
X120944800Y-127816592D02*
X120968609Y-127864211D01*
X120968609Y-127864211D02*
X120968609Y-127935639D01*
X120968609Y-127554687D02*
X120468609Y-127554687D01*
X120659085Y-127554687D02*
X120635276Y-127507068D01*
X120635276Y-127507068D02*
X120635276Y-127411830D01*
X120635276Y-127411830D02*
X120659085Y-127364211D01*
X120659085Y-127364211D02*
X120682895Y-127340401D01*
X120682895Y-127340401D02*
X120730514Y-127316592D01*
X120730514Y-127316592D02*
X120873371Y-127316592D01*
X120873371Y-127316592D02*
X120920990Y-127340401D01*
X120920990Y-127340401D02*
X120944800Y-127364211D01*
X120944800Y-127364211D02*
X120968609Y-127411830D01*
X120968609Y-127411830D02*
X120968609Y-127507068D01*
X120968609Y-127507068D02*
X120944800Y-127554687D01*
X120968609Y-126888020D02*
X120706704Y-126888020D01*
X120706704Y-126888020D02*
X120659085Y-126911830D01*
X120659085Y-126911830D02*
X120635276Y-126959449D01*
X120635276Y-126959449D02*
X120635276Y-127054687D01*
X120635276Y-127054687D02*
X120659085Y-127102306D01*
X120944800Y-126888020D02*
X120968609Y-126935639D01*
X120968609Y-126935639D02*
X120968609Y-127054687D01*
X120968609Y-127054687D02*
X120944800Y-127102306D01*
X120944800Y-127102306D02*
X120897180Y-127126115D01*
X120897180Y-127126115D02*
X120849561Y-127126115D01*
X120849561Y-127126115D02*
X120801942Y-127102306D01*
X120801942Y-127102306D02*
X120778133Y-127054687D01*
X120778133Y-127054687D02*
X120778133Y-126935639D01*
X120778133Y-126935639D02*
X120754323Y-126888020D01*
X120968609Y-126578496D02*
X120944800Y-126626115D01*
X120944800Y-126626115D02*
X120920990Y-126649925D01*
X120920990Y-126649925D02*
X120873371Y-126673734D01*
X120873371Y-126673734D02*
X120730514Y-126673734D01*
X120730514Y-126673734D02*
X120682895Y-126649925D01*
X120682895Y-126649925D02*
X120659085Y-126626115D01*
X120659085Y-126626115D02*
X120635276Y-126578496D01*
X120635276Y-126578496D02*
X120635276Y-126507068D01*
X120635276Y-126507068D02*
X120659085Y-126459449D01*
X120659085Y-126459449D02*
X120682895Y-126435639D01*
X120682895Y-126435639D02*
X120730514Y-126411830D01*
X120730514Y-126411830D02*
X120873371Y-126411830D01*
X120873371Y-126411830D02*
X120920990Y-126435639D01*
X120920990Y-126435639D02*
X120944800Y-126459449D01*
X120944800Y-126459449D02*
X120968609Y-126507068D01*
X120968609Y-126507068D02*
X120968609Y-126578496D01*
X114594800Y-128768972D02*
X114618609Y-128721353D01*
X114618609Y-128721353D02*
X114618609Y-128626115D01*
X114618609Y-128626115D02*
X114594800Y-128578496D01*
X114594800Y-128578496D02*
X114547180Y-128554687D01*
X114547180Y-128554687D02*
X114523371Y-128554687D01*
X114523371Y-128554687D02*
X114475752Y-128578496D01*
X114475752Y-128578496D02*
X114451942Y-128626115D01*
X114451942Y-128626115D02*
X114451942Y-128697544D01*
X114451942Y-128697544D02*
X114428133Y-128745163D01*
X114428133Y-128745163D02*
X114380514Y-128768972D01*
X114380514Y-128768972D02*
X114356704Y-128768972D01*
X114356704Y-128768972D02*
X114309085Y-128745163D01*
X114309085Y-128745163D02*
X114285276Y-128697544D01*
X114285276Y-128697544D02*
X114285276Y-128626115D01*
X114285276Y-128626115D02*
X114309085Y-128578496D01*
X114285276Y-128388020D02*
X114618609Y-128292782D01*
X114618609Y-128292782D02*
X114380514Y-128197544D01*
X114380514Y-128197544D02*
X114618609Y-128102306D01*
X114618609Y-128102306D02*
X114285276Y-128007068D01*
X114618609Y-127816591D02*
X114285276Y-127816591D01*
X114118609Y-127816591D02*
X114142419Y-127840400D01*
X114142419Y-127840400D02*
X114166228Y-127816591D01*
X114166228Y-127816591D02*
X114142419Y-127792781D01*
X114142419Y-127792781D02*
X114118609Y-127816591D01*
X114118609Y-127816591D02*
X114166228Y-127816591D01*
X114285276Y-127649924D02*
X114285276Y-127459448D01*
X114118609Y-127578496D02*
X114547180Y-127578496D01*
X114547180Y-127578496D02*
X114594800Y-127554686D01*
X114594800Y-127554686D02*
X114618609Y-127507067D01*
X114618609Y-127507067D02*
X114618609Y-127459448D01*
X114594800Y-127078496D02*
X114618609Y-127126115D01*
X114618609Y-127126115D02*
X114618609Y-127221353D01*
X114618609Y-127221353D02*
X114594800Y-127268972D01*
X114594800Y-127268972D02*
X114570990Y-127292782D01*
X114570990Y-127292782D02*
X114523371Y-127316591D01*
X114523371Y-127316591D02*
X114380514Y-127316591D01*
X114380514Y-127316591D02*
X114332895Y-127292782D01*
X114332895Y-127292782D02*
X114309085Y-127268972D01*
X114309085Y-127268972D02*
X114285276Y-127221353D01*
X114285276Y-127221353D02*
X114285276Y-127126115D01*
X114285276Y-127126115D02*
X114309085Y-127078496D01*
X114618609Y-126864211D02*
X114118609Y-126864211D01*
X114618609Y-126649925D02*
X114356704Y-126649925D01*
X114356704Y-126649925D02*
X114309085Y-126673735D01*
X114309085Y-126673735D02*
X114285276Y-126721354D01*
X114285276Y-126721354D02*
X114285276Y-126792782D01*
X114285276Y-126792782D02*
X114309085Y-126840401D01*
X114309085Y-126840401D02*
X114332895Y-126864211D01*
X114594800Y-126435639D02*
X114618609Y-126388020D01*
X114618609Y-126388020D02*
X114618609Y-126292782D01*
X114618609Y-126292782D02*
X114594800Y-126245163D01*
X114594800Y-126245163D02*
X114547180Y-126221354D01*
X114547180Y-126221354D02*
X114523371Y-126221354D01*
X114523371Y-126221354D02*
X114475752Y-126245163D01*
X114475752Y-126245163D02*
X114451942Y-126292782D01*
X114451942Y-126292782D02*
X114451942Y-126364211D01*
X114451942Y-126364211D02*
X114428133Y-126411830D01*
X114428133Y-126411830D02*
X114380514Y-126435639D01*
X114380514Y-126435639D02*
X114356704Y-126435639D01*
X114356704Y-126435639D02*
X114309085Y-126411830D01*
X114309085Y-126411830D02*
X114285276Y-126364211D01*
X114285276Y-126364211D02*
X114285276Y-126292782D01*
X114285276Y-126292782D02*
X114309085Y-126245163D01*
X114594800Y-125792782D02*
X114618609Y-125840401D01*
X114618609Y-125840401D02*
X114618609Y-125935639D01*
X114618609Y-125935639D02*
X114594800Y-125983258D01*
X114594800Y-125983258D02*
X114570990Y-126007068D01*
X114570990Y-126007068D02*
X114523371Y-126030877D01*
X114523371Y-126030877D02*
X114380514Y-126030877D01*
X114380514Y-126030877D02*
X114332895Y-126007068D01*
X114332895Y-126007068D02*
X114309085Y-125983258D01*
X114309085Y-125983258D02*
X114285276Y-125935639D01*
X114285276Y-125935639D02*
X114285276Y-125840401D01*
X114285276Y-125840401D02*
X114309085Y-125792782D01*
X114618609Y-125578497D02*
X114285276Y-125578497D01*
X114118609Y-125578497D02*
X114142419Y-125602306D01*
X114142419Y-125602306D02*
X114166228Y-125578497D01*
X114166228Y-125578497D02*
X114142419Y-125554687D01*
X114142419Y-125554687D02*
X114118609Y-125578497D01*
X114118609Y-125578497D02*
X114166228Y-125578497D01*
X114594800Y-125149926D02*
X114618609Y-125197545D01*
X114618609Y-125197545D02*
X114618609Y-125292783D01*
X114618609Y-125292783D02*
X114594800Y-125340402D01*
X114594800Y-125340402D02*
X114547180Y-125364211D01*
X114547180Y-125364211D02*
X114356704Y-125364211D01*
X114356704Y-125364211D02*
X114309085Y-125340402D01*
X114309085Y-125340402D02*
X114285276Y-125292783D01*
X114285276Y-125292783D02*
X114285276Y-125197545D01*
X114285276Y-125197545D02*
X114309085Y-125149926D01*
X114309085Y-125149926D02*
X114356704Y-125126116D01*
X114356704Y-125126116D02*
X114404323Y-125126116D01*
X114404323Y-125126116D02*
X114451942Y-125364211D01*
X114285276Y-124911831D02*
X114618609Y-124911831D01*
X114332895Y-124911831D02*
X114309085Y-124888021D01*
X114309085Y-124888021D02*
X114285276Y-124840402D01*
X114285276Y-124840402D02*
X114285276Y-124768974D01*
X114285276Y-124768974D02*
X114309085Y-124721355D01*
X114309085Y-124721355D02*
X114356704Y-124697545D01*
X114356704Y-124697545D02*
X114618609Y-124697545D01*
X114594800Y-124245164D02*
X114618609Y-124292783D01*
X114618609Y-124292783D02*
X114618609Y-124388021D01*
X114618609Y-124388021D02*
X114594800Y-124435640D01*
X114594800Y-124435640D02*
X114570990Y-124459450D01*
X114570990Y-124459450D02*
X114523371Y-124483259D01*
X114523371Y-124483259D02*
X114380514Y-124483259D01*
X114380514Y-124483259D02*
X114332895Y-124459450D01*
X114332895Y-124459450D02*
X114309085Y-124435640D01*
X114309085Y-124435640D02*
X114285276Y-124388021D01*
X114285276Y-124388021D02*
X114285276Y-124292783D01*
X114285276Y-124292783D02*
X114309085Y-124245164D01*
X114594800Y-123840403D02*
X114618609Y-123888022D01*
X114618609Y-123888022D02*
X114618609Y-123983260D01*
X114618609Y-123983260D02*
X114594800Y-124030879D01*
X114594800Y-124030879D02*
X114547180Y-124054688D01*
X114547180Y-124054688D02*
X114356704Y-124054688D01*
X114356704Y-124054688D02*
X114309085Y-124030879D01*
X114309085Y-124030879D02*
X114285276Y-123983260D01*
X114285276Y-123983260D02*
X114285276Y-123888022D01*
X114285276Y-123888022D02*
X114309085Y-123840403D01*
X114309085Y-123840403D02*
X114356704Y-123816593D01*
X114356704Y-123816593D02*
X114404323Y-123816593D01*
X114404323Y-123816593D02*
X114451942Y-124054688D01*
D10*
X81858333Y-196259580D02*
X81810714Y-196307200D01*
X81810714Y-196307200D02*
X81667857Y-196354819D01*
X81667857Y-196354819D02*
X81572619Y-196354819D01*
X81572619Y-196354819D02*
X81429762Y-196307200D01*
X81429762Y-196307200D02*
X81334524Y-196211961D01*
X81334524Y-196211961D02*
X81286905Y-196116723D01*
X81286905Y-196116723D02*
X81239286Y-195926247D01*
X81239286Y-195926247D02*
X81239286Y-195783390D01*
X81239286Y-195783390D02*
X81286905Y-195592914D01*
X81286905Y-195592914D02*
X81334524Y-195497676D01*
X81334524Y-195497676D02*
X81429762Y-195402438D01*
X81429762Y-195402438D02*
X81572619Y-195354819D01*
X81572619Y-195354819D02*
X81667857Y-195354819D01*
X81667857Y-195354819D02*
X81810714Y-195402438D01*
X81810714Y-195402438D02*
X81858333Y-195450057D01*
X82191667Y-195354819D02*
X82810714Y-195354819D01*
X82810714Y-195354819D02*
X82477381Y-195735771D01*
X82477381Y-195735771D02*
X82620238Y-195735771D01*
X82620238Y-195735771D02*
X82715476Y-195783390D01*
X82715476Y-195783390D02*
X82763095Y-195831009D01*
X82763095Y-195831009D02*
X82810714Y-195926247D01*
X82810714Y-195926247D02*
X82810714Y-196164342D01*
X82810714Y-196164342D02*
X82763095Y-196259580D01*
X82763095Y-196259580D02*
X82715476Y-196307200D01*
X82715476Y-196307200D02*
X82620238Y-196354819D01*
X82620238Y-196354819D02*
X82334524Y-196354819D01*
X82334524Y-196354819D02*
X82239286Y-196307200D01*
X82239286Y-196307200D02*
X82191667Y-196259580D01*
X82289580Y-188666666D02*
X82337200Y-188714285D01*
X82337200Y-188714285D02*
X82384819Y-188857142D01*
X82384819Y-188857142D02*
X82384819Y-188952380D01*
X82384819Y-188952380D02*
X82337200Y-189095237D01*
X82337200Y-189095237D02*
X82241961Y-189190475D01*
X82241961Y-189190475D02*
X82146723Y-189238094D01*
X82146723Y-189238094D02*
X81956247Y-189285713D01*
X81956247Y-189285713D02*
X81813390Y-189285713D01*
X81813390Y-189285713D02*
X81622914Y-189238094D01*
X81622914Y-189238094D02*
X81527676Y-189190475D01*
X81527676Y-189190475D02*
X81432438Y-189095237D01*
X81432438Y-189095237D02*
X81384819Y-188952380D01*
X81384819Y-188952380D02*
X81384819Y-188857142D01*
X81384819Y-188857142D02*
X81432438Y-188714285D01*
X81432438Y-188714285D02*
X81480057Y-188666666D01*
X81718152Y-187809523D02*
X82384819Y-187809523D01*
X81337200Y-188047618D02*
X82051485Y-188285713D01*
X82051485Y-188285713D02*
X82051485Y-187666666D01*
X71854819Y-109938094D02*
X70854819Y-109938094D01*
X70854819Y-109938094D02*
X70854819Y-109699999D01*
X70854819Y-109699999D02*
X70902438Y-109557142D01*
X70902438Y-109557142D02*
X70997676Y-109461904D01*
X70997676Y-109461904D02*
X71092914Y-109414285D01*
X71092914Y-109414285D02*
X71283390Y-109366666D01*
X71283390Y-109366666D02*
X71426247Y-109366666D01*
X71426247Y-109366666D02*
X71616723Y-109414285D01*
X71616723Y-109414285D02*
X71711961Y-109461904D01*
X71711961Y-109461904D02*
X71807200Y-109557142D01*
X71807200Y-109557142D02*
X71854819Y-109699999D01*
X71854819Y-109699999D02*
X71854819Y-109938094D01*
X71854819Y-108414285D02*
X71854819Y-108985713D01*
X71854819Y-108699999D02*
X70854819Y-108699999D01*
X70854819Y-108699999D02*
X70997676Y-108795237D01*
X70997676Y-108795237D02*
X71092914Y-108890475D01*
X71092914Y-108890475D02*
X71140533Y-108985713D01*
X96961905Y-198854819D02*
X96961905Y-197854819D01*
X96961905Y-197854819D02*
X97200000Y-197854819D01*
X97200000Y-197854819D02*
X97342857Y-197902438D01*
X97342857Y-197902438D02*
X97438095Y-197997676D01*
X97438095Y-197997676D02*
X97485714Y-198092914D01*
X97485714Y-198092914D02*
X97533333Y-198283390D01*
X97533333Y-198283390D02*
X97533333Y-198426247D01*
X97533333Y-198426247D02*
X97485714Y-198616723D01*
X97485714Y-198616723D02*
X97438095Y-198711961D01*
X97438095Y-198711961D02*
X97342857Y-198807200D01*
X97342857Y-198807200D02*
X97200000Y-198854819D01*
X97200000Y-198854819D02*
X96961905Y-198854819D01*
X97866667Y-197854819D02*
X98485714Y-197854819D01*
X98485714Y-197854819D02*
X98152381Y-198235771D01*
X98152381Y-198235771D02*
X98295238Y-198235771D01*
X98295238Y-198235771D02*
X98390476Y-198283390D01*
X98390476Y-198283390D02*
X98438095Y-198331009D01*
X98438095Y-198331009D02*
X98485714Y-198426247D01*
X98485714Y-198426247D02*
X98485714Y-198664342D01*
X98485714Y-198664342D02*
X98438095Y-198759580D01*
X98438095Y-198759580D02*
X98390476Y-198807200D01*
X98390476Y-198807200D02*
X98295238Y-198854819D01*
X98295238Y-198854819D02*
X98009524Y-198854819D01*
X98009524Y-198854819D02*
X97914286Y-198807200D01*
X97914286Y-198807200D02*
X97866667Y-198759580D01*
X68266666Y-141964819D02*
X68266666Y-142679104D01*
X68266666Y-142679104D02*
X68219047Y-142821961D01*
X68219047Y-142821961D02*
X68123809Y-142917200D01*
X68123809Y-142917200D02*
X67980952Y-142964819D01*
X67980952Y-142964819D02*
X67885714Y-142964819D01*
X68695238Y-142060057D02*
X68742857Y-142012438D01*
X68742857Y-142012438D02*
X68838095Y-141964819D01*
X68838095Y-141964819D02*
X69076190Y-141964819D01*
X69076190Y-141964819D02*
X69171428Y-142012438D01*
X69171428Y-142012438D02*
X69219047Y-142060057D01*
X69219047Y-142060057D02*
X69266666Y-142155295D01*
X69266666Y-142155295D02*
X69266666Y-142250533D01*
X69266666Y-142250533D02*
X69219047Y-142393390D01*
X69219047Y-142393390D02*
X68647619Y-142964819D01*
X68647619Y-142964819D02*
X69266666Y-142964819D01*
X107416666Y-150004819D02*
X107416666Y-150719104D01*
X107416666Y-150719104D02*
X107369047Y-150861961D01*
X107369047Y-150861961D02*
X107273809Y-150957200D01*
X107273809Y-150957200D02*
X107130952Y-151004819D01*
X107130952Y-151004819D02*
X107035714Y-151004819D01*
X107892857Y-151004819D02*
X107892857Y-150004819D01*
X107892857Y-150004819D02*
X108273809Y-150004819D01*
X108273809Y-150004819D02*
X108369047Y-150052438D01*
X108369047Y-150052438D02*
X108416666Y-150100057D01*
X108416666Y-150100057D02*
X108464285Y-150195295D01*
X108464285Y-150195295D02*
X108464285Y-150338152D01*
X108464285Y-150338152D02*
X108416666Y-150433390D01*
X108416666Y-150433390D02*
X108369047Y-150481009D01*
X108369047Y-150481009D02*
X108273809Y-150528628D01*
X108273809Y-150528628D02*
X107892857Y-150528628D01*
X109321428Y-150338152D02*
X109321428Y-151004819D01*
X109083333Y-149957200D02*
X108845238Y-150671485D01*
X108845238Y-150671485D02*
X109464285Y-150671485D01*
X110833333Y-180784819D02*
X110500000Y-180308628D01*
X110261905Y-180784819D02*
X110261905Y-179784819D01*
X110261905Y-179784819D02*
X110642857Y-179784819D01*
X110642857Y-179784819D02*
X110738095Y-179832438D01*
X110738095Y-179832438D02*
X110785714Y-179880057D01*
X110785714Y-179880057D02*
X110833333Y-179975295D01*
X110833333Y-179975295D02*
X110833333Y-180118152D01*
X110833333Y-180118152D02*
X110785714Y-180213390D01*
X110785714Y-180213390D02*
X110738095Y-180261009D01*
X110738095Y-180261009D02*
X110642857Y-180308628D01*
X110642857Y-180308628D02*
X110261905Y-180308628D01*
X111214286Y-179880057D02*
X111261905Y-179832438D01*
X111261905Y-179832438D02*
X111357143Y-179784819D01*
X111357143Y-179784819D02*
X111595238Y-179784819D01*
X111595238Y-179784819D02*
X111690476Y-179832438D01*
X111690476Y-179832438D02*
X111738095Y-179880057D01*
X111738095Y-179880057D02*
X111785714Y-179975295D01*
X111785714Y-179975295D02*
X111785714Y-180070533D01*
X111785714Y-180070533D02*
X111738095Y-180213390D01*
X111738095Y-180213390D02*
X111166667Y-180784819D01*
X111166667Y-180784819D02*
X111785714Y-180784819D01*
X110833333Y-177884819D02*
X110500000Y-177408628D01*
X110261905Y-177884819D02*
X110261905Y-176884819D01*
X110261905Y-176884819D02*
X110642857Y-176884819D01*
X110642857Y-176884819D02*
X110738095Y-176932438D01*
X110738095Y-176932438D02*
X110785714Y-176980057D01*
X110785714Y-176980057D02*
X110833333Y-177075295D01*
X110833333Y-177075295D02*
X110833333Y-177218152D01*
X110833333Y-177218152D02*
X110785714Y-177313390D01*
X110785714Y-177313390D02*
X110738095Y-177361009D01*
X110738095Y-177361009D02*
X110642857Y-177408628D01*
X110642857Y-177408628D02*
X110261905Y-177408628D01*
X111166667Y-176884819D02*
X111785714Y-176884819D01*
X111785714Y-176884819D02*
X111452381Y-177265771D01*
X111452381Y-177265771D02*
X111595238Y-177265771D01*
X111595238Y-177265771D02*
X111690476Y-177313390D01*
X111690476Y-177313390D02*
X111738095Y-177361009D01*
X111738095Y-177361009D02*
X111785714Y-177456247D01*
X111785714Y-177456247D02*
X111785714Y-177694342D01*
X111785714Y-177694342D02*
X111738095Y-177789580D01*
X111738095Y-177789580D02*
X111690476Y-177837200D01*
X111690476Y-177837200D02*
X111595238Y-177884819D01*
X111595238Y-177884819D02*
X111309524Y-177884819D01*
X111309524Y-177884819D02*
X111214286Y-177837200D01*
X111214286Y-177837200D02*
X111166667Y-177789580D01*
X88333333Y-190524819D02*
X88000000Y-190048628D01*
X87761905Y-190524819D02*
X87761905Y-189524819D01*
X87761905Y-189524819D02*
X88142857Y-189524819D01*
X88142857Y-189524819D02*
X88238095Y-189572438D01*
X88238095Y-189572438D02*
X88285714Y-189620057D01*
X88285714Y-189620057D02*
X88333333Y-189715295D01*
X88333333Y-189715295D02*
X88333333Y-189858152D01*
X88333333Y-189858152D02*
X88285714Y-189953390D01*
X88285714Y-189953390D02*
X88238095Y-190001009D01*
X88238095Y-190001009D02*
X88142857Y-190048628D01*
X88142857Y-190048628D02*
X87761905Y-190048628D01*
X89285714Y-190524819D02*
X88714286Y-190524819D01*
X89000000Y-190524819D02*
X89000000Y-189524819D01*
X89000000Y-189524819D02*
X88904762Y-189667676D01*
X88904762Y-189667676D02*
X88809524Y-189762914D01*
X88809524Y-189762914D02*
X88714286Y-189810533D01*
X97257142Y-191354819D02*
X96923809Y-190878628D01*
X96685714Y-191354819D02*
X96685714Y-190354819D01*
X96685714Y-190354819D02*
X97066666Y-190354819D01*
X97066666Y-190354819D02*
X97161904Y-190402438D01*
X97161904Y-190402438D02*
X97209523Y-190450057D01*
X97209523Y-190450057D02*
X97257142Y-190545295D01*
X97257142Y-190545295D02*
X97257142Y-190688152D01*
X97257142Y-190688152D02*
X97209523Y-190783390D01*
X97209523Y-190783390D02*
X97161904Y-190831009D01*
X97161904Y-190831009D02*
X97066666Y-190878628D01*
X97066666Y-190878628D02*
X96685714Y-190878628D01*
X98209523Y-191354819D02*
X97638095Y-191354819D01*
X97923809Y-191354819D02*
X97923809Y-190354819D01*
X97923809Y-190354819D02*
X97828571Y-190497676D01*
X97828571Y-190497676D02*
X97733333Y-190592914D01*
X97733333Y-190592914D02*
X97638095Y-190640533D01*
X99114285Y-190354819D02*
X98638095Y-190354819D01*
X98638095Y-190354819D02*
X98590476Y-190831009D01*
X98590476Y-190831009D02*
X98638095Y-190783390D01*
X98638095Y-190783390D02*
X98733333Y-190735771D01*
X98733333Y-190735771D02*
X98971428Y-190735771D01*
X98971428Y-190735771D02*
X99066666Y-190783390D01*
X99066666Y-190783390D02*
X99114285Y-190831009D01*
X99114285Y-190831009D02*
X99161904Y-190926247D01*
X99161904Y-190926247D02*
X99161904Y-191164342D01*
X99161904Y-191164342D02*
X99114285Y-191259580D01*
X99114285Y-191259580D02*
X99066666Y-191307200D01*
X99066666Y-191307200D02*
X98971428Y-191354819D01*
X98971428Y-191354819D02*
X98733333Y-191354819D01*
X98733333Y-191354819D02*
X98638095Y-191307200D01*
X98638095Y-191307200D02*
X98590476Y-191259580D01*
X110833333Y-175054819D02*
X110500000Y-174578628D01*
X110261905Y-175054819D02*
X110261905Y-174054819D01*
X110261905Y-174054819D02*
X110642857Y-174054819D01*
X110642857Y-174054819D02*
X110738095Y-174102438D01*
X110738095Y-174102438D02*
X110785714Y-174150057D01*
X110785714Y-174150057D02*
X110833333Y-174245295D01*
X110833333Y-174245295D02*
X110833333Y-174388152D01*
X110833333Y-174388152D02*
X110785714Y-174483390D01*
X110785714Y-174483390D02*
X110738095Y-174531009D01*
X110738095Y-174531009D02*
X110642857Y-174578628D01*
X110642857Y-174578628D02*
X110261905Y-174578628D01*
X111166667Y-174054819D02*
X111833333Y-174054819D01*
X111833333Y-174054819D02*
X111404762Y-175054819D01*
X107157142Y-155384819D02*
X106823809Y-154908628D01*
X106585714Y-155384819D02*
X106585714Y-154384819D01*
X106585714Y-154384819D02*
X106966666Y-154384819D01*
X106966666Y-154384819D02*
X107061904Y-154432438D01*
X107061904Y-154432438D02*
X107109523Y-154480057D01*
X107109523Y-154480057D02*
X107157142Y-154575295D01*
X107157142Y-154575295D02*
X107157142Y-154718152D01*
X107157142Y-154718152D02*
X107109523Y-154813390D01*
X107109523Y-154813390D02*
X107061904Y-154861009D01*
X107061904Y-154861009D02*
X106966666Y-154908628D01*
X106966666Y-154908628D02*
X106585714Y-154908628D01*
X108109523Y-155384819D02*
X107538095Y-155384819D01*
X107823809Y-155384819D02*
X107823809Y-154384819D01*
X107823809Y-154384819D02*
X107728571Y-154527676D01*
X107728571Y-154527676D02*
X107633333Y-154622914D01*
X107633333Y-154622914D02*
X107538095Y-154670533D01*
X108442857Y-154384819D02*
X109109523Y-154384819D01*
X109109523Y-154384819D02*
X108680952Y-155384819D01*
X99288095Y-98654819D02*
X99288095Y-99464342D01*
X99288095Y-99464342D02*
X99335714Y-99559580D01*
X99335714Y-99559580D02*
X99383333Y-99607200D01*
X99383333Y-99607200D02*
X99478571Y-99654819D01*
X99478571Y-99654819D02*
X99669047Y-99654819D01*
X99669047Y-99654819D02*
X99764285Y-99607200D01*
X99764285Y-99607200D02*
X99811904Y-99559580D01*
X99811904Y-99559580D02*
X99859523Y-99464342D01*
X99859523Y-99464342D02*
X99859523Y-98654819D01*
X100288095Y-98750057D02*
X100335714Y-98702438D01*
X100335714Y-98702438D02*
X100430952Y-98654819D01*
X100430952Y-98654819D02*
X100669047Y-98654819D01*
X100669047Y-98654819D02*
X100764285Y-98702438D01*
X100764285Y-98702438D02*
X100811904Y-98750057D01*
X100811904Y-98750057D02*
X100859523Y-98845295D01*
X100859523Y-98845295D02*
X100859523Y-98940533D01*
X100859523Y-98940533D02*
X100811904Y-99083390D01*
X100811904Y-99083390D02*
X100240476Y-99654819D01*
X100240476Y-99654819D02*
X100859523Y-99654819D01*
X69954819Y-176261904D02*
X70764342Y-176261904D01*
X70764342Y-176261904D02*
X70859580Y-176214285D01*
X70859580Y-176214285D02*
X70907200Y-176166666D01*
X70907200Y-176166666D02*
X70954819Y-176071428D01*
X70954819Y-176071428D02*
X70954819Y-175880952D01*
X70954819Y-175880952D02*
X70907200Y-175785714D01*
X70907200Y-175785714D02*
X70859580Y-175738095D01*
X70859580Y-175738095D02*
X70764342Y-175690476D01*
X70764342Y-175690476D02*
X69954819Y-175690476D01*
X70954819Y-174690476D02*
X70954819Y-175261904D01*
X70954819Y-174976190D02*
X69954819Y-174976190D01*
X69954819Y-174976190D02*
X70097676Y-175071428D01*
X70097676Y-175071428D02*
X70192914Y-175166666D01*
X70192914Y-175166666D02*
X70240533Y-175261904D01*
X85289580Y-188666666D02*
X85337200Y-188714285D01*
X85337200Y-188714285D02*
X85384819Y-188857142D01*
X85384819Y-188857142D02*
X85384819Y-188952380D01*
X85384819Y-188952380D02*
X85337200Y-189095237D01*
X85337200Y-189095237D02*
X85241961Y-189190475D01*
X85241961Y-189190475D02*
X85146723Y-189238094D01*
X85146723Y-189238094D02*
X84956247Y-189285713D01*
X84956247Y-189285713D02*
X84813390Y-189285713D01*
X84813390Y-189285713D02*
X84622914Y-189238094D01*
X84622914Y-189238094D02*
X84527676Y-189190475D01*
X84527676Y-189190475D02*
X84432438Y-189095237D01*
X84432438Y-189095237D02*
X84384819Y-188952380D01*
X84384819Y-188952380D02*
X84384819Y-188857142D01*
X84384819Y-188857142D02*
X84432438Y-188714285D01*
X84432438Y-188714285D02*
X84480057Y-188666666D01*
X84384819Y-187761904D02*
X84384819Y-188238094D01*
X84384819Y-188238094D02*
X84861009Y-188285713D01*
X84861009Y-188285713D02*
X84813390Y-188238094D01*
X84813390Y-188238094D02*
X84765771Y-188142856D01*
X84765771Y-188142856D02*
X84765771Y-187904761D01*
X84765771Y-187904761D02*
X84813390Y-187809523D01*
X84813390Y-187809523D02*
X84861009Y-187761904D01*
X84861009Y-187761904D02*
X84956247Y-187714285D01*
X84956247Y-187714285D02*
X85194342Y-187714285D01*
X85194342Y-187714285D02*
X85289580Y-187761904D01*
X85289580Y-187761904D02*
X85337200Y-187809523D01*
X85337200Y-187809523D02*
X85384819Y-187904761D01*
X85384819Y-187904761D02*
X85384819Y-188142856D01*
X85384819Y-188142856D02*
X85337200Y-188238094D01*
X85337200Y-188238094D02*
X85289580Y-188285713D01*
X77879047Y-135431009D02*
X78021904Y-135478628D01*
X78021904Y-135478628D02*
X78069523Y-135526247D01*
X78069523Y-135526247D02*
X78117142Y-135621485D01*
X78117142Y-135621485D02*
X78117142Y-135764342D01*
X78117142Y-135764342D02*
X78069523Y-135859580D01*
X78069523Y-135859580D02*
X78021904Y-135907200D01*
X78021904Y-135907200D02*
X77926666Y-135954819D01*
X77926666Y-135954819D02*
X77545714Y-135954819D01*
X77545714Y-135954819D02*
X77545714Y-134954819D01*
X77545714Y-134954819D02*
X77879047Y-134954819D01*
X77879047Y-134954819D02*
X77974285Y-135002438D01*
X77974285Y-135002438D02*
X78021904Y-135050057D01*
X78021904Y-135050057D02*
X78069523Y-135145295D01*
X78069523Y-135145295D02*
X78069523Y-135240533D01*
X78069523Y-135240533D02*
X78021904Y-135335771D01*
X78021904Y-135335771D02*
X77974285Y-135383390D01*
X77974285Y-135383390D02*
X77879047Y-135431009D01*
X77879047Y-135431009D02*
X77545714Y-135431009D01*
X78450476Y-134954819D02*
X79117142Y-134954819D01*
X79117142Y-134954819D02*
X78450476Y-135954819D01*
X78450476Y-135954819D02*
X79117142Y-135954819D01*
X80021904Y-135954819D02*
X79450476Y-135954819D01*
X79736190Y-135954819D02*
X79736190Y-134954819D01*
X79736190Y-134954819D02*
X79640952Y-135097676D01*
X79640952Y-135097676D02*
X79545714Y-135192914D01*
X79545714Y-135192914D02*
X79450476Y-135240533D01*
X82179048Y-130373866D02*
X82940953Y-130373866D01*
X82560000Y-130754819D02*
X82560000Y-129992914D01*
X113934285Y-224231009D02*
X114077142Y-224278628D01*
X114077142Y-224278628D02*
X114124761Y-224326247D01*
X114124761Y-224326247D02*
X114172380Y-224421485D01*
X114172380Y-224421485D02*
X114172380Y-224564342D01*
X114172380Y-224564342D02*
X114124761Y-224659580D01*
X114124761Y-224659580D02*
X114077142Y-224707200D01*
X114077142Y-224707200D02*
X113981904Y-224754819D01*
X113981904Y-224754819D02*
X113600952Y-224754819D01*
X113600952Y-224754819D02*
X113600952Y-223754819D01*
X113600952Y-223754819D02*
X113934285Y-223754819D01*
X113934285Y-223754819D02*
X114029523Y-223802438D01*
X114029523Y-223802438D02*
X114077142Y-223850057D01*
X114077142Y-223850057D02*
X114124761Y-223945295D01*
X114124761Y-223945295D02*
X114124761Y-224040533D01*
X114124761Y-224040533D02*
X114077142Y-224135771D01*
X114077142Y-224135771D02*
X114029523Y-224183390D01*
X114029523Y-224183390D02*
X113934285Y-224231009D01*
X113934285Y-224231009D02*
X113600952Y-224231009D01*
X114458095Y-223754819D02*
X115029523Y-223754819D01*
X114743809Y-224754819D02*
X114743809Y-223754819D01*
X115886666Y-224754819D02*
X115315238Y-224754819D01*
X115600952Y-224754819D02*
X115600952Y-223754819D01*
X115600952Y-223754819D02*
X115505714Y-223897676D01*
X115505714Y-223897676D02*
X115410476Y-223992914D01*
X115410476Y-223992914D02*
X115315238Y-224040533D01*
X126407200Y-117333332D02*
X126454819Y-117190475D01*
X126454819Y-117190475D02*
X126454819Y-116952380D01*
X126454819Y-116952380D02*
X126407200Y-116857142D01*
X126407200Y-116857142D02*
X126359580Y-116809523D01*
X126359580Y-116809523D02*
X126264342Y-116761904D01*
X126264342Y-116761904D02*
X126169104Y-116761904D01*
X126169104Y-116761904D02*
X126073866Y-116809523D01*
X126073866Y-116809523D02*
X126026247Y-116857142D01*
X126026247Y-116857142D02*
X125978628Y-116952380D01*
X125978628Y-116952380D02*
X125931009Y-117142856D01*
X125931009Y-117142856D02*
X125883390Y-117238094D01*
X125883390Y-117238094D02*
X125835771Y-117285713D01*
X125835771Y-117285713D02*
X125740533Y-117333332D01*
X125740533Y-117333332D02*
X125645295Y-117333332D01*
X125645295Y-117333332D02*
X125550057Y-117285713D01*
X125550057Y-117285713D02*
X125502438Y-117238094D01*
X125502438Y-117238094D02*
X125454819Y-117142856D01*
X125454819Y-117142856D02*
X125454819Y-116904761D01*
X125454819Y-116904761D02*
X125502438Y-116761904D01*
X125454819Y-116428570D02*
X126454819Y-116190475D01*
X126454819Y-116190475D02*
X125740533Y-115999999D01*
X125740533Y-115999999D02*
X126454819Y-115809523D01*
X126454819Y-115809523D02*
X125454819Y-115571428D01*
X125550057Y-115238094D02*
X125502438Y-115190475D01*
X125502438Y-115190475D02*
X125454819Y-115095237D01*
X125454819Y-115095237D02*
X125454819Y-114857142D01*
X125454819Y-114857142D02*
X125502438Y-114761904D01*
X125502438Y-114761904D02*
X125550057Y-114714285D01*
X125550057Y-114714285D02*
X125645295Y-114666666D01*
X125645295Y-114666666D02*
X125740533Y-114666666D01*
X125740533Y-114666666D02*
X125883390Y-114714285D01*
X125883390Y-114714285D02*
X126454819Y-115285713D01*
X126454819Y-115285713D02*
X126454819Y-114666666D01*
X119190476Y-161124819D02*
X119190476Y-161839104D01*
X119190476Y-161839104D02*
X119142857Y-161981961D01*
X119142857Y-161981961D02*
X119047619Y-162077200D01*
X119047619Y-162077200D02*
X118904762Y-162124819D01*
X118904762Y-162124819D02*
X118809524Y-162124819D01*
X120190476Y-162124819D02*
X119619048Y-162124819D01*
X119904762Y-162124819D02*
X119904762Y-161124819D01*
X119904762Y-161124819D02*
X119809524Y-161267676D01*
X119809524Y-161267676D02*
X119714286Y-161362914D01*
X119714286Y-161362914D02*
X119619048Y-161410533D01*
X120523810Y-161124819D02*
X121142857Y-161124819D01*
X121142857Y-161124819D02*
X120809524Y-161505771D01*
X120809524Y-161505771D02*
X120952381Y-161505771D01*
X120952381Y-161505771D02*
X121047619Y-161553390D01*
X121047619Y-161553390D02*
X121095238Y-161601009D01*
X121095238Y-161601009D02*
X121142857Y-161696247D01*
X121142857Y-161696247D02*
X121142857Y-161934342D01*
X121142857Y-161934342D02*
X121095238Y-162029580D01*
X121095238Y-162029580D02*
X121047619Y-162077200D01*
X121047619Y-162077200D02*
X120952381Y-162124819D01*
X120952381Y-162124819D02*
X120666667Y-162124819D01*
X120666667Y-162124819D02*
X120571429Y-162077200D01*
X120571429Y-162077200D02*
X120523810Y-162029580D01*
X110808333Y-172154819D02*
X110475000Y-171678628D01*
X110236905Y-172154819D02*
X110236905Y-171154819D01*
X110236905Y-171154819D02*
X110617857Y-171154819D01*
X110617857Y-171154819D02*
X110713095Y-171202438D01*
X110713095Y-171202438D02*
X110760714Y-171250057D01*
X110760714Y-171250057D02*
X110808333Y-171345295D01*
X110808333Y-171345295D02*
X110808333Y-171488152D01*
X110808333Y-171488152D02*
X110760714Y-171583390D01*
X110760714Y-171583390D02*
X110713095Y-171631009D01*
X110713095Y-171631009D02*
X110617857Y-171678628D01*
X110617857Y-171678628D02*
X110236905Y-171678628D01*
X111665476Y-171154819D02*
X111475000Y-171154819D01*
X111475000Y-171154819D02*
X111379762Y-171202438D01*
X111379762Y-171202438D02*
X111332143Y-171250057D01*
X111332143Y-171250057D02*
X111236905Y-171392914D01*
X111236905Y-171392914D02*
X111189286Y-171583390D01*
X111189286Y-171583390D02*
X111189286Y-171964342D01*
X111189286Y-171964342D02*
X111236905Y-172059580D01*
X111236905Y-172059580D02*
X111284524Y-172107200D01*
X111284524Y-172107200D02*
X111379762Y-172154819D01*
X111379762Y-172154819D02*
X111570238Y-172154819D01*
X111570238Y-172154819D02*
X111665476Y-172107200D01*
X111665476Y-172107200D02*
X111713095Y-172059580D01*
X111713095Y-172059580D02*
X111760714Y-171964342D01*
X111760714Y-171964342D02*
X111760714Y-171726247D01*
X111760714Y-171726247D02*
X111713095Y-171631009D01*
X111713095Y-171631009D02*
X111665476Y-171583390D01*
X111665476Y-171583390D02*
X111570238Y-171535771D01*
X111570238Y-171535771D02*
X111379762Y-171535771D01*
X111379762Y-171535771D02*
X111284524Y-171583390D01*
X111284524Y-171583390D02*
X111236905Y-171631009D01*
X111236905Y-171631009D02*
X111189286Y-171726247D01*
X110904819Y-228833333D02*
X111619104Y-228833333D01*
X111619104Y-228833333D02*
X111761961Y-228880952D01*
X111761961Y-228880952D02*
X111857200Y-228976190D01*
X111857200Y-228976190D02*
X111904819Y-229119047D01*
X111904819Y-229119047D02*
X111904819Y-229214285D01*
X110904819Y-228452380D02*
X110904819Y-227785714D01*
X110904819Y-227785714D02*
X111904819Y-228214285D01*
X70430476Y-216794819D02*
X70430476Y-217509104D01*
X70430476Y-217509104D02*
X70382857Y-217651961D01*
X70382857Y-217651961D02*
X70287619Y-217747200D01*
X70287619Y-217747200D02*
X70144762Y-217794819D01*
X70144762Y-217794819D02*
X70049524Y-217794819D01*
X71430476Y-217794819D02*
X70859048Y-217794819D01*
X71144762Y-217794819D02*
X71144762Y-216794819D01*
X71144762Y-216794819D02*
X71049524Y-216937676D01*
X71049524Y-216937676D02*
X70954286Y-217032914D01*
X70954286Y-217032914D02*
X70859048Y-217080533D01*
X71811429Y-216890057D02*
X71859048Y-216842438D01*
X71859048Y-216842438D02*
X71954286Y-216794819D01*
X71954286Y-216794819D02*
X72192381Y-216794819D01*
X72192381Y-216794819D02*
X72287619Y-216842438D01*
X72287619Y-216842438D02*
X72335238Y-216890057D01*
X72335238Y-216890057D02*
X72382857Y-216985295D01*
X72382857Y-216985295D02*
X72382857Y-217080533D01*
X72382857Y-217080533D02*
X72335238Y-217223390D01*
X72335238Y-217223390D02*
X71763810Y-217794819D01*
X71763810Y-217794819D02*
X72382857Y-217794819D01*
X110784819Y-113309523D02*
X111499104Y-113309523D01*
X111499104Y-113309523D02*
X111641961Y-113357142D01*
X111641961Y-113357142D02*
X111737200Y-113452380D01*
X111737200Y-113452380D02*
X111784819Y-113595237D01*
X111784819Y-113595237D02*
X111784819Y-113690475D01*
X111784819Y-112309523D02*
X111784819Y-112880951D01*
X111784819Y-112595237D02*
X110784819Y-112595237D01*
X110784819Y-112595237D02*
X110927676Y-112690475D01*
X110927676Y-112690475D02*
X111022914Y-112785713D01*
X111022914Y-112785713D02*
X111070533Y-112880951D01*
X111784819Y-111357142D02*
X111784819Y-111928570D01*
X111784819Y-111642856D02*
X110784819Y-111642856D01*
X110784819Y-111642856D02*
X110927676Y-111738094D01*
X110927676Y-111738094D02*
X111022914Y-111833332D01*
X111022914Y-111833332D02*
X111070533Y-111928570D01*
X111344819Y-220953333D02*
X112059104Y-220953333D01*
X112059104Y-220953333D02*
X112201961Y-221000952D01*
X112201961Y-221000952D02*
X112297200Y-221096190D01*
X112297200Y-221096190D02*
X112344819Y-221239047D01*
X112344819Y-221239047D02*
X112344819Y-221334285D01*
X112344819Y-220429523D02*
X112344819Y-220239047D01*
X112344819Y-220239047D02*
X112297200Y-220143809D01*
X112297200Y-220143809D02*
X112249580Y-220096190D01*
X112249580Y-220096190D02*
X112106723Y-220000952D01*
X112106723Y-220000952D02*
X111916247Y-219953333D01*
X111916247Y-219953333D02*
X111535295Y-219953333D01*
X111535295Y-219953333D02*
X111440057Y-220000952D01*
X111440057Y-220000952D02*
X111392438Y-220048571D01*
X111392438Y-220048571D02*
X111344819Y-220143809D01*
X111344819Y-220143809D02*
X111344819Y-220334285D01*
X111344819Y-220334285D02*
X111392438Y-220429523D01*
X111392438Y-220429523D02*
X111440057Y-220477142D01*
X111440057Y-220477142D02*
X111535295Y-220524761D01*
X111535295Y-220524761D02*
X111773390Y-220524761D01*
X111773390Y-220524761D02*
X111868628Y-220477142D01*
X111868628Y-220477142D02*
X111916247Y-220429523D01*
X111916247Y-220429523D02*
X111963866Y-220334285D01*
X111963866Y-220334285D02*
X111963866Y-220143809D01*
X111963866Y-220143809D02*
X111916247Y-220048571D01*
X111916247Y-220048571D02*
X111868628Y-220000952D01*
X111868628Y-220000952D02*
X111773390Y-219953333D01*
X79457142Y-108454819D02*
X79123809Y-107978628D01*
X78885714Y-108454819D02*
X78885714Y-107454819D01*
X78885714Y-107454819D02*
X79266666Y-107454819D01*
X79266666Y-107454819D02*
X79361904Y-107502438D01*
X79361904Y-107502438D02*
X79409523Y-107550057D01*
X79409523Y-107550057D02*
X79457142Y-107645295D01*
X79457142Y-107645295D02*
X79457142Y-107788152D01*
X79457142Y-107788152D02*
X79409523Y-107883390D01*
X79409523Y-107883390D02*
X79361904Y-107931009D01*
X79361904Y-107931009D02*
X79266666Y-107978628D01*
X79266666Y-107978628D02*
X78885714Y-107978628D01*
X80409523Y-108454819D02*
X79838095Y-108454819D01*
X80123809Y-108454819D02*
X80123809Y-107454819D01*
X80123809Y-107454819D02*
X80028571Y-107597676D01*
X80028571Y-107597676D02*
X79933333Y-107692914D01*
X79933333Y-107692914D02*
X79838095Y-107740533D01*
X81266666Y-107454819D02*
X81076190Y-107454819D01*
X81076190Y-107454819D02*
X80980952Y-107502438D01*
X80980952Y-107502438D02*
X80933333Y-107550057D01*
X80933333Y-107550057D02*
X80838095Y-107692914D01*
X80838095Y-107692914D02*
X80790476Y-107883390D01*
X80790476Y-107883390D02*
X80790476Y-108264342D01*
X80790476Y-108264342D02*
X80838095Y-108359580D01*
X80838095Y-108359580D02*
X80885714Y-108407200D01*
X80885714Y-108407200D02*
X80980952Y-108454819D01*
X80980952Y-108454819D02*
X81171428Y-108454819D01*
X81171428Y-108454819D02*
X81266666Y-108407200D01*
X81266666Y-108407200D02*
X81314285Y-108359580D01*
X81314285Y-108359580D02*
X81361904Y-108264342D01*
X81361904Y-108264342D02*
X81361904Y-108026247D01*
X81361904Y-108026247D02*
X81314285Y-107931009D01*
X81314285Y-107931009D02*
X81266666Y-107883390D01*
X81266666Y-107883390D02*
X81171428Y-107835771D01*
X81171428Y-107835771D02*
X80980952Y-107835771D01*
X80980952Y-107835771D02*
X80885714Y-107883390D01*
X80885714Y-107883390D02*
X80838095Y-107931009D01*
X80838095Y-107931009D02*
X80790476Y-108026247D01*
X82061905Y-107480057D02*
X82109524Y-107432438D01*
X82109524Y-107432438D02*
X82204762Y-107384819D01*
X82204762Y-107384819D02*
X82442857Y-107384819D01*
X82442857Y-107384819D02*
X82538095Y-107432438D01*
X82538095Y-107432438D02*
X82585714Y-107480057D01*
X82585714Y-107480057D02*
X82633333Y-107575295D01*
X82633333Y-107575295D02*
X82633333Y-107670533D01*
X82633333Y-107670533D02*
X82585714Y-107813390D01*
X82585714Y-107813390D02*
X82014286Y-108384819D01*
X82014286Y-108384819D02*
X82633333Y-108384819D01*
X82966667Y-107384819D02*
X83633333Y-107384819D01*
X83633333Y-107384819D02*
X83204762Y-108384819D01*
X84204762Y-107384819D02*
X84300000Y-107384819D01*
X84300000Y-107384819D02*
X84395238Y-107432438D01*
X84395238Y-107432438D02*
X84442857Y-107480057D01*
X84442857Y-107480057D02*
X84490476Y-107575295D01*
X84490476Y-107575295D02*
X84538095Y-107765771D01*
X84538095Y-107765771D02*
X84538095Y-108003866D01*
X84538095Y-108003866D02*
X84490476Y-108194342D01*
X84490476Y-108194342D02*
X84442857Y-108289580D01*
X84442857Y-108289580D02*
X84395238Y-108337200D01*
X84395238Y-108337200D02*
X84300000Y-108384819D01*
X84300000Y-108384819D02*
X84204762Y-108384819D01*
X84204762Y-108384819D02*
X84109524Y-108337200D01*
X84109524Y-108337200D02*
X84061905Y-108289580D01*
X84061905Y-108289580D02*
X84014286Y-108194342D01*
X84014286Y-108194342D02*
X83966667Y-108003866D01*
X83966667Y-108003866D02*
X83966667Y-107765771D01*
X83966667Y-107765771D02*
X84014286Y-107575295D01*
X84014286Y-107575295D02*
X84061905Y-107480057D01*
X84061905Y-107480057D02*
X84109524Y-107432438D01*
X84109524Y-107432438D02*
X84204762Y-107384819D01*
X84966667Y-108003866D02*
X85728572Y-108003866D01*
X86728571Y-108384819D02*
X86157143Y-108384819D01*
X86442857Y-108384819D02*
X86442857Y-107384819D01*
X86442857Y-107384819D02*
X86347619Y-107527676D01*
X86347619Y-107527676D02*
X86252381Y-107622914D01*
X86252381Y-107622914D02*
X86157143Y-107670533D01*
X87157143Y-108384819D02*
X87157143Y-107384819D01*
X87252381Y-108003866D02*
X87538095Y-108384819D01*
X87538095Y-107718152D02*
X87157143Y-108099104D01*
X110108333Y-100289580D02*
X110060714Y-100337200D01*
X110060714Y-100337200D02*
X109917857Y-100384819D01*
X109917857Y-100384819D02*
X109822619Y-100384819D01*
X109822619Y-100384819D02*
X109679762Y-100337200D01*
X109679762Y-100337200D02*
X109584524Y-100241961D01*
X109584524Y-100241961D02*
X109536905Y-100146723D01*
X109536905Y-100146723D02*
X109489286Y-99956247D01*
X109489286Y-99956247D02*
X109489286Y-99813390D01*
X109489286Y-99813390D02*
X109536905Y-99622914D01*
X109536905Y-99622914D02*
X109584524Y-99527676D01*
X109584524Y-99527676D02*
X109679762Y-99432438D01*
X109679762Y-99432438D02*
X109822619Y-99384819D01*
X109822619Y-99384819D02*
X109917857Y-99384819D01*
X109917857Y-99384819D02*
X110060714Y-99432438D01*
X110060714Y-99432438D02*
X110108333Y-99480057D01*
X110584524Y-100384819D02*
X110775000Y-100384819D01*
X110775000Y-100384819D02*
X110870238Y-100337200D01*
X110870238Y-100337200D02*
X110917857Y-100289580D01*
X110917857Y-100289580D02*
X111013095Y-100146723D01*
X111013095Y-100146723D02*
X111060714Y-99956247D01*
X111060714Y-99956247D02*
X111060714Y-99575295D01*
X111060714Y-99575295D02*
X111013095Y-99480057D01*
X111013095Y-99480057D02*
X110965476Y-99432438D01*
X110965476Y-99432438D02*
X110870238Y-99384819D01*
X110870238Y-99384819D02*
X110679762Y-99384819D01*
X110679762Y-99384819D02*
X110584524Y-99432438D01*
X110584524Y-99432438D02*
X110536905Y-99480057D01*
X110536905Y-99480057D02*
X110489286Y-99575295D01*
X110489286Y-99575295D02*
X110489286Y-99813390D01*
X110489286Y-99813390D02*
X110536905Y-99908628D01*
X110536905Y-99908628D02*
X110584524Y-99956247D01*
X110584524Y-99956247D02*
X110679762Y-100003866D01*
X110679762Y-100003866D02*
X110870238Y-100003866D01*
X110870238Y-100003866D02*
X110965476Y-99956247D01*
X110965476Y-99956247D02*
X111013095Y-99908628D01*
X111013095Y-99908628D02*
X111060714Y-99813390D01*
X109203571Y-97524819D02*
X108632143Y-97524819D01*
X108917857Y-97524819D02*
X108917857Y-96524819D01*
X108917857Y-96524819D02*
X108822619Y-96667676D01*
X108822619Y-96667676D02*
X108727381Y-96762914D01*
X108727381Y-96762914D02*
X108632143Y-96810533D01*
X109822619Y-96524819D02*
X109917857Y-96524819D01*
X109917857Y-96524819D02*
X110013095Y-96572438D01*
X110013095Y-96572438D02*
X110060714Y-96620057D01*
X110060714Y-96620057D02*
X110108333Y-96715295D01*
X110108333Y-96715295D02*
X110155952Y-96905771D01*
X110155952Y-96905771D02*
X110155952Y-97143866D01*
X110155952Y-97143866D02*
X110108333Y-97334342D01*
X110108333Y-97334342D02*
X110060714Y-97429580D01*
X110060714Y-97429580D02*
X110013095Y-97477200D01*
X110013095Y-97477200D02*
X109917857Y-97524819D01*
X109917857Y-97524819D02*
X109822619Y-97524819D01*
X109822619Y-97524819D02*
X109727381Y-97477200D01*
X109727381Y-97477200D02*
X109679762Y-97429580D01*
X109679762Y-97429580D02*
X109632143Y-97334342D01*
X109632143Y-97334342D02*
X109584524Y-97143866D01*
X109584524Y-97143866D02*
X109584524Y-96905771D01*
X109584524Y-96905771D02*
X109632143Y-96715295D01*
X109632143Y-96715295D02*
X109679762Y-96620057D01*
X109679762Y-96620057D02*
X109727381Y-96572438D01*
X109727381Y-96572438D02*
X109822619Y-96524819D01*
X111013095Y-96858152D02*
X111013095Y-97524819D01*
X110584524Y-96858152D02*
X110584524Y-97381961D01*
X110584524Y-97381961D02*
X110632143Y-97477200D01*
X110632143Y-97477200D02*
X110727381Y-97524819D01*
X110727381Y-97524819D02*
X110870238Y-97524819D01*
X110870238Y-97524819D02*
X110965476Y-97477200D01*
X110965476Y-97477200D02*
X111013095Y-97429580D01*
X111822619Y-97001009D02*
X111489286Y-97001009D01*
X111489286Y-97524819D02*
X111489286Y-96524819D01*
X111489286Y-96524819D02*
X111965476Y-96524819D01*
X98646667Y-162647200D02*
X98789524Y-162694819D01*
X98789524Y-162694819D02*
X99027619Y-162694819D01*
X99027619Y-162694819D02*
X99122857Y-162647200D01*
X99122857Y-162647200D02*
X99170476Y-162599580D01*
X99170476Y-162599580D02*
X99218095Y-162504342D01*
X99218095Y-162504342D02*
X99218095Y-162409104D01*
X99218095Y-162409104D02*
X99170476Y-162313866D01*
X99170476Y-162313866D02*
X99122857Y-162266247D01*
X99122857Y-162266247D02*
X99027619Y-162218628D01*
X99027619Y-162218628D02*
X98837143Y-162171009D01*
X98837143Y-162171009D02*
X98741905Y-162123390D01*
X98741905Y-162123390D02*
X98694286Y-162075771D01*
X98694286Y-162075771D02*
X98646667Y-161980533D01*
X98646667Y-161980533D02*
X98646667Y-161885295D01*
X98646667Y-161885295D02*
X98694286Y-161790057D01*
X98694286Y-161790057D02*
X98741905Y-161742438D01*
X98741905Y-161742438D02*
X98837143Y-161694819D01*
X98837143Y-161694819D02*
X99075238Y-161694819D01*
X99075238Y-161694819D02*
X99218095Y-161742438D01*
X99551429Y-161694819D02*
X99789524Y-162694819D01*
X99789524Y-162694819D02*
X99980000Y-161980533D01*
X99980000Y-161980533D02*
X100170476Y-162694819D01*
X100170476Y-162694819D02*
X100408572Y-161694819D01*
X101218095Y-162028152D02*
X101218095Y-162694819D01*
X100980000Y-161647200D02*
X100741905Y-162361485D01*
X100741905Y-162361485D02*
X101360952Y-162361485D01*
X120647200Y-159313332D02*
X120694819Y-159170475D01*
X120694819Y-159170475D02*
X120694819Y-158932380D01*
X120694819Y-158932380D02*
X120647200Y-158837142D01*
X120647200Y-158837142D02*
X120599580Y-158789523D01*
X120599580Y-158789523D02*
X120504342Y-158741904D01*
X120504342Y-158741904D02*
X120409104Y-158741904D01*
X120409104Y-158741904D02*
X120313866Y-158789523D01*
X120313866Y-158789523D02*
X120266247Y-158837142D01*
X120266247Y-158837142D02*
X120218628Y-158932380D01*
X120218628Y-158932380D02*
X120171009Y-159122856D01*
X120171009Y-159122856D02*
X120123390Y-159218094D01*
X120123390Y-159218094D02*
X120075771Y-159265713D01*
X120075771Y-159265713D02*
X119980533Y-159313332D01*
X119980533Y-159313332D02*
X119885295Y-159313332D01*
X119885295Y-159313332D02*
X119790057Y-159265713D01*
X119790057Y-159265713D02*
X119742438Y-159218094D01*
X119742438Y-159218094D02*
X119694819Y-159122856D01*
X119694819Y-159122856D02*
X119694819Y-158884761D01*
X119694819Y-158884761D02*
X119742438Y-158741904D01*
X119694819Y-158408570D02*
X120694819Y-158170475D01*
X120694819Y-158170475D02*
X119980533Y-157979999D01*
X119980533Y-157979999D02*
X120694819Y-157789523D01*
X120694819Y-157789523D02*
X119694819Y-157551428D01*
X119694819Y-156694285D02*
X119694819Y-157170475D01*
X119694819Y-157170475D02*
X120171009Y-157218094D01*
X120171009Y-157218094D02*
X120123390Y-157170475D01*
X120123390Y-157170475D02*
X120075771Y-157075237D01*
X120075771Y-157075237D02*
X120075771Y-156837142D01*
X120075771Y-156837142D02*
X120123390Y-156741904D01*
X120123390Y-156741904D02*
X120171009Y-156694285D01*
X120171009Y-156694285D02*
X120266247Y-156646666D01*
X120266247Y-156646666D02*
X120504342Y-156646666D01*
X120504342Y-156646666D02*
X120599580Y-156694285D01*
X120599580Y-156694285D02*
X120647200Y-156741904D01*
X120647200Y-156741904D02*
X120694819Y-156837142D01*
X120694819Y-156837142D02*
X120694819Y-157075237D01*
X120694819Y-157075237D02*
X120647200Y-157170475D01*
X120647200Y-157170475D02*
X120599580Y-157218094D01*
X82666667Y-162647200D02*
X82809524Y-162694819D01*
X82809524Y-162694819D02*
X83047619Y-162694819D01*
X83047619Y-162694819D02*
X83142857Y-162647200D01*
X83142857Y-162647200D02*
X83190476Y-162599580D01*
X83190476Y-162599580D02*
X83238095Y-162504342D01*
X83238095Y-162504342D02*
X83238095Y-162409104D01*
X83238095Y-162409104D02*
X83190476Y-162313866D01*
X83190476Y-162313866D02*
X83142857Y-162266247D01*
X83142857Y-162266247D02*
X83047619Y-162218628D01*
X83047619Y-162218628D02*
X82857143Y-162171009D01*
X82857143Y-162171009D02*
X82761905Y-162123390D01*
X82761905Y-162123390D02*
X82714286Y-162075771D01*
X82714286Y-162075771D02*
X82666667Y-161980533D01*
X82666667Y-161980533D02*
X82666667Y-161885295D01*
X82666667Y-161885295D02*
X82714286Y-161790057D01*
X82714286Y-161790057D02*
X82761905Y-161742438D01*
X82761905Y-161742438D02*
X82857143Y-161694819D01*
X82857143Y-161694819D02*
X83095238Y-161694819D01*
X83095238Y-161694819D02*
X83238095Y-161742438D01*
X83571429Y-161694819D02*
X83809524Y-162694819D01*
X83809524Y-162694819D02*
X84000000Y-161980533D01*
X84000000Y-161980533D02*
X84190476Y-162694819D01*
X84190476Y-162694819D02*
X84428572Y-161694819D01*
X84714286Y-161694819D02*
X85333333Y-161694819D01*
X85333333Y-161694819D02*
X85000000Y-162075771D01*
X85000000Y-162075771D02*
X85142857Y-162075771D01*
X85142857Y-162075771D02*
X85238095Y-162123390D01*
X85238095Y-162123390D02*
X85285714Y-162171009D01*
X85285714Y-162171009D02*
X85333333Y-162266247D01*
X85333333Y-162266247D02*
X85333333Y-162504342D01*
X85333333Y-162504342D02*
X85285714Y-162599580D01*
X85285714Y-162599580D02*
X85238095Y-162647200D01*
X85238095Y-162647200D02*
X85142857Y-162694819D01*
X85142857Y-162694819D02*
X84857143Y-162694819D01*
X84857143Y-162694819D02*
X84761905Y-162647200D01*
X84761905Y-162647200D02*
X84714286Y-162599580D01*
D18*
X127611999Y-231763981D02*
X127611999Y-232852552D01*
X127611999Y-232852552D02*
X127539428Y-233070267D01*
X127539428Y-233070267D02*
X127394285Y-233215410D01*
X127394285Y-233215410D02*
X127176571Y-233287981D01*
X127176571Y-233287981D02*
X127031428Y-233287981D01*
X129135999Y-233287981D02*
X128265142Y-233287981D01*
X128700571Y-233287981D02*
X128700571Y-231763981D01*
X128700571Y-231763981D02*
X128555428Y-231981695D01*
X128555428Y-231981695D02*
X128410285Y-232126838D01*
X128410285Y-232126838D02*
X128265142Y-232199410D01*
X124201143Y-226988781D02*
X124201143Y-225464781D01*
X124201143Y-225464781D02*
X124564000Y-225464781D01*
X124564000Y-225464781D02*
X124781714Y-225537352D01*
X124781714Y-225537352D02*
X124926857Y-225682495D01*
X124926857Y-225682495D02*
X124999428Y-225827638D01*
X124999428Y-225827638D02*
X125072000Y-226117924D01*
X125072000Y-226117924D02*
X125072000Y-226335638D01*
X125072000Y-226335638D02*
X124999428Y-226625924D01*
X124999428Y-226625924D02*
X124926857Y-226771067D01*
X124926857Y-226771067D02*
X124781714Y-226916210D01*
X124781714Y-226916210D02*
X124564000Y-226988781D01*
X124564000Y-226988781D02*
X124201143Y-226988781D01*
X126596000Y-226843638D02*
X126523428Y-226916210D01*
X126523428Y-226916210D02*
X126305714Y-226988781D01*
X126305714Y-226988781D02*
X126160571Y-226988781D01*
X126160571Y-226988781D02*
X125942857Y-226916210D01*
X125942857Y-226916210D02*
X125797714Y-226771067D01*
X125797714Y-226771067D02*
X125725143Y-226625924D01*
X125725143Y-226625924D02*
X125652571Y-226335638D01*
X125652571Y-226335638D02*
X125652571Y-226117924D01*
X125652571Y-226117924D02*
X125725143Y-225827638D01*
X125725143Y-225827638D02*
X125797714Y-225682495D01*
X125797714Y-225682495D02*
X125942857Y-225537352D01*
X125942857Y-225537352D02*
X126160571Y-225464781D01*
X126160571Y-225464781D02*
X126305714Y-225464781D01*
X126305714Y-225464781D02*
X126523428Y-225537352D01*
X126523428Y-225537352D02*
X126596000Y-225609924D01*
X127684571Y-225464781D02*
X127684571Y-226553352D01*
X127684571Y-226553352D02*
X127612000Y-226771067D01*
X127612000Y-226771067D02*
X127466857Y-226916210D01*
X127466857Y-226916210D02*
X127249143Y-226988781D01*
X127249143Y-226988781D02*
X127104000Y-226988781D01*
X128337714Y-226553352D02*
X129063429Y-226553352D01*
X128192571Y-226988781D02*
X128700571Y-225464781D01*
X128700571Y-225464781D02*
X129208571Y-226988781D01*
X130587429Y-226843638D02*
X130514857Y-226916210D01*
X130514857Y-226916210D02*
X130297143Y-226988781D01*
X130297143Y-226988781D02*
X130152000Y-226988781D01*
X130152000Y-226988781D02*
X129934286Y-226916210D01*
X129934286Y-226916210D02*
X129789143Y-226771067D01*
X129789143Y-226771067D02*
X129716572Y-226625924D01*
X129716572Y-226625924D02*
X129644000Y-226335638D01*
X129644000Y-226335638D02*
X129644000Y-226117924D01*
X129644000Y-226117924D02*
X129716572Y-225827638D01*
X129716572Y-225827638D02*
X129789143Y-225682495D01*
X129789143Y-225682495D02*
X129934286Y-225537352D01*
X129934286Y-225537352D02*
X130152000Y-225464781D01*
X130152000Y-225464781D02*
X130297143Y-225464781D01*
X130297143Y-225464781D02*
X130514857Y-225537352D01*
X130514857Y-225537352D02*
X130587429Y-225609924D01*
X131240572Y-226988781D02*
X131240572Y-225464781D01*
X132111429Y-226988781D02*
X131458286Y-226117924D01*
X132111429Y-225464781D02*
X131240572Y-226335638D01*
D10*
X131532142Y-121524819D02*
X131198809Y-121048628D01*
X130960714Y-121524819D02*
X130960714Y-120524819D01*
X130960714Y-120524819D02*
X131341666Y-120524819D01*
X131341666Y-120524819D02*
X131436904Y-120572438D01*
X131436904Y-120572438D02*
X131484523Y-120620057D01*
X131484523Y-120620057D02*
X131532142Y-120715295D01*
X131532142Y-120715295D02*
X131532142Y-120858152D01*
X131532142Y-120858152D02*
X131484523Y-120953390D01*
X131484523Y-120953390D02*
X131436904Y-121001009D01*
X131436904Y-121001009D02*
X131341666Y-121048628D01*
X131341666Y-121048628D02*
X130960714Y-121048628D01*
X132484523Y-121524819D02*
X131913095Y-121524819D01*
X132198809Y-121524819D02*
X132198809Y-120524819D01*
X132198809Y-120524819D02*
X132103571Y-120667676D01*
X132103571Y-120667676D02*
X132008333Y-120762914D01*
X132008333Y-120762914D02*
X131913095Y-120810533D01*
X132865476Y-120620057D02*
X132913095Y-120572438D01*
X132913095Y-120572438D02*
X133008333Y-120524819D01*
X133008333Y-120524819D02*
X133246428Y-120524819D01*
X133246428Y-120524819D02*
X133341666Y-120572438D01*
X133341666Y-120572438D02*
X133389285Y-120620057D01*
X133389285Y-120620057D02*
X133436904Y-120715295D01*
X133436904Y-120715295D02*
X133436904Y-120810533D01*
X133436904Y-120810533D02*
X133389285Y-120953390D01*
X133389285Y-120953390D02*
X132817857Y-121524819D01*
X132817857Y-121524819D02*
X133436904Y-121524819D01*
X110858333Y-169284819D02*
X110525000Y-168808628D01*
X110286905Y-169284819D02*
X110286905Y-168284819D01*
X110286905Y-168284819D02*
X110667857Y-168284819D01*
X110667857Y-168284819D02*
X110763095Y-168332438D01*
X110763095Y-168332438D02*
X110810714Y-168380057D01*
X110810714Y-168380057D02*
X110858333Y-168475295D01*
X110858333Y-168475295D02*
X110858333Y-168618152D01*
X110858333Y-168618152D02*
X110810714Y-168713390D01*
X110810714Y-168713390D02*
X110763095Y-168761009D01*
X110763095Y-168761009D02*
X110667857Y-168808628D01*
X110667857Y-168808628D02*
X110286905Y-168808628D01*
X111763095Y-168284819D02*
X111286905Y-168284819D01*
X111286905Y-168284819D02*
X111239286Y-168761009D01*
X111239286Y-168761009D02*
X111286905Y-168713390D01*
X111286905Y-168713390D02*
X111382143Y-168665771D01*
X111382143Y-168665771D02*
X111620238Y-168665771D01*
X111620238Y-168665771D02*
X111715476Y-168713390D01*
X111715476Y-168713390D02*
X111763095Y-168761009D01*
X111763095Y-168761009D02*
X111810714Y-168856247D01*
X111810714Y-168856247D02*
X111810714Y-169094342D01*
X111810714Y-169094342D02*
X111763095Y-169189580D01*
X111763095Y-169189580D02*
X111715476Y-169237200D01*
X111715476Y-169237200D02*
X111620238Y-169284819D01*
X111620238Y-169284819D02*
X111382143Y-169284819D01*
X111382143Y-169284819D02*
X111286905Y-169237200D01*
X111286905Y-169237200D02*
X111239286Y-169189580D01*
X75854819Y-109988094D02*
X74854819Y-109988094D01*
X74854819Y-109988094D02*
X74854819Y-109749999D01*
X74854819Y-109749999D02*
X74902438Y-109607142D01*
X74902438Y-109607142D02*
X74997676Y-109511904D01*
X74997676Y-109511904D02*
X75092914Y-109464285D01*
X75092914Y-109464285D02*
X75283390Y-109416666D01*
X75283390Y-109416666D02*
X75426247Y-109416666D01*
X75426247Y-109416666D02*
X75616723Y-109464285D01*
X75616723Y-109464285D02*
X75711961Y-109511904D01*
X75711961Y-109511904D02*
X75807200Y-109607142D01*
X75807200Y-109607142D02*
X75854819Y-109749999D01*
X75854819Y-109749999D02*
X75854819Y-109988094D01*
X74950057Y-109035713D02*
X74902438Y-108988094D01*
X74902438Y-108988094D02*
X74854819Y-108892856D01*
X74854819Y-108892856D02*
X74854819Y-108654761D01*
X74854819Y-108654761D02*
X74902438Y-108559523D01*
X74902438Y-108559523D02*
X74950057Y-108511904D01*
X74950057Y-108511904D02*
X75045295Y-108464285D01*
X75045295Y-108464285D02*
X75140533Y-108464285D01*
X75140533Y-108464285D02*
X75283390Y-108511904D01*
X75283390Y-108511904D02*
X75854819Y-109083332D01*
X75854819Y-109083332D02*
X75854819Y-108464285D01*
X134884819Y-131817857D02*
X134408628Y-132151190D01*
X134884819Y-132389285D02*
X133884819Y-132389285D01*
X133884819Y-132389285D02*
X133884819Y-132008333D01*
X133884819Y-132008333D02*
X133932438Y-131913095D01*
X133932438Y-131913095D02*
X133980057Y-131865476D01*
X133980057Y-131865476D02*
X134075295Y-131817857D01*
X134075295Y-131817857D02*
X134218152Y-131817857D01*
X134218152Y-131817857D02*
X134313390Y-131865476D01*
X134313390Y-131865476D02*
X134361009Y-131913095D01*
X134361009Y-131913095D02*
X134408628Y-132008333D01*
X134408628Y-132008333D02*
X134408628Y-132389285D01*
X134884819Y-130865476D02*
X134884819Y-131436904D01*
X134884819Y-131151190D02*
X133884819Y-131151190D01*
X133884819Y-131151190D02*
X134027676Y-131246428D01*
X134027676Y-131246428D02*
X134122914Y-131341666D01*
X134122914Y-131341666D02*
X134170533Y-131436904D01*
X134884819Y-129913095D02*
X134884819Y-130484523D01*
X134884819Y-130198809D02*
X133884819Y-130198809D01*
X133884819Y-130198809D02*
X134027676Y-130294047D01*
X134027676Y-130294047D02*
X134122914Y-130389285D01*
X134122914Y-130389285D02*
X134170533Y-130484523D01*
X132505057Y-129095238D02*
X132457438Y-129190476D01*
X132457438Y-129190476D02*
X132362200Y-129285714D01*
X132362200Y-129285714D02*
X132219342Y-129428571D01*
X132219342Y-129428571D02*
X132171723Y-129523809D01*
X132171723Y-129523809D02*
X132171723Y-129619047D01*
X132409819Y-129571428D02*
X132362200Y-129666666D01*
X132362200Y-129666666D02*
X132266961Y-129761904D01*
X132266961Y-129761904D02*
X132076485Y-129809523D01*
X132076485Y-129809523D02*
X131743152Y-129809523D01*
X131743152Y-129809523D02*
X131552676Y-129761904D01*
X131552676Y-129761904D02*
X131457438Y-129666666D01*
X131457438Y-129666666D02*
X131409819Y-129571428D01*
X131409819Y-129571428D02*
X131409819Y-129380952D01*
X131409819Y-129380952D02*
X131457438Y-129285714D01*
X131457438Y-129285714D02*
X131552676Y-129190476D01*
X131552676Y-129190476D02*
X131743152Y-129142857D01*
X131743152Y-129142857D02*
X132076485Y-129142857D01*
X132076485Y-129142857D02*
X132266961Y-129190476D01*
X132266961Y-129190476D02*
X132362200Y-129285714D01*
X132362200Y-129285714D02*
X132409819Y-129380952D01*
X132409819Y-129380952D02*
X132409819Y-129571428D01*
X131409819Y-128809523D02*
X131409819Y-128190476D01*
X131409819Y-128190476D02*
X131790771Y-128523809D01*
X131790771Y-128523809D02*
X131790771Y-128380952D01*
X131790771Y-128380952D02*
X131838390Y-128285714D01*
X131838390Y-128285714D02*
X131886009Y-128238095D01*
X131886009Y-128238095D02*
X131981247Y-128190476D01*
X131981247Y-128190476D02*
X132219342Y-128190476D01*
X132219342Y-128190476D02*
X132314580Y-128238095D01*
X132314580Y-128238095D02*
X132362200Y-128285714D01*
X132362200Y-128285714D02*
X132409819Y-128380952D01*
X132409819Y-128380952D02*
X132409819Y-128666666D01*
X132409819Y-128666666D02*
X132362200Y-128761904D01*
X132362200Y-128761904D02*
X132314580Y-128809523D01*
X134954819Y-135967857D02*
X134478628Y-136301190D01*
X134954819Y-136539285D02*
X133954819Y-136539285D01*
X133954819Y-136539285D02*
X133954819Y-136158333D01*
X133954819Y-136158333D02*
X134002438Y-136063095D01*
X134002438Y-136063095D02*
X134050057Y-136015476D01*
X134050057Y-136015476D02*
X134145295Y-135967857D01*
X134145295Y-135967857D02*
X134288152Y-135967857D01*
X134288152Y-135967857D02*
X134383390Y-136015476D01*
X134383390Y-136015476D02*
X134431009Y-136063095D01*
X134431009Y-136063095D02*
X134478628Y-136158333D01*
X134478628Y-136158333D02*
X134478628Y-136539285D01*
X134954819Y-135015476D02*
X134954819Y-135586904D01*
X134954819Y-135301190D02*
X133954819Y-135301190D01*
X133954819Y-135301190D02*
X134097676Y-135396428D01*
X134097676Y-135396428D02*
X134192914Y-135491666D01*
X134192914Y-135491666D02*
X134240533Y-135586904D01*
X133954819Y-134682142D02*
X133954819Y-134063095D01*
X133954819Y-134063095D02*
X134335771Y-134396428D01*
X134335771Y-134396428D02*
X134335771Y-134253571D01*
X134335771Y-134253571D02*
X134383390Y-134158333D01*
X134383390Y-134158333D02*
X134431009Y-134110714D01*
X134431009Y-134110714D02*
X134526247Y-134063095D01*
X134526247Y-134063095D02*
X134764342Y-134063095D01*
X134764342Y-134063095D02*
X134859580Y-134110714D01*
X134859580Y-134110714D02*
X134907200Y-134158333D01*
X134907200Y-134158333D02*
X134954819Y-134253571D01*
X134954819Y-134253571D02*
X134954819Y-134539285D01*
X134954819Y-134539285D02*
X134907200Y-134634523D01*
X134907200Y-134634523D02*
X134859580Y-134682142D01*
X85166666Y-174204819D02*
X84833333Y-173728628D01*
X84595238Y-174204819D02*
X84595238Y-173204819D01*
X84595238Y-173204819D02*
X84976190Y-173204819D01*
X84976190Y-173204819D02*
X85071428Y-173252438D01*
X85071428Y-173252438D02*
X85119047Y-173300057D01*
X85119047Y-173300057D02*
X85166666Y-173395295D01*
X85166666Y-173395295D02*
X85166666Y-173538152D01*
X85166666Y-173538152D02*
X85119047Y-173633390D01*
X85119047Y-173633390D02*
X85071428Y-173681009D01*
X85071428Y-173681009D02*
X84976190Y-173728628D01*
X84976190Y-173728628D02*
X84595238Y-173728628D01*
X85595238Y-173681009D02*
X85928571Y-173681009D01*
X86071428Y-174204819D02*
X85595238Y-174204819D01*
X85595238Y-174204819D02*
X85595238Y-173204819D01*
X85595238Y-173204819D02*
X86071428Y-173204819D01*
X86833333Y-173681009D02*
X86500000Y-173681009D01*
X86500000Y-174204819D02*
X86500000Y-173204819D01*
X86500000Y-173204819D02*
X86976190Y-173204819D01*
X87500000Y-173204819D02*
X87500000Y-173442914D01*
X87261905Y-173347676D02*
X87500000Y-173442914D01*
X87500000Y-173442914D02*
X87738095Y-173347676D01*
X87357143Y-173633390D02*
X87500000Y-173442914D01*
X87500000Y-173442914D02*
X87642857Y-173633390D01*
X88261905Y-173204819D02*
X88261905Y-173442914D01*
X88023810Y-173347676D02*
X88261905Y-173442914D01*
X88261905Y-173442914D02*
X88500000Y-173347676D01*
X88119048Y-173633390D02*
X88261905Y-173442914D01*
X88261905Y-173442914D02*
X88404762Y-173633390D01*
X122032142Y-121524819D02*
X121698809Y-121048628D01*
X121460714Y-121524819D02*
X121460714Y-120524819D01*
X121460714Y-120524819D02*
X121841666Y-120524819D01*
X121841666Y-120524819D02*
X121936904Y-120572438D01*
X121936904Y-120572438D02*
X121984523Y-120620057D01*
X121984523Y-120620057D02*
X122032142Y-120715295D01*
X122032142Y-120715295D02*
X122032142Y-120858152D01*
X122032142Y-120858152D02*
X121984523Y-120953390D01*
X121984523Y-120953390D02*
X121936904Y-121001009D01*
X121936904Y-121001009D02*
X121841666Y-121048628D01*
X121841666Y-121048628D02*
X121460714Y-121048628D01*
X122984523Y-121524819D02*
X122413095Y-121524819D01*
X122698809Y-121524819D02*
X122698809Y-120524819D01*
X122698809Y-120524819D02*
X122603571Y-120667676D01*
X122603571Y-120667676D02*
X122508333Y-120762914D01*
X122508333Y-120762914D02*
X122413095Y-120810533D01*
X123841666Y-120858152D02*
X123841666Y-121524819D01*
X123603571Y-120477200D02*
X123365476Y-121191485D01*
X123365476Y-121191485D02*
X123984523Y-121191485D01*
X134884819Y-127317857D02*
X134408628Y-127651190D01*
X134884819Y-127889285D02*
X133884819Y-127889285D01*
X133884819Y-127889285D02*
X133884819Y-127508333D01*
X133884819Y-127508333D02*
X133932438Y-127413095D01*
X133932438Y-127413095D02*
X133980057Y-127365476D01*
X133980057Y-127365476D02*
X134075295Y-127317857D01*
X134075295Y-127317857D02*
X134218152Y-127317857D01*
X134218152Y-127317857D02*
X134313390Y-127365476D01*
X134313390Y-127365476D02*
X134361009Y-127413095D01*
X134361009Y-127413095D02*
X134408628Y-127508333D01*
X134408628Y-127508333D02*
X134408628Y-127889285D01*
X134884819Y-126365476D02*
X134884819Y-126936904D01*
X134884819Y-126651190D02*
X133884819Y-126651190D01*
X133884819Y-126651190D02*
X134027676Y-126746428D01*
X134027676Y-126746428D02*
X134122914Y-126841666D01*
X134122914Y-126841666D02*
X134170533Y-126936904D01*
X133884819Y-125746428D02*
X133884819Y-125651190D01*
X133884819Y-125651190D02*
X133932438Y-125555952D01*
X133932438Y-125555952D02*
X133980057Y-125508333D01*
X133980057Y-125508333D02*
X134075295Y-125460714D01*
X134075295Y-125460714D02*
X134265771Y-125413095D01*
X134265771Y-125413095D02*
X134503866Y-125413095D01*
X134503866Y-125413095D02*
X134694342Y-125460714D01*
X134694342Y-125460714D02*
X134789580Y-125508333D01*
X134789580Y-125508333D02*
X134837200Y-125555952D01*
X134837200Y-125555952D02*
X134884819Y-125651190D01*
X134884819Y-125651190D02*
X134884819Y-125746428D01*
X134884819Y-125746428D02*
X134837200Y-125841666D01*
X134837200Y-125841666D02*
X134789580Y-125889285D01*
X134789580Y-125889285D02*
X134694342Y-125936904D01*
X134694342Y-125936904D02*
X134503866Y-125984523D01*
X134503866Y-125984523D02*
X134265771Y-125984523D01*
X134265771Y-125984523D02*
X134075295Y-125936904D01*
X134075295Y-125936904D02*
X133980057Y-125889285D01*
X133980057Y-125889285D02*
X133932438Y-125841666D01*
X133932438Y-125841666D02*
X133884819Y-125746428D01*
X110858333Y-166774819D02*
X110525000Y-166298628D01*
X110286905Y-166774819D02*
X110286905Y-165774819D01*
X110286905Y-165774819D02*
X110667857Y-165774819D01*
X110667857Y-165774819D02*
X110763095Y-165822438D01*
X110763095Y-165822438D02*
X110810714Y-165870057D01*
X110810714Y-165870057D02*
X110858333Y-165965295D01*
X110858333Y-165965295D02*
X110858333Y-166108152D01*
X110858333Y-166108152D02*
X110810714Y-166203390D01*
X110810714Y-166203390D02*
X110763095Y-166251009D01*
X110763095Y-166251009D02*
X110667857Y-166298628D01*
X110667857Y-166298628D02*
X110286905Y-166298628D01*
X111715476Y-166108152D02*
X111715476Y-166774819D01*
X111477381Y-165727200D02*
X111239286Y-166441485D01*
X111239286Y-166441485D02*
X111858333Y-166441485D01*
D17*
X86745000Y-113190000D02*
X93730000Y-113190000D01*
X86745000Y-137320000D02*
X86745000Y-113190000D01*
X92620000Y-113690000D02*
X92620000Y-128930000D01*
X92620000Y-128930000D02*
X115160000Y-128930000D01*
X101350000Y-113690000D02*
X101350000Y-118770000D01*
X101350000Y-118770000D02*
X106430000Y-118770000D01*
X102620000Y-120040000D02*
X105160000Y-120040000D01*
X102620000Y-123850000D02*
X102620000Y-120040000D01*
X105160000Y-120040000D02*
X105160000Y-123850000D01*
X105160000Y-123850000D02*
X102620000Y-123850000D01*
X106430000Y-118770000D02*
X106430000Y-113690000D01*
X114050000Y-113190000D02*
X93730000Y-113190000D01*
X114050000Y-113190000D02*
X120400000Y-113190000D01*
X115160000Y-128930000D02*
X115160000Y-113690000D01*
X120400000Y-113190000D02*
X121035000Y-113190000D01*
X121035000Y-113190000D02*
X121035000Y-137320000D01*
X121035000Y-137320000D02*
X86745000Y-137320000D01*
D19*
X82165580Y-193810000D02*
X81884420Y-193810000D01*
X82165580Y-192790000D02*
X81884420Y-192790000D01*
X81010000Y-188359420D02*
X81010000Y-188640580D01*
X79990000Y-188359420D02*
X79990000Y-188640580D01*
X70400000Y-115200000D02*
X72400000Y-115200000D01*
X70400000Y-115200000D02*
X70400000Y-111300000D01*
X72400000Y-115200000D02*
X72400000Y-111300000D01*
X98210000Y-194264000D02*
X98210000Y-194420000D01*
X98210000Y-196580000D02*
X98210000Y-196736000D01*
X101442334Y-194421392D02*
G75*
G03*
X98210001Y-194264485I-1672334J-1078608D01*
G01*
X100811129Y-194420164D02*
G75*
G03*
X98729040Y-194420001I-1041129J-1079836D01*
G01*
X98729040Y-196579999D02*
G75*
G03*
X100811129Y-196579836I1040960J1079999D01*
G01*
X98210001Y-196735515D02*
G75*
G03*
X101442334Y-196578608I1559999J1235515D01*
G01*
X69930000Y-141510000D02*
X68600000Y-141510000D01*
X69930000Y-140180000D02*
X69930000Y-141510000D01*
X69930000Y-138910000D02*
X69930000Y-115990000D01*
X69930000Y-138910000D02*
X67270000Y-138910000D01*
X69930000Y-115990000D02*
X67270000Y-115990000D01*
X67270000Y-138910000D02*
X67270000Y-115990000D01*
X109650000Y-148450000D02*
X109650000Y-149050000D01*
X108950000Y-149750000D02*
X107550000Y-149750000D01*
X107550000Y-147750000D02*
X108950000Y-147750000D01*
X106850000Y-149050000D02*
X106850000Y-148450000D01*
X108950000Y-149750000D02*
G75*
G03*
X109650000Y-149050000I1J699999D01*
G01*
X109650000Y-148450000D02*
G75*
G03*
X108950000Y-147750000I-699999J1D01*
G01*
X106850000Y-149050000D02*
G75*
G03*
X107550000Y-149750000I700000J0D01*
G01*
X107550000Y-147750000D02*
G75*
G03*
X106850000Y-148450000I0J-700000D01*
G01*
X111237258Y-179422500D02*
X110762742Y-179422500D01*
X111237258Y-178377500D02*
X110762742Y-178377500D01*
X111237258Y-176522500D02*
X110762742Y-176522500D01*
X111237258Y-175477500D02*
X110762742Y-175477500D01*
X88262742Y-190977500D02*
X88737258Y-190977500D01*
X88262742Y-192022500D02*
X88737258Y-192022500D01*
X101592258Y-190192500D02*
X101117742Y-190192500D01*
X101592258Y-189147500D02*
X101117742Y-189147500D01*
X111237258Y-173622500D02*
X110762742Y-173622500D01*
X111237258Y-172577500D02*
X110762742Y-172577500D01*
X108037258Y-154022500D02*
X107562742Y-154022500D01*
X108037258Y-152977500D02*
X107562742Y-152977500D01*
X70750000Y-100000000D02*
X70750000Y-108900000D01*
X70750000Y-100000000D02*
X70750000Y-147500000D01*
X70750000Y-104200000D02*
X129250000Y-104200000D01*
X70750000Y-147500000D02*
X92250000Y-147500000D01*
X75650000Y-108900000D02*
X75650000Y-133800000D01*
X75650000Y-133800000D02*
X124250000Y-133800000D01*
X92250000Y-143500000D02*
X102750000Y-143500000D01*
X92250000Y-147500000D02*
X92250000Y-143500000D01*
X102750000Y-143500000D02*
X107750000Y-143500000D01*
X107750000Y-143500000D02*
X107750000Y-147500000D01*
X107750000Y-147500000D02*
X129250000Y-147500000D01*
X124250000Y-108900000D02*
X75650000Y-108900000D01*
X124250000Y-133800000D02*
X124250000Y-108900000D01*
X129250000Y-100000000D02*
X70750000Y-100000000D01*
X129250000Y-100000000D02*
X129250000Y-104250000D01*
X129250000Y-104200000D02*
X129250000Y-143500000D01*
X129250000Y-143500000D02*
X70750000Y-143500000D01*
X129250000Y-146500000D02*
X129250000Y-100500000D01*
X129250000Y-147500000D02*
X129250000Y-100000000D01*
X73500000Y-147500000D02*
G75*
G03*
X71500000Y-147500000I-1000000J0D01*
G01*
X71500000Y-100000000D02*
G75*
G03*
X73500000Y-100000000I1000000J0D01*
G01*
X128500000Y-147500000D02*
G75*
G03*
X126500000Y-147500000I-1000000J0D01*
G01*
X128500000Y-100000000D02*
G75*
G03*
X128500000Y-100000000I-1000000J0D01*
G01*
D10*
X71500000Y-184500000D02*
X71500000Y-166500000D01*
X77500000Y-184500000D02*
X71500000Y-184500000D01*
X77500000Y-184500000D02*
X97000000Y-184500000D01*
X97000000Y-184500000D02*
X97000000Y-166500000D01*
X77500000Y-175500000D02*
X77500000Y-184500000D01*
X71500000Y-166500000D02*
X77500000Y-166500000D01*
X77500000Y-166500000D02*
X77500000Y-175500000D01*
X97000000Y-166500000D02*
X77500000Y-166500000D01*
D19*
X84010000Y-188359420D02*
X84010000Y-188640580D01*
X82990000Y-188359420D02*
X82990000Y-188640580D01*
X84860000Y-128500000D02*
G75*
G03*
X84860000Y-128500000I-6100000J0D01*
G01*
X118970000Y-233750000D02*
X118970000Y-232500000D01*
X118680000Y-233460000D02*
X118680000Y-227490000D01*
X118680000Y-227490000D02*
X111060000Y-227490000D01*
X118670000Y-233450000D02*
X118670000Y-232700000D01*
X118670000Y-232700000D02*
X116870000Y-232700000D01*
X118670000Y-231200000D02*
X117920000Y-231200000D01*
X117920000Y-231200000D02*
X117920000Y-229860000D01*
X117720000Y-233750000D02*
X118970000Y-233750000D01*
X116870000Y-233450000D02*
X118670000Y-233450000D01*
X116870000Y-232700000D02*
X116870000Y-233450000D01*
X115370000Y-233450000D02*
X115370000Y-232700000D01*
X115370000Y-232700000D02*
X114370000Y-232700000D01*
X114870000Y-228250000D02*
X116860000Y-228250000D01*
X114370000Y-233450000D02*
X115370000Y-233450000D01*
X114370000Y-232700000D02*
X114370000Y-233450000D01*
X112870000Y-233450000D02*
X112870000Y-232700000D01*
X112870000Y-232700000D02*
X111070000Y-232700000D01*
X111820000Y-231200000D02*
X111820000Y-228250000D01*
X111820000Y-228250000D02*
X114870000Y-228250000D01*
X111070000Y-233450000D02*
X112870000Y-233450000D01*
X111070000Y-232700000D02*
X111070000Y-233450000D01*
X111070000Y-231200000D02*
X111820000Y-231200000D01*
X111060000Y-233460000D02*
X118680000Y-233460000D01*
X111060000Y-227490000D02*
X111060000Y-233460000D01*
X134900000Y-111700000D02*
X134900000Y-120300000D01*
X126500000Y-111700000D02*
X134800000Y-111700000D01*
X133500000Y-112500000D02*
X133500000Y-119500000D01*
X126500000Y-112500000D02*
X133500000Y-112500000D01*
X131500000Y-113100000D02*
X131500000Y-118900000D01*
X126500000Y-113100000D02*
X131500000Y-113100000D01*
X140400000Y-114500000D02*
X140400000Y-117500000D01*
X134900000Y-114500000D02*
X140400000Y-114500000D01*
X139000000Y-115000000D02*
X139000000Y-117000000D01*
X136500000Y-115000000D02*
X136500000Y-117000000D01*
X133500000Y-115000000D02*
X139000000Y-115000000D01*
X131500000Y-115000000D02*
X136500000Y-115000000D01*
X126500000Y-116000000D02*
X126500000Y-111700000D01*
X139000000Y-117000000D02*
X133500000Y-117000000D01*
X136500000Y-117000000D02*
X131500000Y-117000000D01*
X140400000Y-117500000D02*
X134900000Y-117500000D01*
X131500000Y-118900000D02*
X126500000Y-118900000D01*
X133500000Y-119500000D02*
X126500000Y-119500000D01*
X134900000Y-120300000D02*
X126500000Y-120300000D01*
X126500000Y-120300000D02*
X126500000Y-116000000D01*
X118670000Y-162670000D02*
X120000000Y-162670000D01*
X118670000Y-164000000D02*
X118670000Y-162670000D01*
X118670000Y-165270000D02*
X118670000Y-178030000D01*
X118670000Y-165270000D02*
X121330000Y-165270000D01*
X118670000Y-178030000D02*
X121330000Y-178030000D01*
X121330000Y-165270000D02*
X121330000Y-178030000D01*
X110762742Y-169677500D02*
X111237258Y-169677500D01*
X110762742Y-170722500D02*
X111237258Y-170722500D01*
X110450000Y-227170000D02*
X110450000Y-228500000D01*
X109120000Y-227170000D02*
X110450000Y-227170000D01*
X107850000Y-227170000D02*
X77310000Y-227170000D01*
X107850000Y-227170000D02*
X107850000Y-229830000D01*
X77310000Y-227170000D02*
X77310000Y-229830000D01*
X107850000Y-229830000D02*
X77310000Y-229830000D01*
X65860000Y-227760000D02*
X65860000Y-228500000D01*
X65860000Y-228500000D02*
X66360000Y-228500000D01*
X66100000Y-218339000D02*
X66100000Y-228260000D01*
X66100000Y-218339000D02*
X76380000Y-218339000D01*
X66100000Y-221299000D02*
X76380000Y-221299000D01*
X66100000Y-226200000D02*
X76380000Y-226200000D01*
X66100000Y-227700000D02*
X76380000Y-227700000D01*
X66100000Y-228260000D02*
X76380000Y-228260000D01*
X72553000Y-224623000D02*
X72506000Y-224669000D01*
X72746000Y-224839000D02*
X72711000Y-224874000D01*
X74850000Y-222325000D02*
X74815000Y-222361000D01*
X75055000Y-222531000D02*
X75008000Y-222577000D01*
X76380000Y-218339000D02*
X76380000Y-228260000D01*
X67165001Y-222916001D02*
G75*
G03*
X67164574Y-224283042I1534992J-684000D01*
G01*
X69383999Y-222065001D02*
G75*
G03*
X68016958Y-222064574I-684000J-1534992D01*
G01*
X68016000Y-225134999D02*
G75*
G03*
X68728805Y-225280252I683999J1535000D01*
G01*
X68700000Y-225279999D02*
G75*
G03*
X69383318Y-225134755I0J1679999D01*
G01*
X70235000Y-224284000D02*
G75*
G03*
X70235426Y-222916958I-1535000J684000D01*
G01*
X75460000Y-223600000D02*
G75*
G03*
X75460000Y-223600000I-1680000J0D01*
G01*
X110330000Y-111170000D02*
X110330000Y-112500000D01*
X109000000Y-111170000D02*
X110330000Y-111170000D01*
X107730000Y-111170000D02*
X77190000Y-111170000D01*
X107730000Y-111170000D02*
X107730000Y-113830000D01*
X77190000Y-111170000D02*
X77190000Y-113830000D01*
X107730000Y-113830000D02*
X77190000Y-113830000D01*
X110450000Y-214910000D02*
X77310000Y-214910000D01*
X110450000Y-214910000D02*
X110450000Y-223540000D01*
X110330000Y-214910000D02*
X110330000Y-223540000D01*
X110211905Y-214910000D02*
X110211905Y-223540000D01*
X110093810Y-214910000D02*
X110093810Y-223540000D01*
X109975715Y-214910000D02*
X109975715Y-223540000D01*
X109857620Y-214910000D02*
X109857620Y-223540000D01*
X109739525Y-214910000D02*
X109739525Y-223540000D01*
X109621430Y-214910000D02*
X109621430Y-223540000D01*
X109503335Y-214910000D02*
X109503335Y-223540000D01*
X109385240Y-214910000D02*
X109385240Y-223540000D01*
X109267145Y-214910000D02*
X109267145Y-223540000D01*
X109149050Y-214910000D02*
X109149050Y-223540000D01*
X109030955Y-214910000D02*
X109030955Y-223540000D01*
X108912860Y-214910000D02*
X108912860Y-223540000D01*
X108794765Y-214910000D02*
X108794765Y-223540000D01*
X108676670Y-214910000D02*
X108676670Y-223540000D01*
X108558575Y-214910000D02*
X108558575Y-223540000D01*
X108440480Y-214910000D02*
X108440480Y-223540000D01*
X108322385Y-214910000D02*
X108322385Y-223540000D01*
X108204290Y-214910000D02*
X108204290Y-223540000D01*
X108086195Y-214910000D02*
X108086195Y-223540000D01*
X107968100Y-214910000D02*
X107968100Y-223540000D01*
X107850000Y-214910000D02*
X107850000Y-223540000D01*
X105310000Y-214910000D02*
X105310000Y-223540000D01*
X102770000Y-214910000D02*
X102770000Y-223540000D01*
X100230000Y-214910000D02*
X100230000Y-223540000D01*
X97690000Y-214910000D02*
X97690000Y-223540000D01*
X95150000Y-214910000D02*
X95150000Y-223540000D01*
X92610000Y-214910000D02*
X92610000Y-223540000D01*
X90070000Y-214910000D02*
X90070000Y-223540000D01*
X87530000Y-214910000D02*
X87530000Y-223540000D01*
X84990000Y-214910000D02*
X84990000Y-223540000D01*
X82450000Y-214910000D02*
X82450000Y-223540000D01*
X79910000Y-214910000D02*
X79910000Y-223540000D01*
X77310000Y-214910000D02*
X77310000Y-223540000D01*
X110450000Y-223540000D02*
X77310000Y-223540000D01*
X109480000Y-223540000D02*
X109480000Y-223890000D01*
X108760000Y-223540000D02*
X108760000Y-223890000D01*
X106940000Y-223540000D02*
X106940000Y-223950000D01*
X106220000Y-223540000D02*
X106220000Y-223950000D01*
X104400000Y-223540000D02*
X104400000Y-223950000D01*
X103680000Y-223540000D02*
X103680000Y-223950000D01*
X101860000Y-223540000D02*
X101860000Y-223950000D01*
X101140000Y-223540000D02*
X101140000Y-223950000D01*
X99320000Y-223540000D02*
X99320000Y-223950000D01*
X98600000Y-223540000D02*
X98600000Y-223950000D01*
X96780000Y-223540000D02*
X96780000Y-223950000D01*
X96060000Y-223540000D02*
X96060000Y-223950000D01*
X94240000Y-223540000D02*
X94240000Y-223950000D01*
X93520000Y-223540000D02*
X93520000Y-223950000D01*
X91700000Y-223540000D02*
X91700000Y-223950000D01*
X90980000Y-223540000D02*
X90980000Y-223950000D01*
X89160000Y-223540000D02*
X89160000Y-223950000D01*
X88440000Y-223540000D02*
X88440000Y-223950000D01*
X86620000Y-223540000D02*
X86620000Y-223950000D01*
X85900000Y-223540000D02*
X85900000Y-223950000D01*
X84080000Y-223540000D02*
X84080000Y-223950000D01*
X83360000Y-223540000D02*
X83360000Y-223950000D01*
X81540000Y-223540000D02*
X81540000Y-223950000D01*
X80820000Y-223540000D02*
X80820000Y-223950000D01*
X79000000Y-223540000D02*
X79000000Y-223950000D01*
X78280000Y-223540000D02*
X78280000Y-223950000D01*
X110450000Y-225000000D02*
X110450000Y-226110000D01*
X110450000Y-226110000D02*
X109120000Y-226110000D01*
X83437742Y-105977500D02*
X83912258Y-105977500D01*
X83437742Y-107022500D02*
X83912258Y-107022500D01*
X110415580Y-99010000D02*
X110134420Y-99010000D01*
X110415580Y-97990000D02*
X110134420Y-97990000D01*
X103480000Y-158740000D02*
X103480000Y-157240000D01*
X102230000Y-154740000D02*
X97730000Y-154740000D01*
X97730000Y-161240000D02*
X102230000Y-161240000D01*
X96480000Y-157240000D02*
X96480000Y-158740000D01*
X116740000Y-154480000D02*
X115240000Y-154480000D01*
X112740000Y-155730000D02*
X112740000Y-160230000D01*
X119240000Y-160230000D02*
X119240000Y-155730000D01*
X115240000Y-161480000D02*
X116740000Y-161480000D01*
X87500000Y-158740000D02*
X87500000Y-157240000D01*
X86250000Y-154740000D02*
X81750000Y-154740000D01*
X81750000Y-161240000D02*
X86250000Y-161240000D01*
X80500000Y-157240000D02*
X80500000Y-158740000D01*
D20*
X135620620Y-234000880D02*
X135620620Y-224999120D01*
X135620620Y-224999120D02*
X121119760Y-224999120D01*
X121119760Y-234000880D02*
X135620620Y-234000880D01*
X121119760Y-224999120D02*
X121119760Y-234000880D01*
D21*
X100302260Y-205103180D02*
X100365760Y-205108260D01*
X100386080Y-205113340D01*
X100393700Y-205143820D01*
X100408940Y-205220020D01*
X100429260Y-205329240D01*
X100454660Y-205461320D01*
X100459740Y-205484180D01*
X100485140Y-205621340D01*
X100508000Y-205735640D01*
X100528320Y-205819460D01*
X100541020Y-205857560D01*
X100541020Y-205860100D01*
X100574040Y-205877880D01*
X100645160Y-205910900D01*
X100736600Y-205949000D01*
X100840740Y-205992180D01*
X100937260Y-206027740D01*
X101016000Y-206055680D01*
X101061720Y-206070920D01*
X101066800Y-206070920D01*
X101094740Y-206053140D01*
X101160780Y-206009960D01*
X101254760Y-205946460D01*
X101366520Y-205870260D01*
X101374140Y-205865180D01*
X101485900Y-205788980D01*
X101582420Y-205722940D01*
X101651000Y-205677220D01*
X101684020Y-205656900D01*
X101686560Y-205656900D01*
X101709420Y-205664520D01*
X101755140Y-205702620D01*
X101831340Y-205771200D01*
X101938020Y-205877880D01*
X101968500Y-205908360D01*
X102067560Y-206004880D01*
X102148840Y-206091240D01*
X102204720Y-206154740D01*
X102230120Y-206187760D01*
X102214880Y-206218240D01*
X102174240Y-206286820D01*
X102113280Y-206380800D01*
X102037080Y-206492560D01*
X102032000Y-206500180D01*
X101953260Y-206611940D01*
X101889760Y-206705920D01*
X101844040Y-206774500D01*
X101826260Y-206807520D01*
X101823720Y-206807520D01*
X101831340Y-206838000D01*
X101856740Y-206909120D01*
X101894840Y-207000560D01*
X101938020Y-207104700D01*
X101981200Y-207203760D01*
X102019300Y-207285040D01*
X102044700Y-207335840D01*
X102052320Y-207346000D01*
X102085340Y-207356160D01*
X102161540Y-207373940D01*
X102273300Y-207396800D01*
X102402840Y-207422200D01*
X102413000Y-207424740D01*
X102545080Y-207450140D01*
X102654300Y-207470460D01*
X102733040Y-207488240D01*
X102768600Y-207495860D01*
X102773680Y-207526340D01*
X102776220Y-207602540D01*
X102778760Y-207716840D01*
X102781300Y-207864160D01*
X102781300Y-207881940D01*
X102781300Y-208034340D01*
X102778760Y-208141020D01*
X102776220Y-208207060D01*
X102771140Y-208245160D01*
X102766060Y-208262940D01*
X102755900Y-208268020D01*
X102720340Y-208275640D01*
X102639060Y-208290880D01*
X102529840Y-208311200D01*
X102407920Y-208334060D01*
X102278380Y-208356920D01*
X102169160Y-208379780D01*
X102095500Y-208397560D01*
X102065020Y-208407720D01*
X102049780Y-208440740D01*
X102019300Y-208511860D01*
X101976120Y-208613460D01*
X101943100Y-208697280D01*
X101833880Y-208969060D01*
X102032000Y-209256080D01*
X102108200Y-209367840D01*
X102169160Y-209464360D01*
X102212340Y-209530400D01*
X102230120Y-209563420D01*
X102212340Y-209591360D01*
X102159000Y-209647240D01*
X102082800Y-209728520D01*
X101988820Y-209825040D01*
X101971040Y-209842820D01*
X101854200Y-209957120D01*
X101772920Y-210033320D01*
X101719580Y-210079040D01*
X101689100Y-210094280D01*
X101684020Y-210094280D01*
X101651000Y-210076500D01*
X101582420Y-210033320D01*
X101488440Y-209972360D01*
X101386840Y-209903780D01*
X101280160Y-209830120D01*
X101191260Y-209769160D01*
X101130300Y-209731060D01*
X101104900Y-209718360D01*
X101076960Y-209728520D01*
X101013460Y-209759000D01*
X100957580Y-209786940D01*
X100873760Y-209827580D01*
X100828040Y-209845360D01*
X100807720Y-209840280D01*
X100805180Y-209840280D01*
X100789940Y-209809800D01*
X100756920Y-209733600D01*
X100708660Y-209621840D01*
X100650240Y-209482140D01*
X100581660Y-209317040D01*
X100541020Y-209223060D01*
X100292100Y-208623620D01*
X100327660Y-208595680D01*
X100370840Y-208560120D01*
X100439420Y-208511860D01*
X100457200Y-208496620D01*
X100599440Y-208359460D01*
X100703580Y-208191820D01*
X100759460Y-208006400D01*
X100769620Y-207810820D01*
X100762000Y-207765100D01*
X100708660Y-207587300D01*
X100612140Y-207422200D01*
X100543560Y-207340920D01*
X100378460Y-207216460D01*
X100193040Y-207142800D01*
X100000000Y-207122480D01*
X99796800Y-207145340D01*
X99616460Y-207224080D01*
X99464060Y-207346000D01*
X99337060Y-207508560D01*
X99260860Y-207691440D01*
X99238000Y-207881940D01*
X99265940Y-208085140D01*
X99344680Y-208270560D01*
X99474220Y-208433120D01*
X99606300Y-208539800D01*
X99667260Y-208585520D01*
X99702820Y-208618540D01*
X99705360Y-208626160D01*
X99695200Y-208659180D01*
X99664720Y-208732840D01*
X99621540Y-208842060D01*
X99568200Y-208974140D01*
X99507240Y-209124000D01*
X99441200Y-209278940D01*
X99377700Y-209431340D01*
X99316740Y-209571040D01*
X99263400Y-209692960D01*
X99225300Y-209784400D01*
X99199900Y-209837740D01*
X99192280Y-209845360D01*
X99159260Y-209840280D01*
X99088140Y-209809800D01*
X99044960Y-209786940D01*
X98968760Y-209748840D01*
X98915420Y-209723440D01*
X98902720Y-209718360D01*
X98874780Y-209731060D01*
X98811280Y-209771700D01*
X98722380Y-209832660D01*
X98610620Y-209908860D01*
X98501400Y-209982520D01*
X98407420Y-210043480D01*
X98343920Y-210084120D01*
X98313440Y-210099360D01*
X98288040Y-210079040D01*
X98232160Y-210028240D01*
X98148340Y-209952040D01*
X98051820Y-209858060D01*
X98031500Y-209840280D01*
X97909580Y-209718360D01*
X97825760Y-209632000D01*
X97782580Y-209581200D01*
X97772420Y-209558340D01*
X97792740Y-209527860D01*
X97835920Y-209461820D01*
X97899420Y-209367840D01*
X97973080Y-209258620D01*
X98046740Y-209149400D01*
X98107700Y-209057960D01*
X98150880Y-208991920D01*
X98166120Y-208963980D01*
X98155960Y-208925880D01*
X98128020Y-208852220D01*
X98089920Y-208753160D01*
X98044200Y-208649020D01*
X98001020Y-208547420D01*
X97962920Y-208461060D01*
X97934980Y-208407720D01*
X97927360Y-208397560D01*
X97891800Y-208389940D01*
X97813060Y-208374700D01*
X97701300Y-208354380D01*
X97592080Y-208334060D01*
X97465080Y-208308660D01*
X97355860Y-208288340D01*
X97279660Y-208270560D01*
X97249180Y-208262940D01*
X97218700Y-208247700D01*
X97226320Y-207495860D01*
X97432060Y-207455220D01*
X97561600Y-207429820D01*
X97698760Y-207404420D01*
X97797820Y-207386640D01*
X97960380Y-207353620D01*
X98069600Y-207107240D01*
X98115320Y-206998020D01*
X98153420Y-206904040D01*
X98173740Y-206843080D01*
X98178820Y-206827840D01*
X98163580Y-206792280D01*
X98117860Y-206716080D01*
X98051820Y-206611940D01*
X97988320Y-206520500D01*
X97912120Y-206408740D01*
X97848620Y-206314760D01*
X97802900Y-206246180D01*
X97782580Y-206213160D01*
X97780040Y-206197920D01*
X97790200Y-206175060D01*
X97820680Y-206136960D01*
X97874020Y-206078540D01*
X97960380Y-205992180D01*
X98034040Y-205918520D01*
X98130560Y-205822000D01*
X98216920Y-205738180D01*
X98277880Y-205679760D01*
X98308360Y-205654360D01*
X98310900Y-205651820D01*
X98338840Y-205667060D01*
X98402340Y-205707700D01*
X98493780Y-205771200D01*
X98605540Y-205847400D01*
X98636020Y-205865180D01*
X98948440Y-206081080D01*
X99202440Y-205976940D01*
X99311660Y-205933760D01*
X99400560Y-205895660D01*
X99456440Y-205872800D01*
X99466600Y-205865180D01*
X99476760Y-205837240D01*
X99492000Y-205761040D01*
X99514860Y-205654360D01*
X99537720Y-205522280D01*
X99542800Y-205496880D01*
X99570740Y-205359720D01*
X99593600Y-205245420D01*
X99611380Y-205161600D01*
X99624080Y-205120960D01*
X99624080Y-205118420D01*
X99654560Y-205113340D01*
X99730760Y-205108260D01*
X99834900Y-205103180D01*
X99959360Y-205100640D01*
X100083820Y-205100640D01*
X100203200Y-205100640D01*
X100302260Y-205103180D01*
G36*
X100302260Y-205103180D02*
G01*
X100365760Y-205108260D01*
X100386080Y-205113340D01*
X100393700Y-205143820D01*
X100408940Y-205220020D01*
X100429260Y-205329240D01*
X100454660Y-205461320D01*
X100459740Y-205484180D01*
X100485140Y-205621340D01*
X100508000Y-205735640D01*
X100528320Y-205819460D01*
X100541020Y-205857560D01*
X100541020Y-205860100D01*
X100574040Y-205877880D01*
X100645160Y-205910900D01*
X100736600Y-205949000D01*
X100840740Y-205992180D01*
X100937260Y-206027740D01*
X101016000Y-206055680D01*
X101061720Y-206070920D01*
X101066800Y-206070920D01*
X101094740Y-206053140D01*
X101160780Y-206009960D01*
X101254760Y-205946460D01*
X101366520Y-205870260D01*
X101374140Y-205865180D01*
X101485900Y-205788980D01*
X101582420Y-205722940D01*
X101651000Y-205677220D01*
X101684020Y-205656900D01*
X101686560Y-205656900D01*
X101709420Y-205664520D01*
X101755140Y-205702620D01*
X101831340Y-205771200D01*
X101938020Y-205877880D01*
X101968500Y-205908360D01*
X102067560Y-206004880D01*
X102148840Y-206091240D01*
X102204720Y-206154740D01*
X102230120Y-206187760D01*
X102214880Y-206218240D01*
X102174240Y-206286820D01*
X102113280Y-206380800D01*
X102037080Y-206492560D01*
X102032000Y-206500180D01*
X101953260Y-206611940D01*
X101889760Y-206705920D01*
X101844040Y-206774500D01*
X101826260Y-206807520D01*
X101823720Y-206807520D01*
X101831340Y-206838000D01*
X101856740Y-206909120D01*
X101894840Y-207000560D01*
X101938020Y-207104700D01*
X101981200Y-207203760D01*
X102019300Y-207285040D01*
X102044700Y-207335840D01*
X102052320Y-207346000D01*
X102085340Y-207356160D01*
X102161540Y-207373940D01*
X102273300Y-207396800D01*
X102402840Y-207422200D01*
X102413000Y-207424740D01*
X102545080Y-207450140D01*
X102654300Y-207470460D01*
X102733040Y-207488240D01*
X102768600Y-207495860D01*
X102773680Y-207526340D01*
X102776220Y-207602540D01*
X102778760Y-207716840D01*
X102781300Y-207864160D01*
X102781300Y-207881940D01*
X102781300Y-208034340D01*
X102778760Y-208141020D01*
X102776220Y-208207060D01*
X102771140Y-208245160D01*
X102766060Y-208262940D01*
X102755900Y-208268020D01*
X102720340Y-208275640D01*
X102639060Y-208290880D01*
X102529840Y-208311200D01*
X102407920Y-208334060D01*
X102278380Y-208356920D01*
X102169160Y-208379780D01*
X102095500Y-208397560D01*
X102065020Y-208407720D01*
X102049780Y-208440740D01*
X102019300Y-208511860D01*
X101976120Y-208613460D01*
X101943100Y-208697280D01*
X101833880Y-208969060D01*
X102032000Y-209256080D01*
X102108200Y-209367840D01*
X102169160Y-209464360D01*
X102212340Y-209530400D01*
X102230120Y-209563420D01*
X102212340Y-209591360D01*
X102159000Y-209647240D01*
X102082800Y-209728520D01*
X101988820Y-209825040D01*
X101971040Y-209842820D01*
X101854200Y-209957120D01*
X101772920Y-210033320D01*
X101719580Y-210079040D01*
X101689100Y-210094280D01*
X101684020Y-210094280D01*
X101651000Y-210076500D01*
X101582420Y-210033320D01*
X101488440Y-209972360D01*
X101386840Y-209903780D01*
X101280160Y-209830120D01*
X101191260Y-209769160D01*
X101130300Y-209731060D01*
X101104900Y-209718360D01*
X101076960Y-209728520D01*
X101013460Y-209759000D01*
X100957580Y-209786940D01*
X100873760Y-209827580D01*
X100828040Y-209845360D01*
X100807720Y-209840280D01*
X100805180Y-209840280D01*
X100789940Y-209809800D01*
X100756920Y-209733600D01*
X100708660Y-209621840D01*
X100650240Y-209482140D01*
X100581660Y-209317040D01*
X100541020Y-209223060D01*
X100292100Y-208623620D01*
X100327660Y-208595680D01*
X100370840Y-208560120D01*
X100439420Y-208511860D01*
X100457200Y-208496620D01*
X100599440Y-208359460D01*
X100703580Y-208191820D01*
X100759460Y-208006400D01*
X100769620Y-207810820D01*
X100762000Y-207765100D01*
X100708660Y-207587300D01*
X100612140Y-207422200D01*
X100543560Y-207340920D01*
X100378460Y-207216460D01*
X100193040Y-207142800D01*
X100000000Y-207122480D01*
X99796800Y-207145340D01*
X99616460Y-207224080D01*
X99464060Y-207346000D01*
X99337060Y-207508560D01*
X99260860Y-207691440D01*
X99238000Y-207881940D01*
X99265940Y-208085140D01*
X99344680Y-208270560D01*
X99474220Y-208433120D01*
X99606300Y-208539800D01*
X99667260Y-208585520D01*
X99702820Y-208618540D01*
X99705360Y-208626160D01*
X99695200Y-208659180D01*
X99664720Y-208732840D01*
X99621540Y-208842060D01*
X99568200Y-208974140D01*
X99507240Y-209124000D01*
X99441200Y-209278940D01*
X99377700Y-209431340D01*
X99316740Y-209571040D01*
X99263400Y-209692960D01*
X99225300Y-209784400D01*
X99199900Y-209837740D01*
X99192280Y-209845360D01*
X99159260Y-209840280D01*
X99088140Y-209809800D01*
X99044960Y-209786940D01*
X98968760Y-209748840D01*
X98915420Y-209723440D01*
X98902720Y-209718360D01*
X98874780Y-209731060D01*
X98811280Y-209771700D01*
X98722380Y-209832660D01*
X98610620Y-209908860D01*
X98501400Y-209982520D01*
X98407420Y-210043480D01*
X98343920Y-210084120D01*
X98313440Y-210099360D01*
X98288040Y-210079040D01*
X98232160Y-210028240D01*
X98148340Y-209952040D01*
X98051820Y-209858060D01*
X98031500Y-209840280D01*
X97909580Y-209718360D01*
X97825760Y-209632000D01*
X97782580Y-209581200D01*
X97772420Y-209558340D01*
X97792740Y-209527860D01*
X97835920Y-209461820D01*
X97899420Y-209367840D01*
X97973080Y-209258620D01*
X98046740Y-209149400D01*
X98107700Y-209057960D01*
X98150880Y-208991920D01*
X98166120Y-208963980D01*
X98155960Y-208925880D01*
X98128020Y-208852220D01*
X98089920Y-208753160D01*
X98044200Y-208649020D01*
X98001020Y-208547420D01*
X97962920Y-208461060D01*
X97934980Y-208407720D01*
X97927360Y-208397560D01*
X97891800Y-208389940D01*
X97813060Y-208374700D01*
X97701300Y-208354380D01*
X97592080Y-208334060D01*
X97465080Y-208308660D01*
X97355860Y-208288340D01*
X97279660Y-208270560D01*
X97249180Y-208262940D01*
X97218700Y-208247700D01*
X97226320Y-207495860D01*
X97432060Y-207455220D01*
X97561600Y-207429820D01*
X97698760Y-207404420D01*
X97797820Y-207386640D01*
X97960380Y-207353620D01*
X98069600Y-207107240D01*
X98115320Y-206998020D01*
X98153420Y-206904040D01*
X98173740Y-206843080D01*
X98178820Y-206827840D01*
X98163580Y-206792280D01*
X98117860Y-206716080D01*
X98051820Y-206611940D01*
X97988320Y-206520500D01*
X97912120Y-206408740D01*
X97848620Y-206314760D01*
X97802900Y-206246180D01*
X97782580Y-206213160D01*
X97780040Y-206197920D01*
X97790200Y-206175060D01*
X97820680Y-206136960D01*
X97874020Y-206078540D01*
X97960380Y-205992180D01*
X98034040Y-205918520D01*
X98130560Y-205822000D01*
X98216920Y-205738180D01*
X98277880Y-205679760D01*
X98308360Y-205654360D01*
X98310900Y-205651820D01*
X98338840Y-205667060D01*
X98402340Y-205707700D01*
X98493780Y-205771200D01*
X98605540Y-205847400D01*
X98636020Y-205865180D01*
X98948440Y-206081080D01*
X99202440Y-205976940D01*
X99311660Y-205933760D01*
X99400560Y-205895660D01*
X99456440Y-205872800D01*
X99466600Y-205865180D01*
X99476760Y-205837240D01*
X99492000Y-205761040D01*
X99514860Y-205654360D01*
X99537720Y-205522280D01*
X99542800Y-205496880D01*
X99570740Y-205359720D01*
X99593600Y-205245420D01*
X99611380Y-205161600D01*
X99624080Y-205120960D01*
X99624080Y-205118420D01*
X99654560Y-205113340D01*
X99730760Y-205108260D01*
X99834900Y-205103180D01*
X99959360Y-205100640D01*
X100083820Y-205100640D01*
X100203200Y-205100640D01*
X100302260Y-205103180D01*
G37*
D19*
X131937742Y-121977500D02*
X132412258Y-121977500D01*
X131937742Y-123022500D02*
X132412258Y-123022500D01*
X111262258Y-167922500D02*
X110787742Y-167922500D01*
X111262258Y-166877500D02*
X110787742Y-166877500D01*
X74350000Y-115210000D02*
X76350000Y-115210000D01*
X74350000Y-115210000D02*
X74350000Y-111200000D01*
X76350000Y-115210000D02*
X76350000Y-111200000D01*
X133522500Y-130937742D02*
X133522500Y-131412258D01*
X132477500Y-130937742D02*
X132477500Y-131412258D01*
X131115000Y-126240000D02*
X130370000Y-126240000D01*
X130370000Y-126240000D02*
X130370000Y-124550000D01*
X124695000Y-126240000D02*
X125440000Y-126240000D01*
X131115000Y-129000000D02*
X131115000Y-126240000D01*
X131115000Y-129000000D02*
X131115000Y-131760000D01*
X124695000Y-129000000D02*
X124695000Y-126240000D01*
X124695000Y-129000000D02*
X124695000Y-131760000D01*
X131115000Y-131760000D02*
X130370000Y-131760000D01*
X124695000Y-131760000D02*
X125440000Y-131760000D01*
X132477500Y-135562258D02*
X132477500Y-135087742D01*
X133522500Y-135562258D02*
X133522500Y-135087742D01*
X122437742Y-121977500D02*
X122912258Y-121977500D01*
X122437742Y-123022500D02*
X122912258Y-123022500D01*
X133522500Y-126437742D02*
X133522500Y-126912258D01*
X132477500Y-126437742D02*
X132477500Y-126912258D01*
X111262258Y-165412500D02*
X110787742Y-165412500D01*
X111262258Y-164367500D02*
X110787742Y-164367500D01*
D22*
X121869060Y-229550800D03*
X128120000Y-229500000D03*
D23*
X124868800Y-224699400D03*
M02*
